%TF.GenerationSoftware,KiCad,Pcbnew,7.0.7*%
%TF.CreationDate,2023-08-27T10:12:23+07:00*%
%TF.ProjectId,TinyUSBHub,54696e79-5553-4424-9875-622e6b696361,rev?*%
%TF.SameCoordinates,Original*%
%TF.FileFunction,Soldermask,Top*%
%TF.FilePolarity,Negative*%
%FSLAX46Y46*%
G04 Gerber Fmt 4.6, Leading zero omitted, Abs format (unit mm)*
G04 Created by KiCad (PCBNEW 7.0.7) date 2023-08-27 10:12:23*
%MOMM*%
%LPD*%
G01*
G04 APERTURE LIST*
G04 Aperture macros list*
%AMRoundRect*
0 Rectangle with rounded corners*
0 $1 Rounding radius*
0 $2 $3 $4 $5 $6 $7 $8 $9 X,Y pos of 4 corners*
0 Add a 4 corners polygon primitive as box body*
4,1,4,$2,$3,$4,$5,$6,$7,$8,$9,$2,$3,0*
0 Add four circle primitives for the rounded corners*
1,1,$1+$1,$2,$3*
1,1,$1+$1,$4,$5*
1,1,$1+$1,$6,$7*
1,1,$1+$1,$8,$9*
0 Add four rect primitives between the rounded corners*
20,1,$1+$1,$2,$3,$4,$5,0*
20,1,$1+$1,$4,$5,$6,$7,0*
20,1,$1+$1,$6,$7,$8,$9,0*
20,1,$1+$1,$8,$9,$2,$3,0*%
G04 Aperture macros list end*
%ADD10R,1.350000X1.350000*%
%ADD11O,1.350000X1.350000*%
%ADD12R,1.400000X1.200000*%
%ADD13R,1.750000X0.450000*%
%ADD14RoundRect,0.237500X-0.250000X-0.237500X0.250000X-0.237500X0.250000X0.237500X-0.250000X0.237500X0*%
%ADD15RoundRect,0.237500X0.250000X0.237500X-0.250000X0.237500X-0.250000X-0.237500X0.250000X-0.237500X0*%
%ADD16RoundRect,0.237500X0.237500X-0.300000X0.237500X0.300000X-0.237500X0.300000X-0.237500X-0.300000X0*%
%ADD17RoundRect,0.237500X-0.237500X0.300000X-0.237500X-0.300000X0.237500X-0.300000X0.237500X0.300000X0*%
%ADD18RoundRect,0.237500X0.300000X0.237500X-0.300000X0.237500X-0.300000X-0.237500X0.300000X-0.237500X0*%
%ADD19RoundRect,0.237500X-0.300000X-0.237500X0.300000X-0.237500X0.300000X0.237500X-0.300000X0.237500X0*%
G04 APERTURE END LIST*
D10*
%TO.C,J3*%
X107525000Y-91350000D03*
D11*
X109525000Y-91350000D03*
X111525000Y-91350000D03*
X113525000Y-91350000D03*
%TD*%
D10*
%TO.C,J2*%
X117575000Y-91350000D03*
D11*
X119575000Y-91350000D03*
X121575000Y-91350000D03*
X123575000Y-91350000D03*
%TD*%
D10*
%TO.C,J1*%
X117400000Y-106575000D03*
D11*
X119400000Y-106575000D03*
X121400000Y-106575000D03*
X123400000Y-106575000D03*
%TD*%
D12*
%TO.C,Y1*%
X111450000Y-105475000D03*
X109250000Y-105475000D03*
X109250000Y-107175000D03*
X111450000Y-107175000D03*
%TD*%
D13*
%TO.C,U1*%
X111950000Y-94325000D03*
X111950000Y-94975000D03*
X111950000Y-95625000D03*
X111950000Y-96275000D03*
X111950000Y-96925000D03*
X111950000Y-97575000D03*
X111950000Y-98225000D03*
X111950000Y-98875000D03*
X111950000Y-99525000D03*
X111950000Y-100175000D03*
X111950000Y-100825000D03*
X111950000Y-101475000D03*
X111950000Y-102125000D03*
X111950000Y-102775000D03*
X119150000Y-102775000D03*
X119150000Y-102125000D03*
X119150000Y-101475000D03*
X119150000Y-100825000D03*
X119150000Y-100175000D03*
X119150000Y-99525000D03*
X119150000Y-98875000D03*
X119150000Y-98225000D03*
X119150000Y-97575000D03*
X119150000Y-96925000D03*
X119150000Y-96275000D03*
X119150000Y-95625000D03*
X119150000Y-94975000D03*
X119150000Y-94325000D03*
%TD*%
D14*
%TO.C,R7*%
X121937500Y-99450000D03*
X123762500Y-99450000D03*
%TD*%
%TO.C,R6*%
X121937500Y-97893000D03*
X123762500Y-97893000D03*
%TD*%
D15*
%TO.C,R5*%
X123762500Y-101007000D03*
X121937500Y-101007000D03*
%TD*%
%TO.C,R4*%
X123762500Y-102564000D03*
X121937500Y-102564000D03*
%TD*%
D14*
%TO.C,R3*%
X107337500Y-99167000D03*
X109162500Y-99167000D03*
%TD*%
D15*
%TO.C,R1*%
X109162500Y-100726000D03*
X107337500Y-100726000D03*
%TD*%
D16*
%TO.C,C12*%
X107400000Y-107187500D03*
X107400000Y-105462500D03*
%TD*%
D17*
%TO.C,C11*%
X113300000Y-105462500D03*
X113300000Y-107187500D03*
%TD*%
D18*
%TO.C,C6*%
X109112500Y-102285000D03*
X107387500Y-102285000D03*
%TD*%
%TO.C,C5*%
X109112500Y-94490000D03*
X107387500Y-94490000D03*
%TD*%
%TO.C,C4*%
X109112500Y-96049000D03*
X107387500Y-96049000D03*
%TD*%
D19*
%TO.C,C3*%
X121987500Y-96336000D03*
X123712500Y-96336000D03*
%TD*%
D18*
%TO.C,C2*%
X109112500Y-97608000D03*
X107387500Y-97608000D03*
%TD*%
D19*
%TO.C,C1*%
X121987500Y-94779000D03*
X123712500Y-94779000D03*
%TD*%
M02*
