  0
SECTION
  2
HEADER
  9
$ANGBASE
  50
0.0
  9
$ANGDIR
  70
1
  9
$MEASUREMENT
  70
1
  0
ENDSEC
  0
SECTION
  2
TABLES
  0
TABLE
  2
LTYPE
  70
4
  0
LTYPE
  5
40F
  2
CONTINUOUS
  70
0
  3
Solid line
  72
65
  73
0
  40
0.0
  0
LTYPE
  5
410
  2
DASHDOT
 70
0
  3
Dash Dot ____ _ ____ _
 72
65
 73
4
 40
2.0
 49
1.25
 49
-0.25
 49
0.25
 49
-0.25
  0
LTYPE
  5
411
  2
DASHED
 70
0
  3
Dashed __ __ __ __ __
 72
65
 73
2
 40
0.75
 49
0.5
 49
-0.25
  0
LTYPE
  5
43B
  2
DOTTED
 70
0
  3
Dotted .  .  .  .
 72
65
 73
2
 40
0.2
 49
0.0
 49
-0.2
  0
ENDTAB
  0
TABLE
  2
STYLE
  70
4
  0
STYLE
  2
KICAD
  70
0
  40
0
  41
1
  42
1
  50
0
  71
0
  3
isocp.shx
  0
STYLE
  2
KICADB
  70
0
  40
0
  41
1
  42
1
  50
0
  71
0
  3
isocp.shx
  0
STYLE
  2
KICADI
  70
0
  40
0
  41
1
  42
1
  50
15
  71
0
  3
isocp.shx
  0
STYLE
  2
KICADBI
  70
0
  40
0
  41
1
  42
1
  50
15
  71
0
  3
isocp.shx
  0
ENDTAB
  0
TABLE
  2
LAYER
  70
1
  0
LAYER
  2
BLACK
  70
0
  62
7
  6
CONTINUOUS
  0
ENDTAB
  0
ENDSEC
  0
SECTION
  2
ENTITIES
0
LINE
8
BLACK
6
CONTINUOUS
10
105.55
20
-90.575
11
105.55
21
-107.575
0
LINE
8
BLACK
6
CONTINUOUS
10
124.55
20
-89.575
11
106.55
21
-89.575
0
LINE
8
BLACK
6
CONTINUOUS
10
125.55
20
-107.575
11
125.55
21
-90.575
0
LINE
8
BLACK
6
CONTINUOUS
10
106.55
20
-108.575
11
124.55
21
-108.575
0
ARC
8
BLACK
10
124.55
20
-107.575
40
1
50
-90
51
-0
0
ARC
8
BLACK
10
124.55
20
-90.575
40
1
50
-0
51
90
0
ARC
8
BLACK
10
106.55
20
-90.575
40
1
50
90
51
180
0
ARC
8
BLACK
10
106.55
20
-107.575
40
1
50
-180
51
-90
0
LINE
8
BLACK
6
CONTINUOUS
10
107.25
20
-93.325
11
107.55
21
-93.625
0
LINE
8
BLACK
6
CONTINUOUS
10
107.55
20
-93.325
11
107.25
21
-93.625
0
LINE
8
BLACK
6
CONTINUOUS
10
107.25
20
-103.2
11
107.55
21
-103.5
0
LINE
8
BLACK
6
CONTINUOUS
10
107.55
20
-103.2
11
107.25
21
-103.5
0
LINE
8
BLACK
6
CONTINUOUS
10
107.989
20
-106.178
11
108.289
21
-106.478
0
LINE
8
BLACK
6
CONTINUOUS
10
108.289
20
-106.178
11
107.989
21
-106.478
0
LINE
8
BLACK
6
CONTINUOUS
10
109.45
20
-93
11
109.75
21
-93.3
0
LINE
8
BLACK
6
CONTINUOUS
10
109.75
20
-93
11
109.45
21
-93.3
0
LINE
8
BLACK
6
CONTINUOUS
10
109.73
20
-99.78
11
110.03
21
-100.08
0
LINE
8
BLACK
6
CONTINUOUS
10
110.03
20
-99.78
11
109.73
21
-100.08
0
LINE
8
BLACK
6
CONTINUOUS
10
109.914
20
-95.3611
11
110.214
21
-95.6611
0
LINE
8
BLACK
6
CONTINUOUS
10
110.214
20
-95.3611
11
109.914
21
-95.6611
0
LINE
8
BLACK
6
CONTINUOUS
10
110.175
20
-96.125
11
110.475
21
-96.425
0
LINE
8
BLACK
6
CONTINUOUS
10
110.475
20
-96.125
11
110.175
21
-96.425
0
LINE
8
BLACK
6
CONTINUOUS
10
110.191
20
-94.6545
11
110.491
21
-94.9545
0
LINE
8
BLACK
6
CONTINUOUS
10
110.491
20
-94.6545
11
110.191
21
-94.9545
0
LINE
8
BLACK
6
CONTINUOUS
10
110.2
20
-102.625
11
110.5
21
-102.925
0
LINE
8
BLACK
6
CONTINUOUS
10
110.5
20
-102.625
11
110.2
21
-102.925
0
LINE
8
BLACK
6
CONTINUOUS
10
110.375
20
-93.05
11
110.675
21
-93.35
0
LINE
8
BLACK
6
CONTINUOUS
10
110.675
20
-93.05
11
110.375
21
-93.35
0
LINE
8
BLACK
6
CONTINUOUS
10
114.175
20
-107.05
11
114.475
21
-107.35
0
LINE
8
BLACK
6
CONTINUOUS
10
114.475
20
-107.05
11
114.175
21
-107.35
0
LINE
8
BLACK
6
CONTINUOUS
10
114.45
20
-100
11
114.75
21
-100.3
0
LINE
8
BLACK
6
CONTINUOUS
10
114.75
20
-100
11
114.45
21
-100.3
0
LINE
8
BLACK
6
CONTINUOUS
10
115.029
20
-100.7
11
115.329
21
-101
0
LINE
8
BLACK
6
CONTINUOUS
10
115.329
20
-100.7
11
115.029
21
-101
0
LINE
8
BLACK
6
CONTINUOUS
10
115.275
20
-95.475
11
115.575
21
-95.775
0
LINE
8
BLACK
6
CONTINUOUS
10
115.575
20
-95.475
11
115.275
21
-95.775
0
LINE
8
BLACK
6
CONTINUOUS
10
115.609
20
-98.36
11
115.909
21
-98.66
0
LINE
8
BLACK
6
CONTINUOUS
10
115.909
20
-98.36
11
115.609
21
-98.66
0
LINE
8
BLACK
6
CONTINUOUS
10
116.025
20
-96.0545
11
116.325
21
-96.3545
0
LINE
8
BLACK
6
CONTINUOUS
10
116.325
20
-96.0545
11
116.025
21
-96.3545
0
LINE
8
BLACK
6
CONTINUOUS
10
117.605
20
-102.395
11
117.905
21
-102.695
0
LINE
8
BLACK
6
CONTINUOUS
10
117.905
20
-102.395
11
117.605
21
-102.695
0
LINE
8
BLACK
6
CONTINUOUS
10
118.69
20
-104.46
11
118.99
21
-104.76
0
LINE
8
BLACK
6
CONTINUOUS
10
118.99
20
-104.46
11
118.69
21
-104.76
0
LINE
8
BLACK
6
CONTINUOUS
10
122.692
20
-93.9364
11
122.992
21
-94.2364
0
LINE
8
BLACK
6
CONTINUOUS
10
122.992
20
-93.9364
11
122.692
21
-94.2364
0
CIRCLE
8
BLACK
10
107.525
20
-91.35
40
0.4
0
CIRCLE
8
BLACK
10
109.525
20
-91.35
40
0.4
0
CIRCLE
8
BLACK
10
111.525
20
-91.35
40
0.4
0
CIRCLE
8
BLACK
10
113.525
20
-91.35
40
0.4
0
CIRCLE
8
BLACK
10
117.4
20
-106.575
40
0.4
0
CIRCLE
8
BLACK
10
117.575
20
-91.35
40
0.4
0
CIRCLE
8
BLACK
10
119.4
20
-106.575
40
0.4
0
CIRCLE
8
BLACK
10
119.575
20
-91.35
40
0.4
0
CIRCLE
8
BLACK
10
121.4
20
-106.575
40
0.4
0
CIRCLE
8
BLACK
10
121.575
20
-91.35
40
0.4
0
CIRCLE
8
BLACK
10
123.4
20
-106.575
40
0.4
0
CIRCLE
8
BLACK
10
123.575
20
-91.35
40
0.4
0
LINE
8
BLACK
6
CONTINUOUS
10
108.108
20
-111.74
11
108.108
21
-109.74
0
LINE
8
BLACK
6
CONTINUOUS
10
108.108
20
-109.74
11
108.584
21
-109.74
0
LINE
8
BLACK
6
CONTINUOUS
10
108.584
20
-109.74
11
108.87
21
-109.835
0
LINE
8
BLACK
6
CONTINUOUS
10
108.87
20
-109.835
11
109.06
21
-110.026
0
LINE
8
BLACK
6
CONTINUOUS
10
109.06
20
-110.026
11
109.155
21
-110.216
0
LINE
8
BLACK
6
CONTINUOUS
10
109.155
20
-110.216
11
109.251
21
-110.597
0
LINE
8
BLACK
6
CONTINUOUS
10
109.251
20
-110.597
11
109.251
21
-110.883
0
LINE
8
BLACK
6
CONTINUOUS
10
109.251
20
-110.883
11
109.155
21
-111.264
0
LINE
8
BLACK
6
CONTINUOUS
10
109.155
20
-111.264
11
109.06
21
-111.454
0
LINE
8
BLACK
6
CONTINUOUS
10
109.06
20
-111.454
11
108.87
21
-111.645
0
LINE
8
BLACK
6
CONTINUOUS
10
108.87
20
-111.645
11
108.584
21
-111.74
0
LINE
8
BLACK
6
CONTINUOUS
10
108.584
20
-111.74
11
108.108
21
-111.74
0
LINE
8
BLACK
6
CONTINUOUS
10
110.108
20
-111.74
11
110.108
21
-110.407
0
LINE
8
BLACK
6
CONTINUOUS
10
110.108
20
-110.787
11
110.203
21
-110.597
0
LINE
8
BLACK
6
CONTINUOUS
10
110.203
20
-110.597
11
110.298
21
-110.502
0
LINE
8
BLACK
6
CONTINUOUS
10
110.298
20
-110.502
11
110.489
21
-110.407
0
LINE
8
BLACK
6
CONTINUOUS
10
110.489
20
-110.407
11
110.679
21
-110.407
0
LINE
8
BLACK
6
CONTINUOUS
10
111.346
20
-111.74
11
111.346
21
-110.407
0
LINE
8
BLACK
6
CONTINUOUS
10
111.346
20
-109.74
11
111.251
21
-109.835
0
LINE
8
BLACK
6
CONTINUOUS
10
111.251
20
-109.835
11
111.346
21
-109.93
0
LINE
8
BLACK
6
CONTINUOUS
10
111.346
20
-109.93
11
111.441
21
-109.835
0
LINE
8
BLACK
6
CONTINUOUS
10
111.441
20
-109.835
11
111.346
21
-109.74
0
LINE
8
BLACK
6
CONTINUOUS
10
111.346
20
-109.74
11
111.346
21
-109.93
0
LINE
8
BLACK
6
CONTINUOUS
10
112.584
20
-111.74
11
112.393
21
-111.645
0
LINE
8
BLACK
6
CONTINUOUS
10
112.393
20
-111.645
11
112.298
21
-111.454
0
LINE
8
BLACK
6
CONTINUOUS
10
112.298
20
-111.454
11
112.298
21
-109.74
0
LINE
8
BLACK
6
CONTINUOUS
10
113.632
20
-111.74
11
113.441
21
-111.645
0
LINE
8
BLACK
6
CONTINUOUS
10
113.441
20
-111.645
11
113.346
21
-111.454
0
LINE
8
BLACK
6
CONTINUOUS
10
113.346
20
-111.454
11
113.346
21
-109.74
0
LINE
8
BLACK
6
CONTINUOUS
10
115.917
20
-111.74
11
115.917
21
-109.74
0
LINE
8
BLACK
6
CONTINUOUS
10
115.917
20
-109.74
11
116.584
21
-111.168
0
LINE
8
BLACK
6
CONTINUOUS
10
116.584
20
-111.168
11
117.251
21
-109.74
0
LINE
8
BLACK
6
CONTINUOUS
10
117.251
20
-109.74
11
117.251
21
-111.74
0
LINE
8
BLACK
6
CONTINUOUS
10
119.06
20
-111.74
11
119.06
21
-110.692
0
LINE
8
BLACK
6
CONTINUOUS
10
119.06
20
-110.692
11
118.965
21
-110.502
0
LINE
8
BLACK
6
CONTINUOUS
10
118.965
20
-110.502
11
118.774
21
-110.407
0
LINE
8
BLACK
6
CONTINUOUS
10
118.774
20
-110.407
11
118.393
21
-110.407
0
LINE
8
BLACK
6
CONTINUOUS
10
118.393
20
-110.407
11
118.203
21
-110.502
0
LINE
8
BLACK
6
CONTINUOUS
10
119.06
20
-111.645
11
118.87
21
-111.74
0
LINE
8
BLACK
6
CONTINUOUS
10
118.87
20
-111.74
11
118.393
21
-111.74
0
LINE
8
BLACK
6
CONTINUOUS
10
118.393
20
-111.74
11
118.203
21
-111.645
0
LINE
8
BLACK
6
CONTINUOUS
10
118.203
20
-111.645
11
118.108
21
-111.454
0
LINE
8
BLACK
6
CONTINUOUS
10
118.108
20
-111.454
11
118.108
21
-111.264
0
LINE
8
BLACK
6
CONTINUOUS
10
118.108
20
-111.264
11
118.203
21
-111.073
0
LINE
8
BLACK
6
CONTINUOUS
10
118.203
20
-111.073
11
118.393
21
-110.978
0
LINE
8
BLACK
6
CONTINUOUS
10
118.393
20
-110.978
11
118.87
21
-110.978
0
LINE
8
BLACK
6
CONTINUOUS
10
118.87
20
-110.978
11
119.06
21
-110.883
0
LINE
8
BLACK
6
CONTINUOUS
10
120.013
20
-110.407
11
120.013
21
-112.407
0
LINE
8
BLACK
6
CONTINUOUS
10
120.013
20
-110.502
11
120.203
21
-110.407
0
LINE
8
BLACK
6
CONTINUOUS
10
120.203
20
-110.407
11
120.584
21
-110.407
0
LINE
8
BLACK
6
CONTINUOUS
10
120.584
20
-110.407
11
120.774
21
-110.502
0
LINE
8
BLACK
6
CONTINUOUS
10
120.774
20
-110.502
11
120.87
21
-110.597
0
LINE
8
BLACK
6
CONTINUOUS
10
120.87
20
-110.597
11
120.965
21
-110.787
0
LINE
8
BLACK
6
CONTINUOUS
10
120.965
20
-110.787
11
120.965
21
-111.359
0
LINE
8
BLACK
6
CONTINUOUS
10
120.965
20
-111.359
11
120.87
21
-111.549
0
LINE
8
BLACK
6
CONTINUOUS
10
120.87
20
-111.549
11
120.774
21
-111.645
0
LINE
8
BLACK
6
CONTINUOUS
10
120.774
20
-111.645
11
120.584
21
-111.74
0
LINE
8
BLACK
6
CONTINUOUS
10
120.584
20
-111.74
11
120.203
21
-111.74
0
LINE
8
BLACK
6
CONTINUOUS
10
120.203
20
-111.74
11
120.013
21
-111.645
0
LINE
8
BLACK
6
CONTINUOUS
10
121.822
20
-111.549
11
121.917
21
-111.645
0
LINE
8
BLACK
6
CONTINUOUS
10
121.917
20
-111.645
11
121.822
21
-111.74
0
LINE
8
BLACK
6
CONTINUOUS
10
121.822
20
-111.74
11
121.727
21
-111.645
0
LINE
8
BLACK
6
CONTINUOUS
10
121.727
20
-111.645
11
121.822
21
-111.549
0
LINE
8
BLACK
6
CONTINUOUS
10
121.822
20
-111.549
11
121.822
21
-111.74
0
LINE
8
BLACK
6
CONTINUOUS
10
121.822
20
-110.502
11
121.917
21
-110.597
0
LINE
8
BLACK
6
CONTINUOUS
10
121.917
20
-110.597
11
121.822
21
-110.692
0
LINE
8
BLACK
6
CONTINUOUS
10
121.822
20
-110.692
11
121.727
21
-110.597
0
LINE
8
BLACK
6
CONTINUOUS
10
121.727
20
-110.597
11
121.822
21
-110.502
0
LINE
8
BLACK
6
CONTINUOUS
10
121.822
20
-110.502
11
121.822
21
-110.692
0
LINE
8
BLACK
6
CONTINUOUS
10
105.2
20
-114.875
11
105.5
21
-115.175
0
LINE
8
BLACK
6
CONTINUOUS
10
105.5
20
-114.875
11
105.2
21
-115.175
0
LINE
8
BLACK
6
CONTINUOUS
10
108.489
20
-113.94
11
108.679
21
-113.94
0
LINE
8
BLACK
6
CONTINUOUS
10
108.679
20
-113.94
11
108.87
21
-114.035
0
LINE
8
BLACK
6
CONTINUOUS
10
108.87
20
-114.035
11
108.965
21
-114.13
0
LINE
8
BLACK
6
CONTINUOUS
10
108.965
20
-114.13
11
109.06
21
-114.321
0
LINE
8
BLACK
6
CONTINUOUS
10
109.06
20
-114.321
11
109.155
21
-114.702
0
LINE
8
BLACK
6
CONTINUOUS
10
109.155
20
-114.702
11
109.155
21
-115.178
0
LINE
8
BLACK
6
CONTINUOUS
10
109.155
20
-115.178
11
109.06
21
-115.559
0
LINE
8
BLACK
6
CONTINUOUS
10
109.06
20
-115.559
11
108.965
21
-115.749
0
LINE
8
BLACK
6
CONTINUOUS
10
108.965
20
-115.749
11
108.87
21
-115.845
0
LINE
8
BLACK
6
CONTINUOUS
10
108.87
20
-115.845
11
108.679
21
-115.94
0
LINE
8
BLACK
6
CONTINUOUS
10
108.679
20
-115.94
11
108.489
21
-115.94
0
LINE
8
BLACK
6
CONTINUOUS
10
108.489
20
-115.94
11
108.298
21
-115.845
0
LINE
8
BLACK
6
CONTINUOUS
10
108.298
20
-115.845
11
108.203
21
-115.749
0
LINE
8
BLACK
6
CONTINUOUS
10
108.203
20
-115.749
11
108.108
21
-115.559
0
LINE
8
BLACK
6
CONTINUOUS
10
108.108
20
-115.559
11
108.013
21
-115.178
0
LINE
8
BLACK
6
CONTINUOUS
10
108.013
20
-115.178
11
108.013
21
-114.702
0
LINE
8
BLACK
6
CONTINUOUS
10
108.013
20
-114.702
11
108.108
21
-114.321
0
LINE
8
BLACK
6
CONTINUOUS
10
108.108
20
-114.321
11
108.203
21
-114.13
0
LINE
8
BLACK
6
CONTINUOUS
10
108.203
20
-114.13
11
108.298
21
-114.035
0
LINE
8
BLACK
6
CONTINUOUS
10
108.298
20
-114.035
11
108.489
21
-113.94
0
LINE
8
BLACK
6
CONTINUOUS
10
110.013
20
-115.749
11
110.108
21
-115.845
0
LINE
8
BLACK
6
CONTINUOUS
10
110.108
20
-115.845
11
110.013
21
-115.94
0
LINE
8
BLACK
6
CONTINUOUS
10
110.013
20
-115.94
11
109.917
21
-115.845
0
LINE
8
BLACK
6
CONTINUOUS
10
109.917
20
-115.845
11
110.013
21
-115.749
0
LINE
8
BLACK
6
CONTINUOUS
10
110.013
20
-115.749
11
110.013
21
-115.94
0
LINE
8
BLACK
6
CONTINUOUS
10
110.774
20
-113.94
11
112.013
21
-113.94
0
LINE
8
BLACK
6
CONTINUOUS
10
112.013
20
-113.94
11
111.346
21
-114.702
0
LINE
8
BLACK
6
CONTINUOUS
10
111.346
20
-114.702
11
111.632
21
-114.702
0
LINE
8
BLACK
6
CONTINUOUS
10
111.632
20
-114.702
11
111.822
21
-114.797
0
LINE
8
BLACK
6
CONTINUOUS
10
111.822
20
-114.797
11
111.917
21
-114.892
0
LINE
8
BLACK
6
CONTINUOUS
10
111.917
20
-114.892
11
112.013
21
-115.083
0
LINE
8
BLACK
6
CONTINUOUS
10
112.013
20
-115.083
11
112.013
21
-115.559
0
LINE
8
BLACK
6
CONTINUOUS
10
112.013
20
-115.559
11
111.917
21
-115.749
0
LINE
8
BLACK
6
CONTINUOUS
10
111.917
20
-115.749
11
111.822
21
-115.845
0
LINE
8
BLACK
6
CONTINUOUS
10
111.822
20
-115.845
11
111.632
21
-115.94
0
LINE
8
BLACK
6
CONTINUOUS
10
111.632
20
-115.94
11
111.06
21
-115.94
0
LINE
8
BLACK
6
CONTINUOUS
10
111.06
20
-115.94
11
110.87
21
-115.845
0
LINE
8
BLACK
6
CONTINUOUS
10
110.87
20
-115.845
11
110.774
21
-115.749
0
LINE
8
BLACK
6
CONTINUOUS
10
113.251
20
-113.94
11
113.441
21
-113.94
0
LINE
8
BLACK
6
CONTINUOUS
10
113.441
20
-113.94
11
113.632
21
-114.035
0
LINE
8
BLACK
6
CONTINUOUS
10
113.632
20
-114.035
11
113.727
21
-114.13
0
LINE
8
BLACK
6
CONTINUOUS
10
113.727
20
-114.13
11
113.822
21
-114.321
0
LINE
8
BLACK
6
CONTINUOUS
10
113.822
20
-114.321
11
113.917
21
-114.702
0
LINE
8
BLACK
6
CONTINUOUS
10
113.917
20
-114.702
11
113.917
21
-115.178
0
LINE
8
BLACK
6
CONTINUOUS
10
113.917
20
-115.178
11
113.822
21
-115.559
0
LINE
8
BLACK
6
CONTINUOUS
10
113.822
20
-115.559
11
113.727
21
-115.749
0
LINE
8
BLACK
6
CONTINUOUS
10
113.727
20
-115.749
11
113.632
21
-115.845
0
LINE
8
BLACK
6
CONTINUOUS
10
113.632
20
-115.845
11
113.441
21
-115.94
0
LINE
8
BLACK
6
CONTINUOUS
10
113.441
20
-115.94
11
113.251
21
-115.94
0
LINE
8
BLACK
6
CONTINUOUS
10
113.251
20
-115.94
11
113.06
21
-115.845
0
LINE
8
BLACK
6
CONTINUOUS
10
113.06
20
-115.845
11
112.965
21
-115.749
0
LINE
8
BLACK
6
CONTINUOUS
10
112.965
20
-115.749
11
112.87
21
-115.559
0
LINE
8
BLACK
6
CONTINUOUS
10
112.87
20
-115.559
11
112.774
21
-115.178
0
LINE
8
BLACK
6
CONTINUOUS
10
112.774
20
-115.178
11
112.774
21
-114.702
0
LINE
8
BLACK
6
CONTINUOUS
10
112.774
20
-114.702
11
112.87
21
-114.321
0
LINE
8
BLACK
6
CONTINUOUS
10
112.87
20
-114.321
11
112.965
21
-114.13
0
LINE
8
BLACK
6
CONTINUOUS
10
112.965
20
-114.13
11
113.06
21
-114.035
0
LINE
8
BLACK
6
CONTINUOUS
10
113.06
20
-114.035
11
113.251
21
-113.94
0
LINE
8
BLACK
6
CONTINUOUS
10
115.155
20
-113.94
11
115.346
21
-113.94
0
LINE
8
BLACK
6
CONTINUOUS
10
115.346
20
-113.94
11
115.536
21
-114.035
0
LINE
8
BLACK
6
CONTINUOUS
10
115.536
20
-114.035
11
115.632
21
-114.13
0
LINE
8
BLACK
6
CONTINUOUS
10
115.632
20
-114.13
11
115.727
21
-114.321
0
LINE
8
BLACK
6
CONTINUOUS
10
115.727
20
-114.321
11
115.822
21
-114.702
0
LINE
8
BLACK
6
CONTINUOUS
10
115.822
20
-114.702
11
115.822
21
-115.178
0
LINE
8
BLACK
6
CONTINUOUS
10
115.822
20
-115.178
11
115.727
21
-115.559
0
LINE
8
BLACK
6
CONTINUOUS
10
115.727
20
-115.559
11
115.632
21
-115.749
0
LINE
8
BLACK
6
CONTINUOUS
10
115.632
20
-115.749
11
115.536
21
-115.845
0
LINE
8
BLACK
6
CONTINUOUS
10
115.536
20
-115.845
11
115.346
21
-115.94
0
LINE
8
BLACK
6
CONTINUOUS
10
115.346
20
-115.94
11
115.155
21
-115.94
0
LINE
8
BLACK
6
CONTINUOUS
10
115.155
20
-115.94
11
114.965
21
-115.845
0
LINE
8
BLACK
6
CONTINUOUS
10
114.965
20
-115.845
11
114.87
21
-115.749
0
LINE
8
BLACK
6
CONTINUOUS
10
114.87
20
-115.749
11
114.774
21
-115.559
0
LINE
8
BLACK
6
CONTINUOUS
10
114.774
20
-115.559
11
114.679
21
-115.178
0
LINE
8
BLACK
6
CONTINUOUS
10
114.679
20
-115.178
11
114.679
21
-114.702
0
LINE
8
BLACK
6
CONTINUOUS
10
114.679
20
-114.702
11
114.774
21
-114.321
0
LINE
8
BLACK
6
CONTINUOUS
10
114.774
20
-114.321
11
114.87
21
-114.13
0
LINE
8
BLACK
6
CONTINUOUS
10
114.87
20
-114.13
11
114.965
21
-114.035
0
LINE
8
BLACK
6
CONTINUOUS
10
114.965
20
-114.035
11
115.155
21
-113.94
0
LINE
8
BLACK
6
CONTINUOUS
10
116.679
20
-115.94
11
116.679
21
-114.607
0
LINE
8
BLACK
6
CONTINUOUS
10
116.679
20
-114.797
11
116.774
21
-114.702
0
LINE
8
BLACK
6
CONTINUOUS
10
116.774
20
-114.702
11
116.965
21
-114.607
0
LINE
8
BLACK
6
CONTINUOUS
10
116.965
20
-114.607
11
117.251
21
-114.607
0
LINE
8
BLACK
6
CONTINUOUS
10
117.251
20
-114.607
11
117.441
21
-114.702
0
LINE
8
BLACK
6
CONTINUOUS
10
117.441
20
-114.702
11
117.536
21
-114.892
0
LINE
8
BLACK
6
CONTINUOUS
10
117.536
20
-114.892
11
117.536
21
-115.94
0
LINE
8
BLACK
6
CONTINUOUS
10
117.536
20
-114.892
11
117.632
21
-114.702
0
LINE
8
BLACK
6
CONTINUOUS
10
117.632
20
-114.702
11
117.822
21
-114.607
0
LINE
8
BLACK
6
CONTINUOUS
10
117.822
20
-114.607
11
118.108
21
-114.607
0
LINE
8
BLACK
6
CONTINUOUS
10
118.108
20
-114.607
11
118.298
21
-114.702
0
LINE
8
BLACK
6
CONTINUOUS
10
118.298
20
-114.702
11
118.393
21
-114.892
0
LINE
8
BLACK
6
CONTINUOUS
10
118.393
20
-114.892
11
118.393
21
-115.94
0
LINE
8
BLACK
6
CONTINUOUS
10
119.346
20
-115.94
11
119.346
21
-114.607
0
LINE
8
BLACK
6
CONTINUOUS
10
119.346
20
-114.797
11
119.441
21
-114.702
0
LINE
8
BLACK
6
CONTINUOUS
10
119.441
20
-114.702
11
119.632
21
-114.607
0
LINE
8
BLACK
6
CONTINUOUS
10
119.632
20
-114.607
11
119.917
21
-114.607
0
LINE
8
BLACK
6
CONTINUOUS
10
119.917
20
-114.607
11
120.108
21
-114.702
0
LINE
8
BLACK
6
CONTINUOUS
10
120.108
20
-114.702
11
120.203
21
-114.892
0
LINE
8
BLACK
6
CONTINUOUS
10
120.203
20
-114.892
11
120.203
21
-115.94
0
LINE
8
BLACK
6
CONTINUOUS
10
120.203
20
-114.892
11
120.298
21
-114.702
0
LINE
8
BLACK
6
CONTINUOUS
10
120.298
20
-114.702
11
120.489
21
-114.607
0
LINE
8
BLACK
6
CONTINUOUS
10
120.489
20
-114.607
11
120.774
21
-114.607
0
LINE
8
BLACK
6
CONTINUOUS
10
120.774
20
-114.607
11
120.965
21
-114.702
0
LINE
8
BLACK
6
CONTINUOUS
10
120.965
20
-114.702
11
121.06
21
-114.892
0
LINE
8
BLACK
6
CONTINUOUS
10
121.06
20
-114.892
11
121.06
21
-115.94
0
LINE
8
BLACK
6
CONTINUOUS
10
124.965
20
-113.845
11
123.251
21
-116.416
0
LINE
8
BLACK
6
CONTINUOUS
10
127.536
20
-113.94
11
127.727
21
-113.94
0
LINE
8
BLACK
6
CONTINUOUS
10
127.727
20
-113.94
11
127.917
21
-114.035
0
LINE
8
BLACK
6
CONTINUOUS
10
127.917
20
-114.035
11
128.013
21
-114.13
0
LINE
8
BLACK
6
CONTINUOUS
10
128.013
20
-114.13
11
128.108
21
-114.321
0
LINE
8
BLACK
6
CONTINUOUS
10
128.108
20
-114.321
11
128.203
21
-114.702
0
LINE
8
BLACK
6
CONTINUOUS
10
128.203
20
-114.702
11
128.203
21
-115.178
0
LINE
8
BLACK
6
CONTINUOUS
10
128.203
20
-115.178
11
128.108
21
-115.559
0
LINE
8
BLACK
6
CONTINUOUS
10
128.108
20
-115.559
11
128.013
21
-115.749
0
LINE
8
BLACK
6
CONTINUOUS
10
128.013
20
-115.749
11
127.917
21
-115.845
0
LINE
8
BLACK
6
CONTINUOUS
10
127.917
20
-115.845
11
127.727
21
-115.94
0
LINE
8
BLACK
6
CONTINUOUS
10
127.727
20
-115.94
11
127.536
21
-115.94
0
LINE
8
BLACK
6
CONTINUOUS
10
127.536
20
-115.94
11
127.346
21
-115.845
0
LINE
8
BLACK
6
CONTINUOUS
10
127.346
20
-115.845
11
127.251
21
-115.749
0
LINE
8
BLACK
6
CONTINUOUS
10
127.251
20
-115.749
11
127.155
21
-115.559
0
LINE
8
BLACK
6
CONTINUOUS
10
127.155
20
-115.559
11
127.06
21
-115.178
0
LINE
8
BLACK
6
CONTINUOUS
10
127.06
20
-115.178
11
127.06
21
-114.702
0
LINE
8
BLACK
6
CONTINUOUS
10
127.06
20
-114.702
11
127.155
21
-114.321
0
LINE
8
BLACK
6
CONTINUOUS
10
127.155
20
-114.321
11
127.251
21
-114.13
0
LINE
8
BLACK
6
CONTINUOUS
10
127.251
20
-114.13
11
127.346
21
-114.035
0
LINE
8
BLACK
6
CONTINUOUS
10
127.346
20
-114.035
11
127.536
21
-113.94
0
LINE
8
BLACK
6
CONTINUOUS
10
129.06
20
-115.749
11
129.155
21
-115.845
0
LINE
8
BLACK
6
CONTINUOUS
10
129.155
20
-115.845
11
129.06
21
-115.94
0
LINE
8
BLACK
6
CONTINUOUS
10
129.06
20
-115.94
11
128.965
21
-115.845
0
LINE
8
BLACK
6
CONTINUOUS
10
128.965
20
-115.845
11
129.06
21
-115.749
0
LINE
8
BLACK
6
CONTINUOUS
10
129.06
20
-115.749
11
129.06
21
-115.94
0
LINE
8
BLACK
6
CONTINUOUS
10
130.393
20
-113.94
11
130.584
21
-113.94
0
LINE
8
BLACK
6
CONTINUOUS
10
130.584
20
-113.94
11
130.774
21
-114.035
0
LINE
8
BLACK
6
CONTINUOUS
10
130.774
20
-114.035
11
130.87
21
-114.13
0
LINE
8
BLACK
6
CONTINUOUS
10
130.87
20
-114.13
11
130.965
21
-114.321
0
LINE
8
BLACK
6
CONTINUOUS
10
130.965
20
-114.321
11
131.06
21
-114.702
0
LINE
8
BLACK
6
CONTINUOUS
10
131.06
20
-114.702
11
131.06
21
-115.178
0
LINE
8
BLACK
6
CONTINUOUS
10
131.06
20
-115.178
11
130.965
21
-115.559
0
LINE
8
BLACK
6
CONTINUOUS
10
130.965
20
-115.559
11
130.87
21
-115.749
0
LINE
8
BLACK
6
CONTINUOUS
10
130.87
20
-115.749
11
130.774
21
-115.845
0
LINE
8
BLACK
6
CONTINUOUS
10
130.774
20
-115.845
11
130.584
21
-115.94
0
LINE
8
BLACK
6
CONTINUOUS
10
130.584
20
-115.94
11
130.393
21
-115.94
0
LINE
8
BLACK
6
CONTINUOUS
10
130.393
20
-115.94
11
130.203
21
-115.845
0
LINE
8
BLACK
6
CONTINUOUS
10
130.203
20
-115.845
11
130.108
21
-115.749
0
LINE
8
BLACK
6
CONTINUOUS
10
130.108
20
-115.749
11
130.013
21
-115.559
0
LINE
8
BLACK
6
CONTINUOUS
10
130.013
20
-115.559
11
129.917
21
-115.178
0
LINE
8
BLACK
6
CONTINUOUS
10
129.917
20
-115.178
11
129.917
21
-114.702
0
LINE
8
BLACK
6
CONTINUOUS
10
129.917
20
-114.702
11
130.013
21
-114.321
0
LINE
8
BLACK
6
CONTINUOUS
10
130.013
20
-114.321
11
130.108
21
-114.13
0
LINE
8
BLACK
6
CONTINUOUS
10
130.108
20
-114.13
11
130.203
21
-114.035
0
LINE
8
BLACK
6
CONTINUOUS
10
130.203
20
-114.035
11
130.393
21
-113.94
0
LINE
8
BLACK
6
CONTINUOUS
10
132.965
20
-115.94
11
131.822
21
-115.94
0
LINE
8
BLACK
6
CONTINUOUS
10
132.393
20
-115.94
11
132.393
21
-113.94
0
LINE
8
BLACK
6
CONTINUOUS
10
132.393
20
-113.94
11
132.203
21
-114.226
0
LINE
8
BLACK
6
CONTINUOUS
10
132.203
20
-114.226
11
132.013
21
-114.416
0
LINE
8
BLACK
6
CONTINUOUS
10
132.013
20
-114.416
11
131.822
21
-114.511
0
LINE
8
BLACK
6
CONTINUOUS
10
134.87
20
-115.94
11
133.727
21
-115.94
0
LINE
8
BLACK
6
CONTINUOUS
10
134.298
20
-115.94
11
134.298
21
-113.94
0
LINE
8
BLACK
6
CONTINUOUS
10
134.298
20
-113.94
11
134.108
21
-114.226
0
LINE
8
BLACK
6
CONTINUOUS
10
134.108
20
-114.226
11
133.917
21
-114.416
0
LINE
8
BLACK
6
CONTINUOUS
10
133.917
20
-114.416
11
133.727
21
-114.511
0
LINE
8
BLACK
6
CONTINUOUS
10
136.013
20
-114.797
11
135.822
21
-114.702
0
LINE
8
BLACK
6
CONTINUOUS
10
135.822
20
-114.702
11
135.727
21
-114.607
0
LINE
8
BLACK
6
CONTINUOUS
10
135.727
20
-114.607
11
135.632
21
-114.416
0
LINE
8
BLACK
6
CONTINUOUS
10
135.632
20
-114.416
11
135.632
21
-114.321
0
LINE
8
BLACK
6
CONTINUOUS
10
135.632
20
-114.321
11
135.727
21
-114.13
0
LINE
8
BLACK
6
CONTINUOUS
10
135.727
20
-114.13
11
135.822
21
-114.035
0
LINE
8
BLACK
6
CONTINUOUS
10
135.822
20
-114.035
11
136.013
21
-113.94
0
LINE
8
BLACK
6
CONTINUOUS
10
136.013
20
-113.94
11
136.393
21
-113.94
0
LINE
8
BLACK
6
CONTINUOUS
10
136.393
20
-113.94
11
136.584
21
-114.035
0
LINE
8
BLACK
6
CONTINUOUS
10
136.584
20
-114.035
11
136.679
21
-114.13
0
LINE
8
BLACK
6
CONTINUOUS
10
136.679
20
-114.13
11
136.774
21
-114.321
0
LINE
8
BLACK
6
CONTINUOUS
10
136.774
20
-114.321
11
136.774
21
-114.416
0
LINE
8
BLACK
6
CONTINUOUS
10
136.774
20
-114.416
11
136.679
21
-114.607
0
LINE
8
BLACK
6
CONTINUOUS
10
136.679
20
-114.607
11
136.584
21
-114.702
0
LINE
8
BLACK
6
CONTINUOUS
10
136.584
20
-114.702
11
136.393
21
-114.797
0
LINE
8
BLACK
6
CONTINUOUS
10
136.393
20
-114.797
11
136.013
21
-114.797
0
LINE
8
BLACK
6
CONTINUOUS
10
136.013
20
-114.797
11
135.822
21
-114.892
0
LINE
8
BLACK
6
CONTINUOUS
10
135.822
20
-114.892
11
135.727
21
-114.987
0
LINE
8
BLACK
6
CONTINUOUS
10
135.727
20
-114.987
11
135.632
21
-115.178
0
LINE
8
BLACK
6
CONTINUOUS
10
135.632
20
-115.178
11
135.632
21
-115.559
0
LINE
8
BLACK
6
CONTINUOUS
10
135.632
20
-115.559
11
135.727
21
-115.749
0
LINE
8
BLACK
6
CONTINUOUS
10
135.727
20
-115.749
11
135.822
21
-115.845
0
LINE
8
BLACK
6
CONTINUOUS
10
135.822
20
-115.845
11
136.013
21
-115.94
0
LINE
8
BLACK
6
CONTINUOUS
10
136.013
20
-115.94
11
136.393
21
-115.94
0
LINE
8
BLACK
6
CONTINUOUS
10
136.393
20
-115.94
11
136.584
21
-115.845
0
LINE
8
BLACK
6
CONTINUOUS
10
136.584
20
-115.845
11
136.679
21
-115.749
0
LINE
8
BLACK
6
CONTINUOUS
10
136.679
20
-115.749
11
136.774
21
-115.559
0
LINE
8
BLACK
6
CONTINUOUS
10
136.774
20
-115.559
11
136.774
21
-115.178
0
LINE
8
BLACK
6
CONTINUOUS
10
136.774
20
-115.178
11
136.679
21
-114.987
0
LINE
8
BLACK
6
CONTINUOUS
10
136.679
20
-114.987
11
136.584
21
-114.892
0
LINE
8
BLACK
6
CONTINUOUS
10
136.584
20
-114.892
11
136.393
21
-114.797
0
LINE
8
BLACK
6
CONTINUOUS
10
137.536
20
-113.94
11
137.536
21
-114.321
0
LINE
8
BLACK
6
CONTINUOUS
10
138.298
20
-113.94
11
138.298
21
-114.321
0
LINE
8
BLACK
6
CONTINUOUS
10
141.251
20
-116.702
11
141.155
21
-116.607
0
LINE
8
BLACK
6
CONTINUOUS
10
141.155
20
-116.607
11
140.965
21
-116.321
0
LINE
8
BLACK
6
CONTINUOUS
10
140.965
20
-116.321
11
140.87
21
-116.13
0
LINE
8
BLACK
6
CONTINUOUS
10
140.87
20
-116.13
11
140.774
21
-115.845
0
LINE
8
BLACK
6
CONTINUOUS
10
140.774
20
-115.845
11
140.679
21
-115.368
0
LINE
8
BLACK
6
CONTINUOUS
10
140.679
20
-115.368
11
140.679
21
-114.987
0
LINE
8
BLACK
6
CONTINUOUS
10
140.679
20
-114.987
11
140.774
21
-114.511
0
LINE
8
BLACK
6
CONTINUOUS
10
140.774
20
-114.511
11
140.87
21
-114.226
0
LINE
8
BLACK
6
CONTINUOUS
10
140.87
20
-114.226
11
140.965
21
-114.035
0
LINE
8
BLACK
6
CONTINUOUS
10
140.965
20
-114.035
11
141.155
21
-113.749
0
LINE
8
BLACK
6
CONTINUOUS
10
141.155
20
-113.749
11
141.251
21
-113.654
0
LINE
8
BLACK
6
CONTINUOUS
10
143.06
20
-115.94
11
141.917
21
-115.94
0
LINE
8
BLACK
6
CONTINUOUS
10
142.489
20
-115.94
11
142.489
21
-113.94
0
LINE
8
BLACK
6
CONTINUOUS
10
142.489
20
-113.94
11
142.298
21
-114.226
0
LINE
8
BLACK
6
CONTINUOUS
10
142.298
20
-114.226
11
142.108
21
-114.416
0
LINE
8
BLACK
6
CONTINUOUS
10
142.108
20
-114.416
11
141.917
21
-114.511
0
LINE
8
BLACK
6
CONTINUOUS
10
144.013
20
-115.94
11
144.393
21
-115.94
0
LINE
8
BLACK
6
CONTINUOUS
10
144.393
20
-115.94
11
144.584
21
-115.845
0
LINE
8
BLACK
6
CONTINUOUS
10
144.584
20
-115.845
11
144.679
21
-115.749
0
LINE
8
BLACK
6
CONTINUOUS
10
144.679
20
-115.749
11
144.87
21
-115.464
0
LINE
8
BLACK
6
CONTINUOUS
10
144.87
20
-115.464
11
144.965
21
-115.083
0
LINE
8
BLACK
6
CONTINUOUS
10
144.965
20
-115.083
11
144.965
21
-114.321
0
LINE
8
BLACK
6
CONTINUOUS
10
144.965
20
-114.321
11
144.87
21
-114.13
0
LINE
8
BLACK
6
CONTINUOUS
10
144.87
20
-114.13
11
144.774
21
-114.035
0
LINE
8
BLACK
6
CONTINUOUS
10
144.774
20
-114.035
11
144.584
21
-113.94
0
LINE
8
BLACK
6
CONTINUOUS
10
144.584
20
-113.94
11
144.203
21
-113.94
0
LINE
8
BLACK
6
CONTINUOUS
10
144.203
20
-113.94
11
144.013
21
-114.035
0
LINE
8
BLACK
6
CONTINUOUS
10
144.013
20
-114.035
11
143.917
21
-114.13
0
LINE
8
BLACK
6
CONTINUOUS
10
143.917
20
-114.13
11
143.822
21
-114.321
0
LINE
8
BLACK
6
CONTINUOUS
10
143.822
20
-114.321
11
143.822
21
-114.797
0
LINE
8
BLACK
6
CONTINUOUS
10
143.822
20
-114.797
11
143.917
21
-114.987
0
LINE
8
BLACK
6
CONTINUOUS
10
143.917
20
-114.987
11
144.013
21
-115.083
0
LINE
8
BLACK
6
CONTINUOUS
10
144.013
20
-115.083
11
144.203
21
-115.178
0
LINE
8
BLACK
6
CONTINUOUS
10
144.203
20
-115.178
11
144.584
21
-115.178
0
LINE
8
BLACK
6
CONTINUOUS
10
144.584
20
-115.178
11
144.774
21
-115.083
0
LINE
8
BLACK
6
CONTINUOUS
10
144.774
20
-115.083
11
144.87
21
-114.987
0
LINE
8
BLACK
6
CONTINUOUS
10
144.87
20
-114.987
11
144.965
21
-114.797
0
LINE
8
BLACK
6
CONTINUOUS
10
147.346
20
-115.94
11
147.346
21
-113.94
0
LINE
8
BLACK
6
CONTINUOUS
10
148.203
20
-115.94
11
148.203
21
-114.892
0
LINE
8
BLACK
6
CONTINUOUS
10
148.203
20
-114.892
11
148.108
21
-114.702
0
LINE
8
BLACK
6
CONTINUOUS
10
148.108
20
-114.702
11
147.917
21
-114.607
0
LINE
8
BLACK
6
CONTINUOUS
10
147.917
20
-114.607
11
147.632
21
-114.607
0
LINE
8
BLACK
6
CONTINUOUS
10
147.632
20
-114.607
11
147.441
21
-114.702
0
LINE
8
BLACK
6
CONTINUOUS
10
147.441
20
-114.702
11
147.346
21
-114.797
0
LINE
8
BLACK
6
CONTINUOUS
10
149.441
20
-115.94
11
149.251
21
-115.845
0
LINE
8
BLACK
6
CONTINUOUS
10
149.251
20
-115.845
11
149.155
21
-115.749
0
LINE
8
BLACK
6
CONTINUOUS
10
149.155
20
-115.749
11
149.06
21
-115.559
0
LINE
8
BLACK
6
CONTINUOUS
10
149.06
20
-115.559
11
149.06
21
-114.987
0
LINE
8
BLACK
6
CONTINUOUS
10
149.06
20
-114.987
11
149.155
21
-114.797
0
LINE
8
BLACK
6
CONTINUOUS
10
149.155
20
-114.797
11
149.251
21
-114.702
0
LINE
8
BLACK
6
CONTINUOUS
10
149.251
20
-114.702
11
149.441
21
-114.607
0
LINE
8
BLACK
6
CONTINUOUS
10
149.441
20
-114.607
11
149.727
21
-114.607
0
LINE
8
BLACK
6
CONTINUOUS
10
149.727
20
-114.607
11
149.917
21
-114.702
0
LINE
8
BLACK
6
CONTINUOUS
10
149.917
20
-114.702
11
150.013
21
-114.797
0
LINE
8
BLACK
6
CONTINUOUS
10
150.013
20
-114.797
11
150.108
21
-114.987
0
LINE
8
BLACK
6
CONTINUOUS
10
150.108
20
-114.987
11
150.108
21
-115.559
0
LINE
8
BLACK
6
CONTINUOUS
10
150.108
20
-115.559
11
150.013
21
-115.749
0
LINE
8
BLACK
6
CONTINUOUS
10
150.013
20
-115.749
11
149.917
21
-115.845
0
LINE
8
BLACK
6
CONTINUOUS
10
149.917
20
-115.845
11
149.727
21
-115.94
0
LINE
8
BLACK
6
CONTINUOUS
10
149.727
20
-115.94
11
149.441
21
-115.94
0
LINE
8
BLACK
6
CONTINUOUS
10
151.251
20
-115.94
11
151.06
21
-115.845
0
LINE
8
BLACK
6
CONTINUOUS
10
151.06
20
-115.845
11
150.965
21
-115.654
0
LINE
8
BLACK
6
CONTINUOUS
10
150.965
20
-115.654
11
150.965
21
-113.94
0
LINE
8
BLACK
6
CONTINUOUS
10
152.774
20
-115.845
11
152.584
21
-115.94
0
LINE
8
BLACK
6
CONTINUOUS
10
152.584
20
-115.94
11
152.203
21
-115.94
0
LINE
8
BLACK
6
CONTINUOUS
10
152.203
20
-115.94
11
152.013
21
-115.845
0
LINE
8
BLACK
6
CONTINUOUS
10
152.013
20
-115.845
11
151.917
21
-115.654
0
LINE
8
BLACK
6
CONTINUOUS
10
151.917
20
-115.654
11
151.917
21
-114.892
0
LINE
8
BLACK
6
CONTINUOUS
10
151.917
20
-114.892
11
152.013
21
-114.702
0
LINE
8
BLACK
6
CONTINUOUS
10
152.013
20
-114.702
11
152.203
21
-114.607
0
LINE
8
BLACK
6
CONTINUOUS
10
152.203
20
-114.607
11
152.584
21
-114.607
0
LINE
8
BLACK
6
CONTINUOUS
10
152.584
20
-114.607
11
152.774
21
-114.702
0
LINE
8
BLACK
6
CONTINUOUS
10
152.774
20
-114.702
11
152.87
21
-114.892
0
LINE
8
BLACK
6
CONTINUOUS
10
152.87
20
-114.892
11
152.87
21
-115.083
0
LINE
8
BLACK
6
CONTINUOUS
10
152.87
20
-115.083
11
151.917
21
-115.273
0
LINE
8
BLACK
6
CONTINUOUS
10
153.632
20
-115.845
11
153.822
21
-115.94
0
LINE
8
BLACK
6
CONTINUOUS
10
153.822
20
-115.94
11
154.203
21
-115.94
0
LINE
8
BLACK
6
CONTINUOUS
10
154.203
20
-115.94
11
154.393
21
-115.845
0
LINE
8
BLACK
6
CONTINUOUS
10
154.393
20
-115.845
11
154.489
21
-115.654
0
LINE
8
BLACK
6
CONTINUOUS
10
154.489
20
-115.654
11
154.489
21
-115.559
0
LINE
8
BLACK
6
CONTINUOUS
10
154.489
20
-115.559
11
154.393
21
-115.368
0
LINE
8
BLACK
6
CONTINUOUS
10
154.393
20
-115.368
11
154.203
21
-115.273
0
LINE
8
BLACK
6
CONTINUOUS
10
154.203
20
-115.273
11
153.917
21
-115.273
0
LINE
8
BLACK
6
CONTINUOUS
10
153.917
20
-115.273
11
153.727
21
-115.178
0
LINE
8
BLACK
6
CONTINUOUS
10
153.727
20
-115.178
11
153.632
21
-114.987
0
LINE
8
BLACK
6
CONTINUOUS
10
153.632
20
-114.987
11
153.632
21
-114.892
0
LINE
8
BLACK
6
CONTINUOUS
10
153.632
20
-114.892
11
153.727
21
-114.702
0
LINE
8
BLACK
6
CONTINUOUS
10
153.727
20
-114.702
11
153.917
21
-114.607
0
LINE
8
BLACK
6
CONTINUOUS
10
153.917
20
-114.607
11
154.203
21
-114.607
0
LINE
8
BLACK
6
CONTINUOUS
10
154.203
20
-114.607
11
154.393
21
-114.702
0
LINE
8
BLACK
6
CONTINUOUS
10
155.155
20
-116.702
11
155.251
21
-116.607
0
LINE
8
BLACK
6
CONTINUOUS
10
155.251
20
-116.607
11
155.441
21
-116.321
0
LINE
8
BLACK
6
CONTINUOUS
10
155.441
20
-116.321
11
155.536
21
-116.13
0
LINE
8
BLACK
6
CONTINUOUS
10
155.536
20
-116.13
11
155.632
21
-115.845
0
LINE
8
BLACK
6
CONTINUOUS
10
155.632
20
-115.845
11
155.727
21
-115.368
0
LINE
8
BLACK
6
CONTINUOUS
10
155.727
20
-115.368
11
155.727
21
-114.987
0
LINE
8
BLACK
6
CONTINUOUS
10
155.727
20
-114.987
11
155.632
21
-114.511
0
LINE
8
BLACK
6
CONTINUOUS
10
155.632
20
-114.511
11
155.536
21
-114.226
0
LINE
8
BLACK
6
CONTINUOUS
10
155.536
20
-114.226
11
155.441
21
-114.035
0
LINE
8
BLACK
6
CONTINUOUS
10
155.441
20
-114.035
11
155.251
21
-113.749
0
LINE
8
BLACK
6
CONTINUOUS
10
155.251
20
-113.749
11
155.155
21
-113.654
0
CIRCLE
8
BLACK
10
105.1
20
-117.665
40
0.4
0
LINE
8
BLACK
6
CONTINUOUS
10
108.489
20
-116.58
11
108.679
21
-116.58
0
LINE
8
BLACK
6
CONTINUOUS
10
108.679
20
-116.58
11
108.87
21
-116.675
0
LINE
8
BLACK
6
CONTINUOUS
10
108.87
20
-116.675
11
108.965
21
-116.77
0
LINE
8
BLACK
6
CONTINUOUS
10
108.965
20
-116.77
11
109.06
21
-116.961
0
LINE
8
BLACK
6
CONTINUOUS
10
109.06
20
-116.961
11
109.155
21
-117.342
0
LINE
8
BLACK
6
CONTINUOUS
10
109.155
20
-117.342
11
109.155
21
-117.818
0
LINE
8
BLACK
6
CONTINUOUS
10
109.155
20
-117.818
11
109.06
21
-118.199
0
LINE
8
BLACK
6
CONTINUOUS
10
109.06
20
-118.199
11
108.965
21
-118.389
0
LINE
8
BLACK
6
CONTINUOUS
10
108.965
20
-118.389
11
108.87
21
-118.485
0
LINE
8
BLACK
6
CONTINUOUS
10
108.87
20
-118.485
11
108.679
21
-118.58
0
LINE
8
BLACK
6
CONTINUOUS
10
108.679
20
-118.58
11
108.489
21
-118.58
0
LINE
8
BLACK
6
CONTINUOUS
10
108.489
20
-118.58
11
108.298
21
-118.485
0
LINE
8
BLACK
6
CONTINUOUS
10
108.298
20
-118.485
11
108.203
21
-118.389
0
LINE
8
BLACK
6
CONTINUOUS
10
108.203
20
-118.389
11
108.108
21
-118.199
0
LINE
8
BLACK
6
CONTINUOUS
10
108.108
20
-118.199
11
108.013
21
-117.818
0
LINE
8
BLACK
6
CONTINUOUS
10
108.013
20
-117.818
11
108.013
21
-117.342
0
LINE
8
BLACK
6
CONTINUOUS
10
108.013
20
-117.342
11
108.108
21
-116.961
0
LINE
8
BLACK
6
CONTINUOUS
10
108.108
20
-116.961
11
108.203
21
-116.77
0
LINE
8
BLACK
6
CONTINUOUS
10
108.203
20
-116.77
11
108.298
21
-116.675
0
LINE
8
BLACK
6
CONTINUOUS
10
108.298
20
-116.675
11
108.489
21
-116.58
0
LINE
8
BLACK
6
CONTINUOUS
10
110.013
20
-118.389
11
110.108
21
-118.485
0
LINE
8
BLACK
6
CONTINUOUS
10
110.108
20
-118.485
11
110.013
21
-118.58
0
LINE
8
BLACK
6
CONTINUOUS
10
110.013
20
-118.58
11
109.917
21
-118.485
0
LINE
8
BLACK
6
CONTINUOUS
10
109.917
20
-118.485
11
110.013
21
-118.389
0
LINE
8
BLACK
6
CONTINUOUS
10
110.013
20
-118.389
11
110.013
21
-118.58
0
LINE
8
BLACK
6
CONTINUOUS
10
111.251
20
-117.437
11
111.06
21
-117.342
0
LINE
8
BLACK
6
CONTINUOUS
10
111.06
20
-117.342
11
110.965
21
-117.247
0
LINE
8
BLACK
6
CONTINUOUS
10
110.965
20
-117.247
11
110.87
21
-117.056
0
LINE
8
BLACK
6
CONTINUOUS
10
110.87
20
-117.056
11
110.87
21
-116.961
0
LINE
8
BLACK
6
CONTINUOUS
10
110.87
20
-116.961
11
110.965
21
-116.77
0
LINE
8
BLACK
6
CONTINUOUS
10
110.965
20
-116.77
11
111.06
21
-116.675
0
LINE
8
BLACK
6
CONTINUOUS
10
111.06
20
-116.675
11
111.251
21
-116.58
0
LINE
8
BLACK
6
CONTINUOUS
10
111.251
20
-116.58
11
111.632
21
-116.58
0
LINE
8
BLACK
6
CONTINUOUS
10
111.632
20
-116.58
11
111.822
21
-116.675
0
LINE
8
BLACK
6
CONTINUOUS
10
111.822
20
-116.675
11
111.917
21
-116.77
0
LINE
8
BLACK
6
CONTINUOUS
10
111.917
20
-116.77
11
112.013
21
-116.961
0
LINE
8
BLACK
6
CONTINUOUS
10
112.013
20
-116.961
11
112.013
21
-117.056
0
LINE
8
BLACK
6
CONTINUOUS
10
112.013
20
-117.056
11
111.917
21
-117.247
0
LINE
8
BLACK
6
CONTINUOUS
10
111.917
20
-117.247
11
111.822
21
-117.342
0
LINE
8
BLACK
6
CONTINUOUS
10
111.822
20
-117.342
11
111.632
21
-117.437
0
LINE
8
BLACK
6
CONTINUOUS
10
111.632
20
-117.437
11
111.251
21
-117.437
0
LINE
8
BLACK
6
CONTINUOUS
10
111.251
20
-117.437
11
111.06
21
-117.532
0
LINE
8
BLACK
6
CONTINUOUS
10
111.06
20
-117.532
11
110.965
21
-117.627
0
LINE
8
BLACK
6
CONTINUOUS
10
110.965
20
-117.627
11
110.87
21
-117.818
0
LINE
8
BLACK
6
CONTINUOUS
10
110.87
20
-117.818
11
110.87
21
-118.199
0
LINE
8
BLACK
6
CONTINUOUS
10
110.87
20
-118.199
11
110.965
21
-118.389
0
LINE
8
BLACK
6
CONTINUOUS
10
110.965
20
-118.389
11
111.06
21
-118.485
0
LINE
8
BLACK
6
CONTINUOUS
10
111.06
20
-118.485
11
111.251
21
-118.58
0
LINE
8
BLACK
6
CONTINUOUS
10
111.251
20
-118.58
11
111.632
21
-118.58
0
LINE
8
BLACK
6
CONTINUOUS
10
111.632
20
-118.58
11
111.822
21
-118.485
0
LINE
8
BLACK
6
CONTINUOUS
10
111.822
20
-118.485
11
111.917
21
-118.389
0
LINE
8
BLACK
6
CONTINUOUS
10
111.917
20
-118.389
11
112.013
21
-118.199
0
LINE
8
BLACK
6
CONTINUOUS
10
112.013
20
-118.199
11
112.013
21
-117.818
0
LINE
8
BLACK
6
CONTINUOUS
10
112.013
20
-117.818
11
111.917
21
-117.627
0
LINE
8
BLACK
6
CONTINUOUS
10
111.917
20
-117.627
11
111.822
21
-117.532
0
LINE
8
BLACK
6
CONTINUOUS
10
111.822
20
-117.532
11
111.632
21
-117.437
0
LINE
8
BLACK
6
CONTINUOUS
10
113.251
20
-116.58
11
113.441
21
-116.58
0
LINE
8
BLACK
6
CONTINUOUS
10
113.441
20
-116.58
11
113.632
21
-116.675
0
LINE
8
BLACK
6
CONTINUOUS
10
113.632
20
-116.675
11
113.727
21
-116.77
0
LINE
8
BLACK
6
CONTINUOUS
10
113.727
20
-116.77
11
113.822
21
-116.961
0
LINE
8
BLACK
6
CONTINUOUS
10
113.822
20
-116.961
11
113.917
21
-117.342
0
LINE
8
BLACK
6
CONTINUOUS
10
113.917
20
-117.342
11
113.917
21
-117.818
0
LINE
8
BLACK
6
CONTINUOUS
10
113.917
20
-117.818
11
113.822
21
-118.199
0
LINE
8
BLACK
6
CONTINUOUS
10
113.822
20
-118.199
11
113.727
21
-118.389
0
LINE
8
BLACK
6
CONTINUOUS
10
113.727
20
-118.389
11
113.632
21
-118.485
0
LINE
8
BLACK
6
CONTINUOUS
10
113.632
20
-118.485
11
113.441
21
-118.58
0
LINE
8
BLACK
6
CONTINUOUS
10
113.441
20
-118.58
11
113.251
21
-118.58
0
LINE
8
BLACK
6
CONTINUOUS
10
113.251
20
-118.58
11
113.06
21
-118.485
0
LINE
8
BLACK
6
CONTINUOUS
10
113.06
20
-118.485
11
112.965
21
-118.389
0
LINE
8
BLACK
6
CONTINUOUS
10
112.965
20
-118.389
11
112.87
21
-118.199
0
LINE
8
BLACK
6
CONTINUOUS
10
112.87
20
-118.199
11
112.774
21
-117.818
0
LINE
8
BLACK
6
CONTINUOUS
10
112.774
20
-117.818
11
112.774
21
-117.342
0
LINE
8
BLACK
6
CONTINUOUS
10
112.774
20
-117.342
11
112.87
21
-116.961
0
LINE
8
BLACK
6
CONTINUOUS
10
112.87
20
-116.961
11
112.965
21
-116.77
0
LINE
8
BLACK
6
CONTINUOUS
10
112.965
20
-116.77
11
113.06
21
-116.675
0
LINE
8
BLACK
6
CONTINUOUS
10
113.06
20
-116.675
11
113.251
21
-116.58
0
LINE
8
BLACK
6
CONTINUOUS
10
115.155
20
-116.58
11
115.346
21
-116.58
0
LINE
8
BLACK
6
CONTINUOUS
10
115.346
20
-116.58
11
115.536
21
-116.675
0
LINE
8
BLACK
6
CONTINUOUS
10
115.536
20
-116.675
11
115.632
21
-116.77
0
LINE
8
BLACK
6
CONTINUOUS
10
115.632
20
-116.77
11
115.727
21
-116.961
0
LINE
8
BLACK
6
CONTINUOUS
10
115.727
20
-116.961
11
115.822
21
-117.342
0
LINE
8
BLACK
6
CONTINUOUS
10
115.822
20
-117.342
11
115.822
21
-117.818
0
LINE
8
BLACK
6
CONTINUOUS
10
115.822
20
-117.818
11
115.727
21
-118.199
0
LINE
8
BLACK
6
CONTINUOUS
10
115.727
20
-118.199
11
115.632
21
-118.389
0
LINE
8
BLACK
6
CONTINUOUS
10
115.632
20
-118.389
11
115.536
21
-118.485
0
LINE
8
BLACK
6
CONTINUOUS
10
115.536
20
-118.485
11
115.346
21
-118.58
0
LINE
8
BLACK
6
CONTINUOUS
10
115.346
20
-118.58
11
115.155
21
-118.58
0
LINE
8
BLACK
6
CONTINUOUS
10
115.155
20
-118.58
11
114.965
21
-118.485
0
LINE
8
BLACK
6
CONTINUOUS
10
114.965
20
-118.485
11
114.87
21
-118.389
0
LINE
8
BLACK
6
CONTINUOUS
10
114.87
20
-118.389
11
114.774
21
-118.199
0
LINE
8
BLACK
6
CONTINUOUS
10
114.774
20
-118.199
11
114.679
21
-117.818
0
LINE
8
BLACK
6
CONTINUOUS
10
114.679
20
-117.818
11
114.679
21
-117.342
0
LINE
8
BLACK
6
CONTINUOUS
10
114.679
20
-117.342
11
114.774
21
-116.961
0
LINE
8
BLACK
6
CONTINUOUS
10
114.774
20
-116.961
11
114.87
21
-116.77
0
LINE
8
BLACK
6
CONTINUOUS
10
114.87
20
-116.77
11
114.965
21
-116.675
0
LINE
8
BLACK
6
CONTINUOUS
10
114.965
20
-116.675
11
115.155
21
-116.58
0
LINE
8
BLACK
6
CONTINUOUS
10
116.679
20
-118.58
11
116.679
21
-117.247
0
LINE
8
BLACK
6
CONTINUOUS
10
116.679
20
-117.437
11
116.774
21
-117.342
0
LINE
8
BLACK
6
CONTINUOUS
10
116.774
20
-117.342
11
116.965
21
-117.247
0
LINE
8
BLACK
6
CONTINUOUS
10
116.965
20
-117.247
11
117.251
21
-117.247
0
LINE
8
BLACK
6
CONTINUOUS
10
117.251
20
-117.247
11
117.441
21
-117.342
0
LINE
8
BLACK
6
CONTINUOUS
10
117.441
20
-117.342
11
117.536
21
-117.532
0
LINE
8
BLACK
6
CONTINUOUS
10
117.536
20
-117.532
11
117.536
21
-118.58
0
LINE
8
BLACK
6
CONTINUOUS
10
117.536
20
-117.532
11
117.632
21
-117.342
0
LINE
8
BLACK
6
CONTINUOUS
10
117.632
20
-117.342
11
117.822
21
-117.247
0
LINE
8
BLACK
6
CONTINUOUS
10
117.822
20
-117.247
11
118.108
21
-117.247
0
LINE
8
BLACK
6
CONTINUOUS
10
118.108
20
-117.247
11
118.298
21
-117.342
0
LINE
8
BLACK
6
CONTINUOUS
10
118.298
20
-117.342
11
118.393
21
-117.532
0
LINE
8
BLACK
6
CONTINUOUS
10
118.393
20
-117.532
11
118.393
21
-118.58
0
LINE
8
BLACK
6
CONTINUOUS
10
119.346
20
-118.58
11
119.346
21
-117.247
0
LINE
8
BLACK
6
CONTINUOUS
10
119.346
20
-117.437
11
119.441
21
-117.342
0
LINE
8
BLACK
6
CONTINUOUS
10
119.441
20
-117.342
11
119.632
21
-117.247
0
LINE
8
BLACK
6
CONTINUOUS
10
119.632
20
-117.247
11
119.917
21
-117.247
0
LINE
8
BLACK
6
CONTINUOUS
10
119.917
20
-117.247
11
120.108
21
-117.342
0
LINE
8
BLACK
6
CONTINUOUS
10
120.108
20
-117.342
11
120.203
21
-117.532
0
LINE
8
BLACK
6
CONTINUOUS
10
120.203
20
-117.532
11
120.203
21
-118.58
0
LINE
8
BLACK
6
CONTINUOUS
10
120.203
20
-117.532
11
120.298
21
-117.342
0
LINE
8
BLACK
6
CONTINUOUS
10
120.298
20
-117.342
11
120.489
21
-117.247
0
LINE
8
BLACK
6
CONTINUOUS
10
120.489
20
-117.247
11
120.774
21
-117.247
0
LINE
8
BLACK
6
CONTINUOUS
10
120.774
20
-117.247
11
120.965
21
-117.342
0
LINE
8
BLACK
6
CONTINUOUS
10
120.965
20
-117.342
11
121.06
21
-117.532
0
LINE
8
BLACK
6
CONTINUOUS
10
121.06
20
-117.532
11
121.06
21
-118.58
0
LINE
8
BLACK
6
CONTINUOUS
10
124.965
20
-116.485
11
123.251
21
-119.056
0
LINE
8
BLACK
6
CONTINUOUS
10
127.536
20
-116.58
11
127.727
21
-116.58
0
LINE
8
BLACK
6
CONTINUOUS
10
127.727
20
-116.58
11
127.917
21
-116.675
0
LINE
8
BLACK
6
CONTINUOUS
10
127.917
20
-116.675
11
128.013
21
-116.77
0
LINE
8
BLACK
6
CONTINUOUS
10
128.013
20
-116.77
11
128.108
21
-116.961
0
LINE
8
BLACK
6
CONTINUOUS
10
128.108
20
-116.961
11
128.203
21
-117.342
0
LINE
8
BLACK
6
CONTINUOUS
10
128.203
20
-117.342
11
128.203
21
-117.818
0
LINE
8
BLACK
6
CONTINUOUS
10
128.203
20
-117.818
11
128.108
21
-118.199
0
LINE
8
BLACK
6
CONTINUOUS
10
128.108
20
-118.199
11
128.013
21
-118.389
0
LINE
8
BLACK
6
CONTINUOUS
10
128.013
20
-118.389
11
127.917
21
-118.485
0
LINE
8
BLACK
6
CONTINUOUS
10
127.917
20
-118.485
11
127.727
21
-118.58
0
LINE
8
BLACK
6
CONTINUOUS
10
127.727
20
-118.58
11
127.536
21
-118.58
0
LINE
8
BLACK
6
CONTINUOUS
10
127.536
20
-118.58
11
127.346
21
-118.485
0
LINE
8
BLACK
6
CONTINUOUS
10
127.346
20
-118.485
11
127.251
21
-118.389
0
LINE
8
BLACK
6
CONTINUOUS
10
127.251
20
-118.389
11
127.155
21
-118.199
0
LINE
8
BLACK
6
CONTINUOUS
10
127.155
20
-118.199
11
127.06
21
-117.818
0
LINE
8
BLACK
6
CONTINUOUS
10
127.06
20
-117.818
11
127.06
21
-117.342
0
LINE
8
BLACK
6
CONTINUOUS
10
127.06
20
-117.342
11
127.155
21
-116.961
0
LINE
8
BLACK
6
CONTINUOUS
10
127.155
20
-116.961
11
127.251
21
-116.77
0
LINE
8
BLACK
6
CONTINUOUS
10
127.251
20
-116.77
11
127.346
21
-116.675
0
LINE
8
BLACK
6
CONTINUOUS
10
127.346
20
-116.675
11
127.536
21
-116.58
0
LINE
8
BLACK
6
CONTINUOUS
10
129.06
20
-118.389
11
129.155
21
-118.485
0
LINE
8
BLACK
6
CONTINUOUS
10
129.155
20
-118.485
11
129.06
21
-118.58
0
LINE
8
BLACK
6
CONTINUOUS
10
129.06
20
-118.58
11
128.965
21
-118.485
0
LINE
8
BLACK
6
CONTINUOUS
10
128.965
20
-118.485
11
129.06
21
-118.389
0
LINE
8
BLACK
6
CONTINUOUS
10
129.06
20
-118.389
11
129.06
21
-118.58
0
LINE
8
BLACK
6
CONTINUOUS
10
130.393
20
-116.58
11
130.584
21
-116.58
0
LINE
8
BLACK
6
CONTINUOUS
10
130.584
20
-116.58
11
130.774
21
-116.675
0
LINE
8
BLACK
6
CONTINUOUS
10
130.774
20
-116.675
11
130.87
21
-116.77
0
LINE
8
BLACK
6
CONTINUOUS
10
130.87
20
-116.77
11
130.965
21
-116.961
0
LINE
8
BLACK
6
CONTINUOUS
10
130.965
20
-116.961
11
131.06
21
-117.342
0
LINE
8
BLACK
6
CONTINUOUS
10
131.06
20
-117.342
11
131.06
21
-117.818
0
LINE
8
BLACK
6
CONTINUOUS
10
131.06
20
-117.818
11
130.965
21
-118.199
0
LINE
8
BLACK
6
CONTINUOUS
10
130.965
20
-118.199
11
130.87
21
-118.389
0
LINE
8
BLACK
6
CONTINUOUS
10
130.87
20
-118.389
11
130.774
21
-118.485
0
LINE
8
BLACK
6
CONTINUOUS
10
130.774
20
-118.485
11
130.584
21
-118.58
0
LINE
8
BLACK
6
CONTINUOUS
10
130.584
20
-118.58
11
130.393
21
-118.58
0
LINE
8
BLACK
6
CONTINUOUS
10
130.393
20
-118.58
11
130.203
21
-118.485
0
LINE
8
BLACK
6
CONTINUOUS
10
130.203
20
-118.485
11
130.108
21
-118.389
0
LINE
8
BLACK
6
CONTINUOUS
10
130.108
20
-118.389
11
130.013
21
-118.199
0
LINE
8
BLACK
6
CONTINUOUS
10
130.013
20
-118.199
11
129.917
21
-117.818
0
LINE
8
BLACK
6
CONTINUOUS
10
129.917
20
-117.818
11
129.917
21
-117.342
0
LINE
8
BLACK
6
CONTINUOUS
10
129.917
20
-117.342
11
130.013
21
-116.961
0
LINE
8
BLACK
6
CONTINUOUS
10
130.013
20
-116.961
11
130.108
21
-116.77
0
LINE
8
BLACK
6
CONTINUOUS
10
130.108
20
-116.77
11
130.203
21
-116.675
0
LINE
8
BLACK
6
CONTINUOUS
10
130.203
20
-116.675
11
130.393
21
-116.58
0
LINE
8
BLACK
6
CONTINUOUS
10
131.727
20
-116.58
11
132.965
21
-116.58
0
LINE
8
BLACK
6
CONTINUOUS
10
132.965
20
-116.58
11
132.298
21
-117.342
0
LINE
8
BLACK
6
CONTINUOUS
10
132.298
20
-117.342
11
132.584
21
-117.342
0
LINE
8
BLACK
6
CONTINUOUS
10
132.584
20
-117.342
11
132.774
21
-117.437
0
LINE
8
BLACK
6
CONTINUOUS
10
132.774
20
-117.437
11
132.87
21
-117.532
0
LINE
8
BLACK
6
CONTINUOUS
10
132.87
20
-117.532
11
132.965
21
-117.723
0
LINE
8
BLACK
6
CONTINUOUS
10
132.965
20
-117.723
11
132.965
21
-118.199
0
LINE
8
BLACK
6
CONTINUOUS
10
132.965
20
-118.199
11
132.87
21
-118.389
0
LINE
8
BLACK
6
CONTINUOUS
10
132.87
20
-118.389
11
132.774
21
-118.485
0
LINE
8
BLACK
6
CONTINUOUS
10
132.774
20
-118.485
11
132.584
21
-118.58
0
LINE
8
BLACK
6
CONTINUOUS
10
132.584
20
-118.58
11
132.013
21
-118.58
0
LINE
8
BLACK
6
CONTINUOUS
10
132.013
20
-118.58
11
131.822
21
-118.485
0
LINE
8
BLACK
6
CONTINUOUS
10
131.822
20
-118.485
11
131.727
21
-118.389
0
LINE
8
BLACK
6
CONTINUOUS
10
134.87
20
-118.58
11
133.727
21
-118.58
0
LINE
8
BLACK
6
CONTINUOUS
10
134.298
20
-118.58
11
134.298
21
-116.58
0
LINE
8
BLACK
6
CONTINUOUS
10
134.298
20
-116.58
11
134.108
21
-116.866
0
LINE
8
BLACK
6
CONTINUOUS
10
134.108
20
-116.866
11
133.917
21
-117.056
0
LINE
8
BLACK
6
CONTINUOUS
10
133.917
20
-117.056
11
133.727
21
-117.151
0
LINE
8
BLACK
6
CONTINUOUS
10
136.679
20
-116.58
11
135.727
21
-116.58
0
LINE
8
BLACK
6
CONTINUOUS
10
135.727
20
-116.58
11
135.632
21
-117.532
0
LINE
8
BLACK
6
CONTINUOUS
10
135.632
20
-117.532
11
135.727
21
-117.437
0
LINE
8
BLACK
6
CONTINUOUS
10
135.727
20
-117.437
11
135.917
21
-117.342
0
LINE
8
BLACK
6
CONTINUOUS
10
135.917
20
-117.342
11
136.393
21
-117.342
0
LINE
8
BLACK
6
CONTINUOUS
10
136.393
20
-117.342
11
136.584
21
-117.437
0
LINE
8
BLACK
6
CONTINUOUS
10
136.584
20
-117.437
11
136.679
21
-117.532
0
LINE
8
BLACK
6
CONTINUOUS
10
136.679
20
-117.532
11
136.774
21
-117.723
0
LINE
8
BLACK
6
CONTINUOUS
10
136.774
20
-117.723
11
136.774
21
-118.199
0
LINE
8
BLACK
6
CONTINUOUS
10
136.774
20
-118.199
11
136.679
21
-118.389
0
LINE
8
BLACK
6
CONTINUOUS
10
136.679
20
-118.389
11
136.584
21
-118.485
0
LINE
8
BLACK
6
CONTINUOUS
10
136.584
20
-118.485
11
136.393
21
-118.58
0
LINE
8
BLACK
6
CONTINUOUS
10
136.393
20
-118.58
11
135.917
21
-118.58
0
LINE
8
BLACK
6
CONTINUOUS
10
135.917
20
-118.58
11
135.727
21
-118.485
0
LINE
8
BLACK
6
CONTINUOUS
10
135.727
20
-118.485
11
135.632
21
-118.389
0
LINE
8
BLACK
6
CONTINUOUS
10
137.536
20
-116.58
11
137.536
21
-116.961
0
LINE
8
BLACK
6
CONTINUOUS
10
138.298
20
-116.58
11
138.298
21
-116.961
0
LINE
8
BLACK
6
CONTINUOUS
10
141.251
20
-119.342
11
141.155
21
-119.247
0
LINE
8
BLACK
6
CONTINUOUS
10
141.155
20
-119.247
11
140.965
21
-118.961
0
LINE
8
BLACK
6
CONTINUOUS
10
140.965
20
-118.961
11
140.87
21
-118.77
0
LINE
8
BLACK
6
CONTINUOUS
10
140.87
20
-118.77
11
140.774
21
-118.485
0
LINE
8
BLACK
6
CONTINUOUS
10
140.774
20
-118.485
11
140.679
21
-118.008
0
LINE
8
BLACK
6
CONTINUOUS
10
140.679
20
-118.008
11
140.679
21
-117.627
0
LINE
8
BLACK
6
CONTINUOUS
10
140.679
20
-117.627
11
140.774
21
-117.151
0
LINE
8
BLACK
6
CONTINUOUS
10
140.774
20
-117.151
11
140.87
21
-116.866
0
LINE
8
BLACK
6
CONTINUOUS
10
140.87
20
-116.866
11
140.965
21
-116.675
0
LINE
8
BLACK
6
CONTINUOUS
10
140.965
20
-116.675
11
141.155
21
-116.389
0
LINE
8
BLACK
6
CONTINUOUS
10
141.155
20
-116.389
11
141.251
21
-116.294
0
LINE
8
BLACK
6
CONTINUOUS
10
143.06
20
-118.58
11
141.917
21
-118.58
0
LINE
8
BLACK
6
CONTINUOUS
10
142.489
20
-118.58
11
142.489
21
-116.58
0
LINE
8
BLACK
6
CONTINUOUS
10
142.489
20
-116.58
11
142.298
21
-116.866
0
LINE
8
BLACK
6
CONTINUOUS
10
142.298
20
-116.866
11
142.108
21
-117.056
0
LINE
8
BLACK
6
CONTINUOUS
10
142.108
20
-117.056
11
141.917
21
-117.151
0
LINE
8
BLACK
6
CONTINUOUS
10
143.822
20
-116.77
11
143.917
21
-116.675
0
LINE
8
BLACK
6
CONTINUOUS
10
143.917
20
-116.675
11
144.108
21
-116.58
0
LINE
8
BLACK
6
CONTINUOUS
10
144.108
20
-116.58
11
144.584
21
-116.58
0
LINE
8
BLACK
6
CONTINUOUS
10
144.584
20
-116.58
11
144.774
21
-116.675
0
LINE
8
BLACK
6
CONTINUOUS
10
144.774
20
-116.675
11
144.87
21
-116.77
0
LINE
8
BLACK
6
CONTINUOUS
10
144.87
20
-116.77
11
144.965
21
-116.961
0
LINE
8
BLACK
6
CONTINUOUS
10
144.965
20
-116.961
11
144.965
21
-117.151
0
LINE
8
BLACK
6
CONTINUOUS
10
144.965
20
-117.151
11
144.87
21
-117.437
0
LINE
8
BLACK
6
CONTINUOUS
10
144.87
20
-117.437
11
143.727
21
-118.58
0
LINE
8
BLACK
6
CONTINUOUS
10
143.727
20
-118.58
11
144.965
21
-118.58
0
LINE
8
BLACK
6
CONTINUOUS
10
147.346
20
-118.58
11
147.346
21
-116.58
0
LINE
8
BLACK
6
CONTINUOUS
10
148.203
20
-118.58
11
148.203
21
-117.532
0
LINE
8
BLACK
6
CONTINUOUS
10
148.203
20
-117.532
11
148.108
21
-117.342
0
LINE
8
BLACK
6
CONTINUOUS
10
148.108
20
-117.342
11
147.917
21
-117.247
0
LINE
8
BLACK
6
CONTINUOUS
10
147.917
20
-117.247
11
147.632
21
-117.247
0
LINE
8
BLACK
6
CONTINUOUS
10
147.632
20
-117.247
11
147.441
21
-117.342
0
LINE
8
BLACK
6
CONTINUOUS
10
147.441
20
-117.342
11
147.346
21
-117.437
0
LINE
8
BLACK
6
CONTINUOUS
10
149.441
20
-118.58
11
149.251
21
-118.485
0
LINE
8
BLACK
6
CONTINUOUS
10
149.251
20
-118.485
11
149.155
21
-118.389
0
LINE
8
BLACK
6
CONTINUOUS
10
149.155
20
-118.389
11
149.06
21
-118.199
0
LINE
8
BLACK
6
CONTINUOUS
10
149.06
20
-118.199
11
149.06
21
-117.627
0
LINE
8
BLACK
6
CONTINUOUS
10
149.06
20
-117.627
11
149.155
21
-117.437
0
LINE
8
BLACK
6
CONTINUOUS
10
149.155
20
-117.437
11
149.251
21
-117.342
0
LINE
8
BLACK
6
CONTINUOUS
10
149.251
20
-117.342
11
149.441
21
-117.247
0
LINE
8
BLACK
6
CONTINUOUS
10
149.441
20
-117.247
11
149.727
21
-117.247
0
LINE
8
BLACK
6
CONTINUOUS
10
149.727
20
-117.247
11
149.917
21
-117.342
0
LINE
8
BLACK
6
CONTINUOUS
10
149.917
20
-117.342
11
150.013
21
-117.437
0
LINE
8
BLACK
6
CONTINUOUS
10
150.013
20
-117.437
11
150.108
21
-117.627
0
LINE
8
BLACK
6
CONTINUOUS
10
150.108
20
-117.627
11
150.108
21
-118.199
0
LINE
8
BLACK
6
CONTINUOUS
10
150.108
20
-118.199
11
150.013
21
-118.389
0
LINE
8
BLACK
6
CONTINUOUS
10
150.013
20
-118.389
11
149.917
21
-118.485
0
LINE
8
BLACK
6
CONTINUOUS
10
149.917
20
-118.485
11
149.727
21
-118.58
0
LINE
8
BLACK
6
CONTINUOUS
10
149.727
20
-118.58
11
149.441
21
-118.58
0
LINE
8
BLACK
6
CONTINUOUS
10
151.251
20
-118.58
11
151.06
21
-118.485
0
LINE
8
BLACK
6
CONTINUOUS
10
151.06
20
-118.485
11
150.965
21
-118.294
0
LINE
8
BLACK
6
CONTINUOUS
10
150.965
20
-118.294
11
150.965
21
-116.58
0
LINE
8
BLACK
6
CONTINUOUS
10
152.774
20
-118.485
11
152.584
21
-118.58
0
LINE
8
BLACK
6
CONTINUOUS
10
152.584
20
-118.58
11
152.203
21
-118.58
0
LINE
8
BLACK
6
CONTINUOUS
10
152.203
20
-118.58
11
152.013
21
-118.485
0
LINE
8
BLACK
6
CONTINUOUS
10
152.013
20
-118.485
11
151.917
21
-118.294
0
LINE
8
BLACK
6
CONTINUOUS
10
151.917
20
-118.294
11
151.917
21
-117.532
0
LINE
8
BLACK
6
CONTINUOUS
10
151.917
20
-117.532
11
152.013
21
-117.342
0
LINE
8
BLACK
6
CONTINUOUS
10
152.013
20
-117.342
11
152.203
21
-117.247
0
LINE
8
BLACK
6
CONTINUOUS
10
152.203
20
-117.247
11
152.584
21
-117.247
0
LINE
8
BLACK
6
CONTINUOUS
10
152.584
20
-117.247
11
152.774
21
-117.342
0
LINE
8
BLACK
6
CONTINUOUS
10
152.774
20
-117.342
11
152.87
21
-117.532
0
LINE
8
BLACK
6
CONTINUOUS
10
152.87
20
-117.532
11
152.87
21
-117.723
0
LINE
8
BLACK
6
CONTINUOUS
10
152.87
20
-117.723
11
151.917
21
-117.913
0
LINE
8
BLACK
6
CONTINUOUS
10
153.632
20
-118.485
11
153.822
21
-118.58
0
LINE
8
BLACK
6
CONTINUOUS
10
153.822
20
-118.58
11
154.203
21
-118.58
0
LINE
8
BLACK
6
CONTINUOUS
10
154.203
20
-118.58
11
154.393
21
-118.485
0
LINE
8
BLACK
6
CONTINUOUS
10
154.393
20
-118.485
11
154.489
21
-118.294
0
LINE
8
BLACK
6
CONTINUOUS
10
154.489
20
-118.294
11
154.489
21
-118.199
0
LINE
8
BLACK
6
CONTINUOUS
10
154.489
20
-118.199
11
154.393
21
-118.008
0
LINE
8
BLACK
6
CONTINUOUS
10
154.393
20
-118.008
11
154.203
21
-117.913
0
LINE
8
BLACK
6
CONTINUOUS
10
154.203
20
-117.913
11
153.917
21
-117.913
0
LINE
8
BLACK
6
CONTINUOUS
10
153.917
20
-117.913
11
153.727
21
-117.818
0
LINE
8
BLACK
6
CONTINUOUS
10
153.727
20
-117.818
11
153.632
21
-117.627
0
LINE
8
BLACK
6
CONTINUOUS
10
153.632
20
-117.627
11
153.632
21
-117.532
0
LINE
8
BLACK
6
CONTINUOUS
10
153.632
20
-117.532
11
153.727
21
-117.342
0
LINE
8
BLACK
6
CONTINUOUS
10
153.727
20
-117.342
11
153.917
21
-117.247
0
LINE
8
BLACK
6
CONTINUOUS
10
153.917
20
-117.247
11
154.203
21
-117.247
0
LINE
8
BLACK
6
CONTINUOUS
10
154.203
20
-117.247
11
154.393
21
-117.342
0
LINE
8
BLACK
6
CONTINUOUS
10
155.155
20
-119.342
11
155.251
21
-119.247
0
LINE
8
BLACK
6
CONTINUOUS
10
155.251
20
-119.247
11
155.441
21
-118.961
0
LINE
8
BLACK
6
CONTINUOUS
10
155.441
20
-118.961
11
155.536
21
-118.77
0
LINE
8
BLACK
6
CONTINUOUS
10
155.536
20
-118.77
11
155.632
21
-118.485
0
LINE
8
BLACK
6
CONTINUOUS
10
155.632
20
-118.485
11
155.727
21
-118.008
0
LINE
8
BLACK
6
CONTINUOUS
10
155.727
20
-118.008
11
155.727
21
-117.627
0
LINE
8
BLACK
6
CONTINUOUS
10
155.727
20
-117.627
11
155.632
21
-117.151
0
LINE
8
BLACK
6
CONTINUOUS
10
155.632
20
-117.151
11
155.536
21
-116.866
0
LINE
8
BLACK
6
CONTINUOUS
10
155.536
20
-116.866
11
155.441
21
-116.675
0
LINE
8
BLACK
6
CONTINUOUS
10
155.441
20
-116.675
11
155.251
21
-116.389
0
LINE
8
BLACK
6
CONTINUOUS
10
155.251
20
-116.389
11
155.155
21
-116.294
  0
ENDSEC
  0
EOF
