M48
; DRILL file {KiCad 7.0.7} date 2023 August 27, Sunday 10:12:26
; FORMAT={-:-/ absolute / metric / decimal}
; #@! TF.CreationDate,2023-08-27T10:12:26+07:00
; #@! TF.GenerationSoftware,Kicad,Pcbnew,7.0.7
; #@! TF.FileFunction,Plated,1,2,PTH
FMAT,2
METRIC
; #@! TA.AperFunction,Plated,PTH,ViaDrill
T1C0.300
; #@! TA.AperFunction,Plated,PTH,ComponentDrill
T2C0.800
%
G90
G05
T1
X107.4Y-93.475
X107.4Y-103.35
X108.139Y-106.328
X109.6Y-93.15
X109.88Y-99.93
X110.064Y-95.511
X110.325Y-96.275
X110.341Y-94.804
X110.35Y-102.775
X110.525Y-93.2
X114.325Y-107.2
X114.6Y-100.15
X115.179Y-100.85
X115.425Y-95.625
X115.759Y-98.51
X116.175Y-96.204
X117.755Y-102.545
X118.84Y-104.61
X122.842Y-94.086
T2
X107.525Y-91.35
X109.525Y-91.35
X111.525Y-91.35
X113.525Y-91.35
X117.4Y-106.575
X117.575Y-91.35
X119.4Y-106.575
X119.575Y-91.35
X121.4Y-106.575
X121.575Y-91.35
X123.4Y-106.575
X123.575Y-91.35
T0
M30
