%TF.GenerationSoftware,KiCad,Pcbnew,7.0.7*%
%TF.CreationDate,2023-08-27T10:12:23+07:00*%
%TF.ProjectId,TinyUSBHub,54696e79-5553-4424-9875-622e6b696361,rev?*%
%TF.SameCoordinates,Original*%
%TF.FileFunction,Legend,Bot*%
%TF.FilePolarity,Positive*%
%FSLAX46Y46*%
G04 Gerber Fmt 4.6, Leading zero omitted, Abs format (unit mm)*
G04 Created by KiCad (PCBNEW 7.0.7) date 2023-08-27 10:12:23*
%MOMM*%
%LPD*%
G01*
G04 APERTURE LIST*
%ADD10C,0.000000*%
G04 APERTURE END LIST*
D10*
G36*
X110843141Y-99555988D02*
G01*
X110844447Y-99556086D01*
X110845721Y-99556223D01*
X110846964Y-99556400D01*
X110848175Y-99556616D01*
X110849354Y-99556871D01*
X110850502Y-99557165D01*
X110851619Y-99557499D01*
X110852704Y-99557872D01*
X110853758Y-99558284D01*
X110854780Y-99558736D01*
X110855771Y-99559227D01*
X110856730Y-99559758D01*
X110857658Y-99560327D01*
X110858554Y-99560936D01*
X110859419Y-99561585D01*
X110860252Y-99562273D01*
X110861054Y-99563000D01*
X110861825Y-99563767D01*
X110862564Y-99564573D01*
X110863271Y-99565418D01*
X110863947Y-99566303D01*
X110864591Y-99567228D01*
X110865204Y-99568191D01*
X110865786Y-99569195D01*
X110866336Y-99570238D01*
X110866855Y-99571320D01*
X110867342Y-99572442D01*
X110867797Y-99573603D01*
X110868222Y-99574804D01*
X110868614Y-99576044D01*
X111055887Y-100085499D01*
X111056148Y-100086230D01*
X111056424Y-100086913D01*
X111056716Y-100087549D01*
X111057023Y-100088139D01*
X111057346Y-100088681D01*
X111057513Y-100088934D01*
X111057684Y-100089175D01*
X111057859Y-100089405D01*
X111058038Y-100089623D01*
X111058221Y-100089829D01*
X111058407Y-100090024D01*
X111058598Y-100090206D01*
X111058792Y-100090377D01*
X111058990Y-100090536D01*
X111059192Y-100090684D01*
X111059398Y-100090819D01*
X111059608Y-100090943D01*
X111059822Y-100091055D01*
X111060039Y-100091155D01*
X111060261Y-100091243D01*
X111060486Y-100091320D01*
X111060715Y-100091385D01*
X111060948Y-100091438D01*
X111061185Y-100091479D01*
X111061426Y-100091508D01*
X111061671Y-100091526D01*
X111061919Y-100091532D01*
X111062417Y-100091508D01*
X111062660Y-100091479D01*
X111062899Y-100091438D01*
X111063134Y-100091385D01*
X111063365Y-100091320D01*
X111063591Y-100091243D01*
X111063814Y-100091155D01*
X111064033Y-100091055D01*
X111064248Y-100090943D01*
X111064459Y-100090819D01*
X111064666Y-100090684D01*
X111065068Y-100090377D01*
X111065454Y-100090024D01*
X111065825Y-100089623D01*
X111066179Y-100089175D01*
X111066518Y-100088681D01*
X111066841Y-100088139D01*
X111067149Y-100087549D01*
X111067441Y-100086913D01*
X111067717Y-100086230D01*
X111067978Y-100085499D01*
X111255250Y-99576044D01*
X111256067Y-99573603D01*
X111257010Y-99571320D01*
X111258079Y-99569195D01*
X111259273Y-99567228D01*
X111259918Y-99566303D01*
X111260594Y-99565418D01*
X111261301Y-99564573D01*
X111262040Y-99563767D01*
X111262811Y-99563000D01*
X111263613Y-99562273D01*
X111264446Y-99561585D01*
X111265311Y-99560936D01*
X111266207Y-99560327D01*
X111267135Y-99559758D01*
X111268094Y-99559227D01*
X111269085Y-99558736D01*
X111270107Y-99558284D01*
X111271161Y-99557872D01*
X111273362Y-99557165D01*
X111275690Y-99556616D01*
X111278144Y-99556223D01*
X111280723Y-99555988D01*
X111283428Y-99555909D01*
X111537137Y-99555909D01*
X111538377Y-99555925D01*
X111539578Y-99555972D01*
X111540739Y-99556051D01*
X111541861Y-99556161D01*
X111542943Y-99556303D01*
X111543986Y-99556476D01*
X111544989Y-99556680D01*
X111545953Y-99556916D01*
X111546878Y-99557184D01*
X111547763Y-99557483D01*
X111548608Y-99557813D01*
X111549414Y-99558175D01*
X111550181Y-99558569D01*
X111550908Y-99558994D01*
X111551596Y-99559450D01*
X111552245Y-99559938D01*
X111552854Y-99560457D01*
X111553424Y-99561008D01*
X111553954Y-99561590D01*
X111554445Y-99562204D01*
X111554897Y-99562849D01*
X111555309Y-99563525D01*
X111555682Y-99564233D01*
X111556016Y-99564973D01*
X111556310Y-99565744D01*
X111556566Y-99566547D01*
X111556781Y-99567381D01*
X111556958Y-99568246D01*
X111557095Y-99569143D01*
X111557194Y-99570071D01*
X111557252Y-99571031D01*
X111557272Y-99572023D01*
X111557264Y-99573014D01*
X111557241Y-99573973D01*
X111557202Y-99574901D01*
X111557148Y-99575798D01*
X111557077Y-99576663D01*
X111556991Y-99577496D01*
X111556890Y-99578297D01*
X111556772Y-99579067D01*
X111556639Y-99579805D01*
X111556490Y-99580512D01*
X111556325Y-99581187D01*
X111556144Y-99581830D01*
X111555947Y-99582442D01*
X111555735Y-99583022D01*
X111555506Y-99583571D01*
X111555261Y-99584088D01*
X111206911Y-100411704D01*
X111204900Y-100423769D01*
X111204900Y-100939257D01*
X111204876Y-100940509D01*
X111204806Y-100941745D01*
X111204688Y-100942965D01*
X111204523Y-100944168D01*
X111204311Y-100945356D01*
X111204052Y-100946528D01*
X111203745Y-100947684D01*
X111203392Y-100948825D01*
X111202991Y-100949949D01*
X111202544Y-100951058D01*
X111202049Y-100952151D01*
X111201507Y-100953228D01*
X111200917Y-100954290D01*
X111200281Y-100955335D01*
X111199598Y-100956366D01*
X111198867Y-100957381D01*
X111197852Y-100958116D01*
X111196821Y-100958803D01*
X111195774Y-100959443D01*
X111194711Y-100960035D01*
X111193632Y-100960580D01*
X111192538Y-100961077D01*
X111191428Y-100961526D01*
X111190302Y-100961928D01*
X111189161Y-100962283D01*
X111188004Y-100962590D01*
X111186832Y-100962850D01*
X111185644Y-100963062D01*
X111184442Y-100963228D01*
X111183224Y-100963346D01*
X111181991Y-100963416D01*
X111180743Y-100963440D01*
X110945131Y-100963440D01*
X110943892Y-100963416D01*
X110942683Y-100963346D01*
X110941506Y-100963228D01*
X110940359Y-100963062D01*
X110939244Y-100962850D01*
X110938159Y-100962590D01*
X110937106Y-100962283D01*
X110936083Y-100961928D01*
X110935092Y-100961526D01*
X110934131Y-100961077D01*
X110933201Y-100960580D01*
X110932303Y-100960035D01*
X110931435Y-100959443D01*
X110930599Y-100958803D01*
X110929793Y-100958116D01*
X110929019Y-100957381D01*
X110928044Y-100956366D01*
X110927131Y-100955335D01*
X110926282Y-100954290D01*
X110925496Y-100953228D01*
X110924774Y-100952151D01*
X110924114Y-100951058D01*
X110923517Y-100949949D01*
X110922983Y-100948825D01*
X110922512Y-100947684D01*
X110922104Y-100946528D01*
X110921759Y-100945356D01*
X110921477Y-100944168D01*
X110921258Y-100942965D01*
X110921101Y-100941745D01*
X110921007Y-100940509D01*
X110920976Y-100939257D01*
X110920976Y-100423769D01*
X110918964Y-100411704D01*
X110568604Y-99584088D01*
X110568129Y-99582595D01*
X110567718Y-99581133D01*
X110567370Y-99579703D01*
X110567085Y-99578303D01*
X110566864Y-99576935D01*
X110566706Y-99575598D01*
X110566611Y-99574292D01*
X110566579Y-99573018D01*
X110566611Y-99571775D01*
X110566706Y-99570563D01*
X110566864Y-99569383D01*
X110567085Y-99568234D01*
X110567370Y-99567116D01*
X110567718Y-99566030D01*
X110568129Y-99564976D01*
X110568604Y-99563953D01*
X110569144Y-99562977D01*
X110569763Y-99562065D01*
X110570461Y-99561216D01*
X110571238Y-99560430D01*
X110572094Y-99559707D01*
X110573029Y-99559047D01*
X110574043Y-99558451D01*
X110575136Y-99557917D01*
X110576307Y-99557446D01*
X110577558Y-99557038D01*
X110578888Y-99556693D01*
X110580298Y-99556411D01*
X110581786Y-99556191D01*
X110583354Y-99556035D01*
X110585001Y-99555941D01*
X110586727Y-99555909D01*
X110840436Y-99555909D01*
X110843141Y-99555988D01*
G37*
G36*
X112541231Y-100941268D02*
G01*
X112541208Y-100942520D01*
X112541137Y-100943756D01*
X112541019Y-100944976D01*
X112540854Y-100946179D01*
X112540642Y-100947367D01*
X112540383Y-100948539D01*
X112540077Y-100949695D01*
X112539723Y-100950836D01*
X112539323Y-100951960D01*
X112538875Y-100953069D01*
X112538380Y-100954162D01*
X112537838Y-100955239D01*
X112537249Y-100956300D01*
X112536612Y-100957346D01*
X112535929Y-100958377D01*
X112535198Y-100959392D01*
X112534184Y-100960127D01*
X112533153Y-100960814D01*
X112532108Y-100961454D01*
X112531046Y-100962046D01*
X112529969Y-100962591D01*
X112528876Y-100963088D01*
X112527767Y-100963537D01*
X112526643Y-100963939D01*
X112525503Y-100964294D01*
X112524346Y-100964601D01*
X112523174Y-100964861D01*
X112521987Y-100965073D01*
X112520783Y-100965238D01*
X112519563Y-100965356D01*
X112518327Y-100965427D01*
X112517075Y-100965451D01*
X112281489Y-100965451D01*
X112280245Y-100965427D01*
X112279032Y-100965356D01*
X112277851Y-100965238D01*
X112276702Y-100965073D01*
X112275584Y-100964861D01*
X112274498Y-100964601D01*
X112273444Y-100964294D01*
X112272421Y-100963939D01*
X112271430Y-100963537D01*
X112270470Y-100963088D01*
X112269542Y-100962591D01*
X112268646Y-100962046D01*
X112267781Y-100961454D01*
X112266948Y-100960814D01*
X112266147Y-100960127D01*
X112265377Y-100959392D01*
X112264401Y-100958377D01*
X112263488Y-100957346D01*
X112262637Y-100956300D01*
X112261850Y-100955239D01*
X112261125Y-100954162D01*
X112260463Y-100953069D01*
X112259863Y-100951960D01*
X112259327Y-100950836D01*
X112258854Y-100949695D01*
X112258443Y-100948539D01*
X112258096Y-100947367D01*
X112257812Y-100946179D01*
X112257591Y-100944976D01*
X112257433Y-100943756D01*
X112257338Y-100942520D01*
X112257306Y-100941268D01*
X112257306Y-100391569D01*
X112257296Y-100390949D01*
X112257267Y-100390348D01*
X112257218Y-100389768D01*
X112257150Y-100389207D01*
X112257062Y-100388665D01*
X112256954Y-100388143D01*
X112256827Y-100387641D01*
X112256680Y-100387159D01*
X112256514Y-100386696D01*
X112256328Y-100386253D01*
X112256122Y-100385830D01*
X112255897Y-100385426D01*
X112255652Y-100385043D01*
X112255387Y-100384678D01*
X112255103Y-100384334D01*
X112254799Y-100384009D01*
X112254476Y-100383704D01*
X112254132Y-100383418D01*
X112253769Y-100383152D01*
X112253387Y-100382906D01*
X112252984Y-100382680D01*
X112252562Y-100382473D01*
X112252120Y-100382286D01*
X112251658Y-100382119D01*
X112251177Y-100381971D01*
X112250676Y-100381843D01*
X112250155Y-100381735D01*
X112249614Y-100381646D01*
X112249053Y-100381577D01*
X112248473Y-100381528D01*
X112247873Y-100381499D01*
X112247253Y-100381489D01*
X112120385Y-100381489D01*
X112119639Y-100381520D01*
X112119271Y-100381560D01*
X112118908Y-100381615D01*
X112118548Y-100381686D01*
X112118193Y-100381773D01*
X112117841Y-100381876D01*
X112117493Y-100381994D01*
X112116809Y-100382278D01*
X112116141Y-100382625D01*
X112115488Y-100383034D01*
X112114852Y-100383506D01*
X112114231Y-100384041D01*
X112113626Y-100384638D01*
X112113037Y-100385298D01*
X112112463Y-100386021D01*
X112111906Y-100386805D01*
X112111365Y-100387652D01*
X112110840Y-100388561D01*
X112110331Y-100389532D01*
X111906945Y-100945316D01*
X111906128Y-100947753D01*
X111905185Y-100950032D01*
X111904117Y-100952155D01*
X111902922Y-100954121D01*
X111902277Y-100955045D01*
X111901601Y-100955930D01*
X111900894Y-100956775D01*
X111900155Y-100957582D01*
X111899385Y-100958349D01*
X111898583Y-100959076D01*
X111897749Y-100959765D01*
X111896885Y-100960414D01*
X111895988Y-100961023D01*
X111895060Y-100961594D01*
X111894101Y-100962125D01*
X111893110Y-100962617D01*
X111892088Y-100963069D01*
X111891035Y-100963483D01*
X111888833Y-100964191D01*
X111886505Y-100964742D01*
X111884052Y-100965136D01*
X111881472Y-100965372D01*
X111878767Y-100965451D01*
X111633102Y-100965451D01*
X111631739Y-100965433D01*
X111630420Y-100965380D01*
X111629144Y-100965291D01*
X111627911Y-100965167D01*
X111626722Y-100965007D01*
X111625575Y-100964812D01*
X111624473Y-100964581D01*
X111623413Y-100964315D01*
X111622396Y-100964014D01*
X111621423Y-100963677D01*
X111620493Y-100963305D01*
X111619607Y-100962897D01*
X111618763Y-100962454D01*
X111617963Y-100961976D01*
X111617206Y-100961462D01*
X111616492Y-100960913D01*
X111615822Y-100960329D01*
X111615195Y-100959709D01*
X111614611Y-100959054D01*
X111614070Y-100958363D01*
X111613573Y-100957637D01*
X111613119Y-100956876D01*
X111612708Y-100956080D01*
X111612340Y-100955248D01*
X111612016Y-100954381D01*
X111611735Y-100953479D01*
X111611497Y-100952542D01*
X111611302Y-100951569D01*
X111611151Y-100950561D01*
X111611043Y-100949518D01*
X111610978Y-100948440D01*
X111610956Y-100947327D01*
X111610964Y-100946580D01*
X111610987Y-100945849D01*
X111611026Y-100945134D01*
X111611081Y-100944434D01*
X111611151Y-100943750D01*
X111611237Y-100943081D01*
X111611338Y-100942428D01*
X111611455Y-100941790D01*
X111611589Y-100941168D01*
X111611737Y-100940561D01*
X111611902Y-100939970D01*
X111612083Y-100939394D01*
X111612280Y-100938834D01*
X111612493Y-100938289D01*
X111612722Y-100937760D01*
X111612967Y-100937246D01*
X111842519Y-100359343D01*
X111842756Y-100358719D01*
X111842965Y-100358107D01*
X111843147Y-100357507D01*
X111843302Y-100356918D01*
X111843429Y-100356342D01*
X111843528Y-100355777D01*
X111843600Y-100355225D01*
X111843645Y-100354684D01*
X111843662Y-100354155D01*
X111843652Y-100353638D01*
X111843614Y-100353133D01*
X111843549Y-100352639D01*
X111843456Y-100352158D01*
X111843335Y-100351688D01*
X111843188Y-100351230D01*
X111843012Y-100350784D01*
X111842809Y-100350349D01*
X111842579Y-100349927D01*
X111842321Y-100349516D01*
X111842035Y-100349117D01*
X111841722Y-100348729D01*
X111841382Y-100348354D01*
X111841014Y-100347990D01*
X111840618Y-100347638D01*
X111840195Y-100347297D01*
X111839744Y-100346968D01*
X111839266Y-100346651D01*
X111838760Y-100346346D01*
X111838226Y-100346052D01*
X111837665Y-100345770D01*
X111837076Y-100345499D01*
X111836460Y-100345241D01*
X111823807Y-100339262D01*
X111811515Y-100332906D01*
X111799585Y-100326173D01*
X111788017Y-100319062D01*
X111776810Y-100311574D01*
X111765964Y-100303708D01*
X111755480Y-100295464D01*
X111745358Y-100286844D01*
X111735597Y-100277846D01*
X111726197Y-100268470D01*
X111717160Y-100258718D01*
X111708483Y-100248588D01*
X111700168Y-100238081D01*
X111692215Y-100227197D01*
X111684623Y-100215936D01*
X111677393Y-100204297D01*
X111670564Y-100192332D01*
X111664176Y-100180099D01*
X111658228Y-100167599D01*
X111652722Y-100154832D01*
X111647656Y-100141797D01*
X111643031Y-100128495D01*
X111638846Y-100114926D01*
X111635102Y-100101090D01*
X111631799Y-100086986D01*
X111628936Y-100072615D01*
X111626514Y-100057977D01*
X111624533Y-100043072D01*
X111622991Y-100027899D01*
X111621891Y-100012459D01*
X111621230Y-99996752D01*
X111621038Y-99982788D01*
X111904935Y-99982788D01*
X111905116Y-99992981D01*
X111905658Y-100002923D01*
X111906562Y-100012614D01*
X111907828Y-100022053D01*
X111909455Y-100031241D01*
X111911444Y-100040177D01*
X111913794Y-100048862D01*
X111916507Y-100057295D01*
X111919581Y-100065476D01*
X111923018Y-100073405D01*
X111926816Y-100081083D01*
X111930976Y-100088508D01*
X111935498Y-100095681D01*
X111940382Y-100102603D01*
X111945628Y-100109272D01*
X111951237Y-100115688D01*
X111957136Y-100121542D01*
X111963256Y-100127018D01*
X111969596Y-100132116D01*
X111976156Y-100136837D01*
X111982936Y-100141180D01*
X111989937Y-100145145D01*
X111997158Y-100148733D01*
X112004600Y-100151943D01*
X112012262Y-100154775D01*
X112020144Y-100157230D01*
X112028247Y-100159307D01*
X112036571Y-100161006D01*
X112045115Y-100162328D01*
X112053880Y-100163272D01*
X112062865Y-100163839D01*
X112072071Y-100164028D01*
X112247253Y-100164028D01*
X112247873Y-100164018D01*
X112248473Y-100163988D01*
X112249053Y-100163939D01*
X112249614Y-100163870D01*
X112250155Y-100163782D01*
X112250676Y-100163673D01*
X112251177Y-100163545D01*
X112251658Y-100163398D01*
X112252120Y-100163230D01*
X112252562Y-100163043D01*
X112252984Y-100162836D01*
X112253387Y-100162610D01*
X112253769Y-100162364D01*
X112254132Y-100162098D01*
X112254476Y-100161813D01*
X112254799Y-100161508D01*
X112255103Y-100161183D01*
X112255387Y-100160838D01*
X112255652Y-100160474D01*
X112255897Y-100160090D01*
X112256122Y-100159686D01*
X112256328Y-100159263D01*
X112256514Y-100158820D01*
X112256680Y-100158357D01*
X112256827Y-100157875D01*
X112256954Y-100157373D01*
X112257062Y-100156851D01*
X112257150Y-100156310D01*
X112257218Y-100155749D01*
X112257267Y-100155168D01*
X112257296Y-100154567D01*
X112257306Y-100153947D01*
X112257306Y-99809618D01*
X112257296Y-99808998D01*
X112257267Y-99808398D01*
X112257218Y-99807817D01*
X112257150Y-99807257D01*
X112257062Y-99806716D01*
X112256954Y-99806195D01*
X112256827Y-99805694D01*
X112256680Y-99805212D01*
X112256514Y-99804750D01*
X112256328Y-99804308D01*
X112256122Y-99803886D01*
X112255897Y-99803484D01*
X112255652Y-99803101D01*
X112255387Y-99802738D01*
X112255103Y-99802395D01*
X112254799Y-99802071D01*
X112254476Y-99801767D01*
X112254132Y-99801483D01*
X112253769Y-99801218D01*
X112253387Y-99800973D01*
X112252984Y-99800748D01*
X112252562Y-99800542D01*
X112252120Y-99800356D01*
X112251658Y-99800190D01*
X112251177Y-99800043D01*
X112250676Y-99799916D01*
X112250155Y-99799808D01*
X112249614Y-99799720D01*
X112249053Y-99799652D01*
X112248473Y-99799603D01*
X112247873Y-99799574D01*
X112247253Y-99799564D01*
X112072071Y-99799564D01*
X112062865Y-99799761D01*
X112053880Y-99800350D01*
X112045115Y-99801333D01*
X112036571Y-99802709D01*
X112028247Y-99804478D01*
X112020144Y-99806641D01*
X112012262Y-99809196D01*
X112004600Y-99812145D01*
X111997158Y-99815487D01*
X111989937Y-99819222D01*
X111982936Y-99823350D01*
X111976156Y-99827871D01*
X111969596Y-99832786D01*
X111963256Y-99838093D01*
X111957136Y-99843794D01*
X111951237Y-99849888D01*
X111945628Y-99856072D01*
X111940382Y-99862538D01*
X111935498Y-99869288D01*
X111930976Y-99876320D01*
X111926816Y-99883635D01*
X111923018Y-99891234D01*
X111919581Y-99899115D01*
X111916507Y-99907279D01*
X111913794Y-99915727D01*
X111911444Y-99924457D01*
X111909455Y-99933471D01*
X111907828Y-99942768D01*
X111906562Y-99952348D01*
X111905658Y-99962211D01*
X111905116Y-99972358D01*
X111904935Y-99982788D01*
X111621038Y-99982788D01*
X111621010Y-99980777D01*
X111621206Y-99965280D01*
X111621796Y-99950004D01*
X111622779Y-99934949D01*
X111624156Y-99920114D01*
X111625925Y-99905500D01*
X111628088Y-99891105D01*
X111630645Y-99876932D01*
X111633594Y-99862978D01*
X111636938Y-99849245D01*
X111640674Y-99835731D01*
X111644805Y-99822438D01*
X111649328Y-99809364D01*
X111654246Y-99796511D01*
X111659557Y-99783877D01*
X111665262Y-99771463D01*
X111671360Y-99759268D01*
X111677816Y-99747361D01*
X111684602Y-99735800D01*
X111691719Y-99724585D01*
X111699166Y-99713717D01*
X111706944Y-99703194D01*
X111715052Y-99693017D01*
X111723491Y-99683186D01*
X111732261Y-99673702D01*
X111741361Y-99664563D01*
X111750791Y-99655770D01*
X111760552Y-99647324D01*
X111770644Y-99639223D01*
X111781066Y-99631469D01*
X111791818Y-99624060D01*
X111802901Y-99616998D01*
X111814315Y-99610281D01*
X111825996Y-99603697D01*
X111837882Y-99597538D01*
X111849972Y-99591803D01*
X111862267Y-99586493D01*
X111874766Y-99581608D01*
X111887470Y-99577148D01*
X111900378Y-99573113D01*
X111913490Y-99569502D01*
X111926807Y-99566316D01*
X111940328Y-99563555D01*
X111954054Y-99561219D01*
X111967983Y-99559308D01*
X111982117Y-99557821D01*
X111996455Y-99556759D01*
X112010997Y-99556122D01*
X112025744Y-99555909D01*
X112517075Y-99555909D01*
X112518327Y-99555941D01*
X112519563Y-99556035D01*
X112520783Y-99556191D01*
X112521987Y-99556411D01*
X112523174Y-99556693D01*
X112524346Y-99557038D01*
X112525503Y-99557446D01*
X112526643Y-99557917D01*
X112527767Y-99558451D01*
X112528876Y-99559047D01*
X112529969Y-99559707D01*
X112531046Y-99560430D01*
X112532108Y-99561216D01*
X112533153Y-99562065D01*
X112534184Y-99562977D01*
X112535198Y-99563953D01*
X112535929Y-99564723D01*
X112536612Y-99565524D01*
X112537249Y-99566357D01*
X112537838Y-99567222D01*
X112538380Y-99568118D01*
X112538875Y-99569046D01*
X112539323Y-99570006D01*
X112539723Y-99570997D01*
X112540077Y-99572020D01*
X112540383Y-99573075D01*
X112540642Y-99574161D01*
X112540854Y-99575278D01*
X112541019Y-99576428D01*
X112541137Y-99577609D01*
X112541208Y-99578821D01*
X112541231Y-99580066D01*
X112541231Y-100153947D01*
X112541231Y-100941268D01*
G37*
G36*
X113546784Y-99555941D02*
G01*
X113548017Y-99556035D01*
X113549234Y-99556191D01*
X113550436Y-99556411D01*
X113551623Y-99556693D01*
X113552795Y-99557038D01*
X113553951Y-99557446D01*
X113555091Y-99557917D01*
X113556216Y-99558451D01*
X113557324Y-99559047D01*
X113558416Y-99559707D01*
X113559493Y-99560430D01*
X113560553Y-99561216D01*
X113561596Y-99562065D01*
X113562623Y-99562977D01*
X113563634Y-99563953D01*
X113564369Y-99564723D01*
X113565056Y-99565524D01*
X113565696Y-99566357D01*
X113566288Y-99567222D01*
X113566833Y-99568118D01*
X113567330Y-99569046D01*
X113567779Y-99570006D01*
X113568181Y-99570997D01*
X113568536Y-99572020D01*
X113568843Y-99573075D01*
X113569103Y-99574161D01*
X113569315Y-99575278D01*
X113569480Y-99576428D01*
X113569598Y-99577609D01*
X113569669Y-99578821D01*
X113569693Y-99580066D01*
X113569693Y-100941268D01*
X113569669Y-100942520D01*
X113569598Y-100943756D01*
X113569480Y-100944976D01*
X113569315Y-100946179D01*
X113569103Y-100947367D01*
X113568843Y-100948539D01*
X113568536Y-100949695D01*
X113568181Y-100950836D01*
X113567779Y-100951960D01*
X113567330Y-100953069D01*
X113566833Y-100954162D01*
X113566288Y-100955239D01*
X113565696Y-100956300D01*
X113565056Y-100957346D01*
X113564369Y-100958377D01*
X113563634Y-100959392D01*
X113562623Y-100960127D01*
X113561596Y-100960814D01*
X113560553Y-100961454D01*
X113559493Y-100962046D01*
X113558416Y-100962591D01*
X113557324Y-100963088D01*
X113556216Y-100963537D01*
X113555091Y-100963939D01*
X113553951Y-100964294D01*
X113552795Y-100964601D01*
X113551623Y-100964861D01*
X113550436Y-100965073D01*
X113549234Y-100965238D01*
X113548017Y-100965356D01*
X113546784Y-100965427D01*
X113545536Y-100965451D01*
X112736043Y-100965451D01*
X112734799Y-100965427D01*
X112733586Y-100965356D01*
X112732406Y-100965238D01*
X112731256Y-100965073D01*
X112730139Y-100964861D01*
X112729052Y-100964601D01*
X112727998Y-100964294D01*
X112726975Y-100963939D01*
X112725984Y-100963537D01*
X112725024Y-100963088D01*
X112724096Y-100962591D01*
X112723200Y-100962046D01*
X112722335Y-100961454D01*
X112721502Y-100960814D01*
X112720701Y-100960127D01*
X112719931Y-100959392D01*
X112718955Y-100958377D01*
X112718043Y-100957346D01*
X112717194Y-100956300D01*
X112716408Y-100955239D01*
X112715685Y-100954162D01*
X112715025Y-100953069D01*
X112714428Y-100951960D01*
X112713895Y-100950836D01*
X112713424Y-100949695D01*
X112713016Y-100948539D01*
X112712671Y-100947367D01*
X112712389Y-100946179D01*
X112712169Y-100944976D01*
X112712013Y-100943756D01*
X112711919Y-100942520D01*
X112711887Y-100941268D01*
X112711887Y-100745952D01*
X112711919Y-100744712D01*
X112712013Y-100743504D01*
X112712169Y-100742326D01*
X112712389Y-100741180D01*
X112712671Y-100740064D01*
X112713016Y-100738980D01*
X112713424Y-100737926D01*
X112713895Y-100736903D01*
X112714428Y-100735912D01*
X112715025Y-100734951D01*
X112715685Y-100734022D01*
X112716408Y-100733123D01*
X112717194Y-100732255D01*
X112718043Y-100731419D01*
X112718955Y-100730613D01*
X112719931Y-100729839D01*
X112720701Y-100728863D01*
X112721502Y-100727951D01*
X112722335Y-100727102D01*
X112723200Y-100726316D01*
X112724096Y-100725594D01*
X112725024Y-100724934D01*
X112725984Y-100724337D01*
X112726975Y-100723803D01*
X112727998Y-100723333D01*
X112729052Y-100722925D01*
X112730139Y-100722580D01*
X112731256Y-100722297D01*
X112732406Y-100722078D01*
X112733586Y-100721921D01*
X112734799Y-100721827D01*
X112736043Y-100721796D01*
X113275688Y-100721796D01*
X113276308Y-100721786D01*
X113276908Y-100721757D01*
X113277489Y-100721707D01*
X113278050Y-100721638D01*
X113278592Y-100721550D01*
X113279114Y-100721442D01*
X113279616Y-100721314D01*
X113280098Y-100721166D01*
X113280561Y-100720998D01*
X113281004Y-100720811D01*
X113281427Y-100720605D01*
X113281831Y-100720378D01*
X113282215Y-100720132D01*
X113282579Y-100719866D01*
X113282923Y-100719581D01*
X113283248Y-100719276D01*
X113283553Y-100718951D01*
X113283839Y-100718606D01*
X113284105Y-100718242D01*
X113284351Y-100717858D01*
X113284577Y-100717454D01*
X113284784Y-100717031D01*
X113284971Y-100716588D01*
X113285138Y-100716125D01*
X113285286Y-100715643D01*
X113285414Y-100715141D01*
X113285522Y-100714619D01*
X113285611Y-100714077D01*
X113285680Y-100713516D01*
X113285729Y-100712935D01*
X113285758Y-100712335D01*
X113285768Y-100711715D01*
X113285768Y-100387521D01*
X113285758Y-100386903D01*
X113285729Y-100386305D01*
X113285680Y-100385726D01*
X113285611Y-100385167D01*
X113285522Y-100384628D01*
X113285414Y-100384108D01*
X113285286Y-100383607D01*
X113285138Y-100383126D01*
X113284971Y-100382665D01*
X113284784Y-100382223D01*
X113284577Y-100381801D01*
X113284351Y-100381398D01*
X113284105Y-100381015D01*
X113283839Y-100380652D01*
X113283553Y-100380308D01*
X113283248Y-100379984D01*
X113282923Y-100379679D01*
X113282579Y-100379394D01*
X113282215Y-100379129D01*
X113281831Y-100378883D01*
X113281427Y-100378657D01*
X113281004Y-100378451D01*
X113280561Y-100378264D01*
X113280098Y-100378097D01*
X113279616Y-100377949D01*
X113279114Y-100377821D01*
X113278592Y-100377713D01*
X113278050Y-100377625D01*
X113277489Y-100377556D01*
X113276908Y-100377506D01*
X113276308Y-100377477D01*
X113275688Y-100377467D01*
X112939428Y-100377467D01*
X112938184Y-100377444D01*
X112936971Y-100377373D01*
X112935790Y-100377255D01*
X112934641Y-100377090D01*
X112933523Y-100376878D01*
X112932437Y-100376619D01*
X112931383Y-100376312D01*
X112930360Y-100375959D01*
X112929368Y-100375558D01*
X112928409Y-100375111D01*
X112927481Y-100374616D01*
X112926584Y-100374074D01*
X112925720Y-100373485D01*
X112924886Y-100372848D01*
X112924085Y-100372165D01*
X112923315Y-100371435D01*
X112922340Y-100370419D01*
X112921427Y-100369388D01*
X112920576Y-100368341D01*
X112919789Y-100367278D01*
X112919064Y-100366199D01*
X112918402Y-100365105D01*
X112917803Y-100363994D01*
X112917267Y-100362869D01*
X112916794Y-100361727D01*
X112916383Y-100360571D01*
X112916036Y-100359398D01*
X112915752Y-100358211D01*
X112915531Y-100357009D01*
X112915373Y-100355791D01*
X112915278Y-100354558D01*
X112915246Y-100353311D01*
X112915246Y-100157969D01*
X112915278Y-100156729D01*
X112915373Y-100155520D01*
X112915531Y-100154343D01*
X112915752Y-100153196D01*
X112916036Y-100152081D01*
X112916383Y-100150996D01*
X112916794Y-100149942D01*
X112917267Y-100148920D01*
X112917803Y-100147928D01*
X112918402Y-100146968D01*
X112919064Y-100146038D01*
X112919789Y-100145140D01*
X112920576Y-100144272D01*
X112921427Y-100143436D01*
X112922340Y-100142630D01*
X112923315Y-100141856D01*
X112924085Y-100140885D01*
X112924886Y-100139976D01*
X112925720Y-100139129D01*
X112926584Y-100138344D01*
X112927481Y-100137622D01*
X112928409Y-100136962D01*
X112929368Y-100136365D01*
X112930360Y-100135830D01*
X112931383Y-100135357D01*
X112932437Y-100134948D01*
X112933523Y-100134601D01*
X112934641Y-100134317D01*
X112935790Y-100134096D01*
X112936971Y-100133939D01*
X112938184Y-100133844D01*
X112939428Y-100133812D01*
X113275688Y-100133812D01*
X113276308Y-100133802D01*
X113276908Y-100133773D01*
X113277489Y-100133724D01*
X113278050Y-100133655D01*
X113278592Y-100133566D01*
X113279114Y-100133458D01*
X113279616Y-100133330D01*
X113280098Y-100133182D01*
X113280561Y-100133015D01*
X113281004Y-100132828D01*
X113281427Y-100132622D01*
X113281831Y-100132396D01*
X113282215Y-100132150D01*
X113282579Y-100131885D01*
X113282923Y-100131600D01*
X113283248Y-100131295D01*
X113283553Y-100130971D01*
X113283839Y-100130627D01*
X113284105Y-100130264D01*
X113284351Y-100129881D01*
X113284577Y-100129478D01*
X113284784Y-100129056D01*
X113284971Y-100128614D01*
X113285138Y-100128153D01*
X113285286Y-100127672D01*
X113285414Y-100127172D01*
X113285522Y-100126651D01*
X113285611Y-100126112D01*
X113285680Y-100125553D01*
X113285729Y-100124974D01*
X113285758Y-100124376D01*
X113285768Y-100123758D01*
X113285768Y-99809618D01*
X113285758Y-99808998D01*
X113285729Y-99808398D01*
X113285680Y-99807817D01*
X113285611Y-99807257D01*
X113285522Y-99806716D01*
X113285414Y-99806195D01*
X113285286Y-99805694D01*
X113285138Y-99805212D01*
X113284971Y-99804750D01*
X113284784Y-99804308D01*
X113284577Y-99803886D01*
X113284351Y-99803484D01*
X113284105Y-99803101D01*
X113283839Y-99802738D01*
X113283553Y-99802395D01*
X113283248Y-99802071D01*
X113282923Y-99801767D01*
X113282579Y-99801483D01*
X113282215Y-99801218D01*
X113281831Y-99800973D01*
X113281427Y-99800748D01*
X113281004Y-99800542D01*
X113280561Y-99800356D01*
X113280098Y-99800190D01*
X113279616Y-99800043D01*
X113279114Y-99799916D01*
X113278592Y-99799808D01*
X113278050Y-99799720D01*
X113277489Y-99799652D01*
X113276908Y-99799603D01*
X113276308Y-99799574D01*
X113275688Y-99799564D01*
X112736043Y-99799564D01*
X112734799Y-99799540D01*
X112733586Y-99799469D01*
X112732406Y-99799350D01*
X112731256Y-99799183D01*
X112730139Y-99798969D01*
X112729052Y-99798707D01*
X112727998Y-99798399D01*
X112726975Y-99798043D01*
X112725984Y-99797640D01*
X112725024Y-99797190D01*
X112724096Y-99796692D01*
X112723200Y-99796148D01*
X112722335Y-99795558D01*
X112721502Y-99794920D01*
X112720701Y-99794236D01*
X112719931Y-99793505D01*
X112718955Y-99792490D01*
X112718043Y-99791460D01*
X112717194Y-99790414D01*
X112716408Y-99789352D01*
X112715685Y-99788275D01*
X112715025Y-99787182D01*
X112714428Y-99786074D01*
X112713895Y-99784949D01*
X112713424Y-99783809D01*
X112713016Y-99782653D01*
X112712671Y-99781481D01*
X112712389Y-99780293D01*
X112712169Y-99779089D01*
X112712013Y-99777869D01*
X112711919Y-99776633D01*
X112711887Y-99775381D01*
X112711887Y-99580066D01*
X112711919Y-99578821D01*
X112712013Y-99577609D01*
X112712169Y-99576428D01*
X112712389Y-99575278D01*
X112712671Y-99574161D01*
X112713016Y-99573075D01*
X112713424Y-99572020D01*
X112713895Y-99570997D01*
X112714428Y-99570006D01*
X112715025Y-99569046D01*
X112715685Y-99568118D01*
X112716408Y-99567222D01*
X112717194Y-99566357D01*
X112718043Y-99565524D01*
X112718955Y-99564723D01*
X112719931Y-99563953D01*
X112720701Y-99562977D01*
X112721502Y-99562065D01*
X112722335Y-99561216D01*
X112723200Y-99560430D01*
X112724096Y-99559707D01*
X112725024Y-99559047D01*
X112725984Y-99558451D01*
X112726975Y-99557917D01*
X112727998Y-99557446D01*
X112729052Y-99557038D01*
X112730139Y-99556693D01*
X112731256Y-99556411D01*
X112732406Y-99556191D01*
X112733586Y-99556035D01*
X112734799Y-99555941D01*
X112736043Y-99555909D01*
X113545536Y-99555909D01*
X113546784Y-99555941D01*
G37*
G36*
X114035919Y-99555941D02*
G01*
X114037152Y-99556035D01*
X114038369Y-99556191D01*
X114039572Y-99556411D01*
X114040759Y-99556693D01*
X114041931Y-99557038D01*
X114043088Y-99557446D01*
X114044229Y-99557917D01*
X114045355Y-99558451D01*
X114046466Y-99559047D01*
X114047560Y-99559707D01*
X114048639Y-99560430D01*
X114049702Y-99561216D01*
X114050749Y-99562065D01*
X114051780Y-99562977D01*
X114052795Y-99563953D01*
X114053526Y-99564723D01*
X114054209Y-99565524D01*
X114054845Y-99566357D01*
X114055434Y-99567222D01*
X114055976Y-99568118D01*
X114056471Y-99569046D01*
X114056919Y-99570006D01*
X114057320Y-99570997D01*
X114057673Y-99572020D01*
X114057979Y-99573075D01*
X114058239Y-99574161D01*
X114058451Y-99575278D01*
X114058616Y-99576428D01*
X114058734Y-99577609D01*
X114058804Y-99578821D01*
X114058828Y-99580066D01*
X114058828Y-100391569D01*
X114058832Y-100392065D01*
X114058844Y-100392545D01*
X114058863Y-100393009D01*
X114058891Y-100393457D01*
X114058927Y-100393889D01*
X114058970Y-100394306D01*
X114059021Y-100394707D01*
X114059081Y-100395092D01*
X114059148Y-100395461D01*
X114059222Y-100395815D01*
X114059305Y-100396152D01*
X114059396Y-100396475D01*
X114059494Y-100396781D01*
X114059601Y-100397071D01*
X114059715Y-100397346D01*
X114059837Y-100397605D01*
X114059966Y-100397848D01*
X114060104Y-100398076D01*
X114060250Y-100398288D01*
X114060403Y-100398484D01*
X114060564Y-100398664D01*
X114060733Y-100398829D01*
X114060909Y-100398978D01*
X114061094Y-100399111D01*
X114061286Y-100399229D01*
X114061486Y-100399331D01*
X114061694Y-100399417D01*
X114061910Y-100399488D01*
X114062133Y-100399542D01*
X114062364Y-100399582D01*
X114062603Y-100399605D01*
X114062850Y-100399613D01*
X114063355Y-100399589D01*
X114063861Y-100399519D01*
X114064365Y-100399401D01*
X114064870Y-100399236D01*
X114065374Y-100399024D01*
X114065877Y-100398764D01*
X114066381Y-100398458D01*
X114066885Y-100398104D01*
X114067388Y-100397704D01*
X114067892Y-100397256D01*
X114068396Y-100396761D01*
X114068900Y-100396219D01*
X114069404Y-100395630D01*
X114069909Y-100394994D01*
X114070414Y-100394310D01*
X114070920Y-100393580D01*
X114455518Y-99574033D01*
X114456572Y-99571837D01*
X114457720Y-99569783D01*
X114458963Y-99567871D01*
X114460300Y-99566100D01*
X114461731Y-99564472D01*
X114463257Y-99562985D01*
X114464876Y-99561640D01*
X114466590Y-99560437D01*
X114468399Y-99559375D01*
X114470301Y-99558456D01*
X114472298Y-99557677D01*
X114474389Y-99557041D01*
X114476574Y-99556546D01*
X114478854Y-99556192D01*
X114481228Y-99555980D01*
X114483696Y-99555909D01*
X114727350Y-99555909D01*
X114728602Y-99555941D01*
X114729838Y-99556035D01*
X114731058Y-99556191D01*
X114732262Y-99556411D01*
X114733450Y-99556693D01*
X114734622Y-99557038D01*
X114735778Y-99557446D01*
X114736918Y-99557917D01*
X114738043Y-99558451D01*
X114739151Y-99559047D01*
X114740244Y-99559707D01*
X114741322Y-99560430D01*
X114742383Y-99561216D01*
X114743429Y-99562065D01*
X114744460Y-99562977D01*
X114745474Y-99563953D01*
X114746205Y-99564723D01*
X114746888Y-99565524D01*
X114747524Y-99566357D01*
X114748114Y-99567222D01*
X114748656Y-99568118D01*
X114749150Y-99569046D01*
X114749598Y-99570006D01*
X114749999Y-99570997D01*
X114750352Y-99572020D01*
X114750659Y-99573075D01*
X114750918Y-99574161D01*
X114751130Y-99575278D01*
X114751295Y-99576428D01*
X114751413Y-99577609D01*
X114751483Y-99578821D01*
X114751507Y-99580066D01*
X114751507Y-100941268D01*
X114751483Y-100942520D01*
X114751413Y-100943756D01*
X114751295Y-100944976D01*
X114751130Y-100946179D01*
X114750918Y-100947367D01*
X114750659Y-100948539D01*
X114750352Y-100949695D01*
X114749999Y-100950836D01*
X114749598Y-100951960D01*
X114749150Y-100953069D01*
X114748656Y-100954162D01*
X114748114Y-100955239D01*
X114747524Y-100956300D01*
X114746888Y-100957346D01*
X114746205Y-100958377D01*
X114745474Y-100959392D01*
X114744460Y-100960127D01*
X114743429Y-100960814D01*
X114742383Y-100961454D01*
X114741322Y-100962046D01*
X114740244Y-100962591D01*
X114739151Y-100963088D01*
X114738043Y-100963537D01*
X114736918Y-100963939D01*
X114735778Y-100964294D01*
X114734622Y-100964601D01*
X114733450Y-100964861D01*
X114732262Y-100965073D01*
X114731058Y-100965238D01*
X114729838Y-100965356D01*
X114728602Y-100965427D01*
X114727350Y-100965451D01*
X114493776Y-100965451D01*
X114492532Y-100965427D01*
X114491319Y-100965356D01*
X114490138Y-100965238D01*
X114488989Y-100965073D01*
X114487871Y-100964861D01*
X114486785Y-100964601D01*
X114485731Y-100964294D01*
X114484708Y-100963939D01*
X114483716Y-100963537D01*
X114482757Y-100963088D01*
X114481829Y-100962591D01*
X114480932Y-100962046D01*
X114480068Y-100961454D01*
X114479234Y-100960814D01*
X114478433Y-100960127D01*
X114477663Y-100959392D01*
X114476688Y-100958377D01*
X114475776Y-100957346D01*
X114474927Y-100956300D01*
X114474141Y-100955239D01*
X114473418Y-100954162D01*
X114472758Y-100953069D01*
X114472161Y-100951960D01*
X114471628Y-100950836D01*
X114471157Y-100949695D01*
X114470749Y-100948539D01*
X114470404Y-100947367D01*
X114470122Y-100946179D01*
X114469902Y-100944976D01*
X114469746Y-100943756D01*
X114469652Y-100942520D01*
X114469620Y-100941268D01*
X114471631Y-100129790D01*
X114471627Y-100129295D01*
X114471615Y-100128815D01*
X114471595Y-100128350D01*
X114471567Y-100127902D01*
X114471532Y-100127469D01*
X114471488Y-100127051D01*
X114471437Y-100126650D01*
X114471378Y-100126264D01*
X114471310Y-100125893D01*
X114471235Y-100125539D01*
X114471152Y-100125200D01*
X114471061Y-100124877D01*
X114470963Y-100124569D01*
X114470856Y-100124278D01*
X114470741Y-100124002D01*
X114470619Y-100123742D01*
X114470488Y-100123497D01*
X114470350Y-100123268D01*
X114470204Y-100123055D01*
X114470049Y-100122858D01*
X114469887Y-100122676D01*
X114469717Y-100122511D01*
X114469539Y-100122361D01*
X114469354Y-100122226D01*
X114469160Y-100122108D01*
X114468958Y-100122005D01*
X114468749Y-100121918D01*
X114468531Y-100121847D01*
X114468306Y-100121792D01*
X114468073Y-100121752D01*
X114467832Y-100121729D01*
X114467583Y-100121721D01*
X114467081Y-100121745D01*
X114466579Y-100121816D01*
X114466077Y-100121935D01*
X114465574Y-100122102D01*
X114465071Y-100122316D01*
X114464568Y-100122577D01*
X114464064Y-100122886D01*
X114463561Y-100123242D01*
X114463057Y-100123645D01*
X114462554Y-100124095D01*
X114462051Y-100124592D01*
X114461548Y-100125136D01*
X114461045Y-100125727D01*
X114460543Y-100126365D01*
X114460041Y-100127049D01*
X114459539Y-100127780D01*
X114074941Y-100947327D01*
X114073887Y-100949518D01*
X114072738Y-100951569D01*
X114071495Y-100953479D01*
X114070158Y-100955248D01*
X114068727Y-100956876D01*
X114067201Y-100958363D01*
X114065580Y-100959709D01*
X114063865Y-100960913D01*
X114062055Y-100961976D01*
X114060151Y-100962897D01*
X114058152Y-100963677D01*
X114056058Y-100964315D01*
X114053870Y-100964812D01*
X114051587Y-100965167D01*
X114049209Y-100965380D01*
X114046736Y-100965451D01*
X113801071Y-100965451D01*
X113799832Y-100965427D01*
X113798623Y-100965356D01*
X113797445Y-100965238D01*
X113796299Y-100965073D01*
X113795184Y-100964861D01*
X113794100Y-100964601D01*
X113793047Y-100964294D01*
X113792025Y-100963939D01*
X113791035Y-100963537D01*
X113790076Y-100963088D01*
X113789149Y-100962591D01*
X113788253Y-100962046D01*
X113787389Y-100961454D01*
X113786555Y-100960814D01*
X113785754Y-100960127D01*
X113784984Y-100959392D01*
X113784008Y-100958377D01*
X113783095Y-100957346D01*
X113782245Y-100956300D01*
X113781457Y-100955239D01*
X113780732Y-100954162D01*
X113780070Y-100953069D01*
X113779471Y-100951960D01*
X113778935Y-100950836D01*
X113778462Y-100949695D01*
X113778051Y-100948539D01*
X113777704Y-100947367D01*
X113777420Y-100946179D01*
X113777199Y-100944976D01*
X113777041Y-100943756D01*
X113776946Y-100942520D01*
X113776914Y-100941268D01*
X113776914Y-99580066D01*
X113776946Y-99578821D01*
X113777041Y-99577609D01*
X113777199Y-99576428D01*
X113777420Y-99575278D01*
X113777704Y-99574161D01*
X113778051Y-99573075D01*
X113778462Y-99572020D01*
X113778935Y-99570997D01*
X113779471Y-99570006D01*
X113780070Y-99569046D01*
X113780732Y-99568118D01*
X113781457Y-99567222D01*
X113782245Y-99566357D01*
X113783095Y-99565524D01*
X113784008Y-99564723D01*
X113784984Y-99563953D01*
X113785754Y-99562977D01*
X113786555Y-99562065D01*
X113787389Y-99561216D01*
X113788253Y-99560430D01*
X113789149Y-99559707D01*
X113790076Y-99559047D01*
X113791035Y-99558451D01*
X113792025Y-99557917D01*
X113793047Y-99557446D01*
X113794100Y-99557038D01*
X113795184Y-99556693D01*
X113796299Y-99556411D01*
X113797445Y-99556191D01*
X113798623Y-99556035D01*
X113799832Y-99555941D01*
X113801071Y-99555909D01*
X114034671Y-99555909D01*
X114035919Y-99555941D01*
G37*
G36*
X115876658Y-100545473D02*
G01*
X115875973Y-100562187D01*
X115874832Y-100578634D01*
X115873235Y-100594813D01*
X115871182Y-100610726D01*
X115868672Y-100626370D01*
X115865706Y-100641747D01*
X115862284Y-100656857D01*
X115858406Y-100671699D01*
X115854072Y-100686274D01*
X115849282Y-100700580D01*
X115844036Y-100714619D01*
X115838334Y-100728391D01*
X115832176Y-100741894D01*
X115825562Y-100755130D01*
X115818492Y-100768098D01*
X115811009Y-100780756D01*
X115803165Y-100793051D01*
X115794960Y-100804985D01*
X115786393Y-100816557D01*
X115777466Y-100827766D01*
X115768176Y-100838614D01*
X115758526Y-100849100D01*
X115748513Y-100859224D01*
X115738139Y-100868986D01*
X115727402Y-100878386D01*
X115716304Y-100887425D01*
X115704843Y-100896101D01*
X115693020Y-100904416D01*
X115680835Y-100912370D01*
X115668287Y-100919962D01*
X115655376Y-100927192D01*
X115641911Y-100934017D01*
X115628193Y-100940402D01*
X115614224Y-100946347D01*
X115600003Y-100951852D01*
X115585530Y-100956917D01*
X115570805Y-100961542D01*
X115555829Y-100965727D01*
X115540600Y-100969472D01*
X115525120Y-100972777D01*
X115509389Y-100975641D01*
X115493405Y-100978065D01*
X115477170Y-100980048D01*
X115460683Y-100981591D01*
X115443944Y-100982693D01*
X115426953Y-100983354D01*
X115409711Y-100983574D01*
X115392473Y-100983354D01*
X115375487Y-100982693D01*
X115358751Y-100981591D01*
X115342267Y-100980048D01*
X115326034Y-100978065D01*
X115310052Y-100975641D01*
X115294321Y-100972777D01*
X115278841Y-100969472D01*
X115263613Y-100965727D01*
X115248635Y-100961542D01*
X115233909Y-100956917D01*
X115219434Y-100951852D01*
X115205210Y-100946347D01*
X115191237Y-100940402D01*
X115177516Y-100934017D01*
X115164045Y-100927192D01*
X115150894Y-100919962D01*
X115138121Y-100912370D01*
X115125725Y-100904416D01*
X115113707Y-100896101D01*
X115102066Y-100887425D01*
X115090803Y-100878386D01*
X115079918Y-100868986D01*
X115069411Y-100859224D01*
X115059281Y-100849100D01*
X115049528Y-100838614D01*
X115040154Y-100827766D01*
X115031157Y-100816557D01*
X115022537Y-100804985D01*
X115014296Y-100793051D01*
X115006432Y-100780756D01*
X114998945Y-100768098D01*
X114991871Y-100755130D01*
X114985254Y-100741894D01*
X114979094Y-100728391D01*
X114973391Y-100714619D01*
X114968144Y-100700580D01*
X114963354Y-100686274D01*
X114959021Y-100671699D01*
X114955144Y-100656857D01*
X114951723Y-100641747D01*
X114948759Y-100626370D01*
X114946251Y-100610726D01*
X114944199Y-100594813D01*
X114942603Y-100578634D01*
X114941463Y-100562187D01*
X114940780Y-100545473D01*
X114940714Y-100540556D01*
X115224476Y-100540556D01*
X115224673Y-100551508D01*
X115225262Y-100562207D01*
X115226245Y-100572654D01*
X115227621Y-100582849D01*
X115229390Y-100592792D01*
X115231553Y-100602483D01*
X115234108Y-100611921D01*
X115237057Y-100621109D01*
X115240399Y-100630044D01*
X115244134Y-100638727D01*
X115248262Y-100647159D01*
X115252783Y-100655340D01*
X115257698Y-100663269D01*
X115263005Y-100670946D01*
X115268706Y-100678373D01*
X115274800Y-100685548D01*
X115281229Y-100692132D01*
X115287924Y-100698291D01*
X115294886Y-100704026D01*
X115302116Y-100709336D01*
X115309612Y-100714221D01*
X115317375Y-100718681D01*
X115325405Y-100722716D01*
X115333703Y-100726327D01*
X115342267Y-100729513D01*
X115351099Y-100732274D01*
X115360199Y-100734610D01*
X115369566Y-100736522D01*
X115379201Y-100738009D01*
X115389103Y-100739071D01*
X115399273Y-100739708D01*
X115409711Y-100739920D01*
X115419908Y-100739708D01*
X115429854Y-100739071D01*
X115439547Y-100738009D01*
X115448987Y-100736522D01*
X115458175Y-100734610D01*
X115467112Y-100732274D01*
X115475796Y-100729513D01*
X115484228Y-100726327D01*
X115492407Y-100722716D01*
X115500335Y-100718681D01*
X115508011Y-100714221D01*
X115515435Y-100709336D01*
X115522607Y-100704026D01*
X115529527Y-100698291D01*
X115536195Y-100692132D01*
X115542611Y-100685548D01*
X115548710Y-100678373D01*
X115554415Y-100670946D01*
X115559726Y-100663269D01*
X115564643Y-100655340D01*
X115569167Y-100647159D01*
X115573297Y-100638727D01*
X115577034Y-100630044D01*
X115580377Y-100621109D01*
X115583327Y-100611921D01*
X115585883Y-100602483D01*
X115588046Y-100592792D01*
X115589816Y-100582849D01*
X115591192Y-100572654D01*
X115592175Y-100562207D01*
X115592765Y-100551508D01*
X115592961Y-100540556D01*
X115592961Y-99984799D01*
X115592765Y-99973615D01*
X115592175Y-99962714D01*
X115591192Y-99952097D01*
X115589816Y-99941762D01*
X115588046Y-99931711D01*
X115585883Y-99921944D01*
X115583327Y-99912459D01*
X115580377Y-99903258D01*
X115577034Y-99894339D01*
X115573297Y-99885704D01*
X115569167Y-99877352D01*
X115564643Y-99869282D01*
X115559726Y-99861496D01*
X115554415Y-99853992D01*
X115548710Y-99846772D01*
X115542611Y-99839834D01*
X115536195Y-99833005D01*
X115529527Y-99826616D01*
X115522607Y-99820669D01*
X115515435Y-99815163D01*
X115508011Y-99810097D01*
X115500335Y-99805472D01*
X115492407Y-99801287D01*
X115484228Y-99797543D01*
X115475796Y-99794240D01*
X115467112Y-99791378D01*
X115458175Y-99788955D01*
X115448987Y-99786974D01*
X115439547Y-99785432D01*
X115429854Y-99784332D01*
X115419908Y-99783671D01*
X115409711Y-99783451D01*
X115399273Y-99783671D01*
X115389103Y-99784332D01*
X115379201Y-99785432D01*
X115369566Y-99786974D01*
X115360199Y-99788955D01*
X115351099Y-99791378D01*
X115342267Y-99794240D01*
X115333703Y-99797543D01*
X115325405Y-99801287D01*
X115317375Y-99805472D01*
X115309612Y-99810097D01*
X115302116Y-99815163D01*
X115294886Y-99820669D01*
X115287924Y-99826616D01*
X115281229Y-99833005D01*
X115274800Y-99839834D01*
X115268706Y-99846772D01*
X115263005Y-99853992D01*
X115257698Y-99861496D01*
X115252783Y-99869282D01*
X115248262Y-99877352D01*
X115244134Y-99885704D01*
X115240399Y-99894339D01*
X115237057Y-99903258D01*
X115234108Y-99912459D01*
X115231553Y-99921944D01*
X115229390Y-99931711D01*
X115227621Y-99941762D01*
X115226245Y-99952097D01*
X115225262Y-99962714D01*
X115224673Y-99973615D01*
X115224476Y-99984799D01*
X115224476Y-100540556D01*
X114940714Y-100540556D01*
X114940552Y-100528491D01*
X114940552Y-99992869D01*
X114940780Y-99976128D01*
X114941463Y-99959639D01*
X114942603Y-99943403D01*
X114944199Y-99927418D01*
X114946251Y-99911686D01*
X114948759Y-99896206D01*
X114951723Y-99880978D01*
X114955144Y-99866001D01*
X114959021Y-99851276D01*
X114963354Y-99836803D01*
X114968144Y-99822582D01*
X114973391Y-99808612D01*
X114979094Y-99794894D01*
X114985254Y-99781427D01*
X114991871Y-99768211D01*
X114998945Y-99755247D01*
X115006432Y-99742593D01*
X115014296Y-99730301D01*
X115022537Y-99718369D01*
X115031157Y-99706799D01*
X115040154Y-99695591D01*
X115049528Y-99684743D01*
X115059281Y-99674258D01*
X115069411Y-99664134D01*
X115079918Y-99654372D01*
X115090803Y-99644972D01*
X115102066Y-99635934D01*
X115113707Y-99627258D01*
X115125725Y-99618945D01*
X115138121Y-99610993D01*
X115150894Y-99603405D01*
X115164045Y-99596179D01*
X115177516Y-99589350D01*
X115191237Y-99582962D01*
X115205210Y-99577014D01*
X115219434Y-99571508D01*
X115233909Y-99566442D01*
X115248635Y-99561817D01*
X115263613Y-99557632D01*
X115278841Y-99553888D01*
X115294321Y-99550585D01*
X115310052Y-99547723D01*
X115326034Y-99545300D01*
X115342267Y-99543319D01*
X115358751Y-99541778D01*
X115375487Y-99540677D01*
X115392473Y-99540016D01*
X115409711Y-99539796D01*
X115426953Y-99540016D01*
X115443944Y-99540677D01*
X115460683Y-99541778D01*
X115477170Y-99543319D01*
X115493405Y-99545300D01*
X115509389Y-99547723D01*
X115525120Y-99550585D01*
X115540600Y-99553888D01*
X115555829Y-99557632D01*
X115570805Y-99561817D01*
X115585530Y-99566442D01*
X115600003Y-99571508D01*
X115614224Y-99577014D01*
X115628193Y-99582962D01*
X115641911Y-99589350D01*
X115655376Y-99596179D01*
X115668287Y-99603405D01*
X115680835Y-99610993D01*
X115693020Y-99618945D01*
X115704843Y-99627258D01*
X115716304Y-99635934D01*
X115727402Y-99644972D01*
X115738139Y-99654372D01*
X115748513Y-99664134D01*
X115758526Y-99674258D01*
X115768176Y-99684743D01*
X115777466Y-99695591D01*
X115786393Y-99706799D01*
X115794960Y-99718369D01*
X115803165Y-99730301D01*
X115811009Y-99742593D01*
X115818492Y-99755247D01*
X115825562Y-99768211D01*
X115832176Y-99781427D01*
X115838334Y-99794894D01*
X115844036Y-99808612D01*
X115849282Y-99822582D01*
X115854072Y-99836803D01*
X115858406Y-99851276D01*
X115862284Y-99866001D01*
X115865706Y-99880978D01*
X115868672Y-99896206D01*
X115871182Y-99911686D01*
X115873235Y-99927418D01*
X115874832Y-99943403D01*
X115875973Y-99959639D01*
X115876658Y-99976128D01*
X115876886Y-99992869D01*
X115876886Y-100528491D01*
X115876724Y-100540556D01*
X115876658Y-100545473D01*
G37*
G36*
X116325359Y-99555941D02*
G01*
X116326591Y-99556035D01*
X116327809Y-99556191D01*
X116329011Y-99556411D01*
X116330198Y-99556693D01*
X116331370Y-99557038D01*
X116332525Y-99557446D01*
X116333666Y-99557917D01*
X116334790Y-99558451D01*
X116335898Y-99559047D01*
X116336991Y-99559707D01*
X116338067Y-99560430D01*
X116339127Y-99561216D01*
X116340171Y-99562065D01*
X116341198Y-99562977D01*
X116342208Y-99563953D01*
X116342944Y-99564723D01*
X116343631Y-99565524D01*
X116344271Y-99566357D01*
X116344863Y-99567222D01*
X116345407Y-99568118D01*
X116345904Y-99569046D01*
X116346354Y-99570006D01*
X116346756Y-99570997D01*
X116347110Y-99572020D01*
X116347417Y-99573075D01*
X116347677Y-99574161D01*
X116347890Y-99575278D01*
X116348055Y-99576428D01*
X116348173Y-99577609D01*
X116348244Y-99578821D01*
X116348267Y-99580066D01*
X116348267Y-100941268D01*
X116348244Y-100942520D01*
X116348173Y-100943756D01*
X116348055Y-100944976D01*
X116347890Y-100946179D01*
X116347677Y-100947367D01*
X116347417Y-100948539D01*
X116347110Y-100949695D01*
X116346756Y-100950836D01*
X116346354Y-100951960D01*
X116345904Y-100953069D01*
X116345407Y-100954162D01*
X116344863Y-100955239D01*
X116344271Y-100956300D01*
X116343631Y-100957346D01*
X116342944Y-100958377D01*
X116342208Y-100959392D01*
X116341198Y-100960127D01*
X116340171Y-100960814D01*
X116339127Y-100961454D01*
X116338067Y-100962046D01*
X116336991Y-100962591D01*
X116335898Y-100963088D01*
X116334790Y-100963537D01*
X116333666Y-100963939D01*
X116332525Y-100964294D01*
X116331370Y-100964601D01*
X116330198Y-100964861D01*
X116329011Y-100965073D01*
X116327809Y-100965238D01*
X116326591Y-100965356D01*
X116325359Y-100965427D01*
X116324111Y-100965451D01*
X116088500Y-100965451D01*
X116087256Y-100965427D01*
X116086044Y-100965356D01*
X116084864Y-100965238D01*
X116083716Y-100965073D01*
X116082600Y-100964861D01*
X116081515Y-100964601D01*
X116080462Y-100964294D01*
X116079441Y-100963939D01*
X116078451Y-100963537D01*
X116077492Y-100963088D01*
X116076564Y-100962591D01*
X116075667Y-100962046D01*
X116074801Y-100961454D01*
X116073965Y-100960814D01*
X116073161Y-100960127D01*
X116072386Y-100959392D01*
X116071411Y-100958377D01*
X116070499Y-100957346D01*
X116069650Y-100956300D01*
X116068864Y-100955239D01*
X116068141Y-100954162D01*
X116067481Y-100953069D01*
X116066884Y-100951960D01*
X116066351Y-100950836D01*
X116065880Y-100949695D01*
X116065472Y-100948539D01*
X116065127Y-100947367D01*
X116064844Y-100946179D01*
X116064625Y-100944976D01*
X116064468Y-100943756D01*
X116064374Y-100942520D01*
X116064343Y-100941268D01*
X116064343Y-99580066D01*
X116064374Y-99578821D01*
X116064468Y-99577609D01*
X116064625Y-99576428D01*
X116064844Y-99575278D01*
X116065127Y-99574161D01*
X116065472Y-99573075D01*
X116065880Y-99572020D01*
X116066351Y-99570997D01*
X116066884Y-99570006D01*
X116067481Y-99569046D01*
X116068141Y-99568118D01*
X116068864Y-99567222D01*
X116069650Y-99566357D01*
X116070499Y-99565524D01*
X116071411Y-99564723D01*
X116072386Y-99563953D01*
X116073161Y-99562977D01*
X116073965Y-99562065D01*
X116074801Y-99561216D01*
X116075667Y-99560430D01*
X116076564Y-99559707D01*
X116077492Y-99559047D01*
X116078451Y-99558451D01*
X116079441Y-99557917D01*
X116080462Y-99557446D01*
X116081515Y-99557038D01*
X116082600Y-99556693D01*
X116083716Y-99556411D01*
X116084864Y-99556191D01*
X116086044Y-99556035D01*
X116087256Y-99555941D01*
X116088500Y-99555909D01*
X116324111Y-99555909D01*
X116325359Y-99555941D01*
G37*
G36*
X117439629Y-99555941D02*
G01*
X117440865Y-99556035D01*
X117442085Y-99556191D01*
X117443289Y-99556411D01*
X117444477Y-99556693D01*
X117445649Y-99557038D01*
X117446805Y-99557446D01*
X117447945Y-99557917D01*
X117449070Y-99558451D01*
X117450178Y-99559047D01*
X117451271Y-99559707D01*
X117452348Y-99560430D01*
X117453410Y-99561216D01*
X117454456Y-99562065D01*
X117455486Y-99562977D01*
X117456501Y-99563953D01*
X117457232Y-99564723D01*
X117457915Y-99565524D01*
X117458551Y-99566357D01*
X117459140Y-99567222D01*
X117459682Y-99568118D01*
X117460177Y-99569046D01*
X117460625Y-99570006D01*
X117461025Y-99570997D01*
X117461379Y-99572020D01*
X117461685Y-99573075D01*
X117461944Y-99574161D01*
X117462157Y-99575278D01*
X117462321Y-99576428D01*
X117462439Y-99577609D01*
X117462510Y-99578821D01*
X117462534Y-99580066D01*
X117462534Y-99777392D01*
X117462510Y-99778644D01*
X117462439Y-99779880D01*
X117462321Y-99781100D01*
X117462157Y-99782304D01*
X117461944Y-99783492D01*
X117461685Y-99784664D01*
X117461379Y-99785820D01*
X117461025Y-99786960D01*
X117460625Y-99788084D01*
X117460177Y-99789193D01*
X117459682Y-99790286D01*
X117459140Y-99791363D01*
X117458551Y-99792425D01*
X117457915Y-99793471D01*
X117457232Y-99794501D01*
X117456501Y-99795516D01*
X117455486Y-99796251D01*
X117454456Y-99796939D01*
X117453410Y-99797578D01*
X117452348Y-99798170D01*
X117451271Y-99798715D01*
X117450178Y-99799212D01*
X117449070Y-99799661D01*
X117447945Y-99800063D01*
X117446805Y-99800418D01*
X117445649Y-99800725D01*
X117444477Y-99800985D01*
X117443289Y-99801197D01*
X117442085Y-99801363D01*
X117440865Y-99801481D01*
X117439629Y-99801551D01*
X117438377Y-99801575D01*
X117142361Y-99801575D01*
X117141743Y-99801585D01*
X117141145Y-99801614D01*
X117140567Y-99801663D01*
X117140007Y-99801731D01*
X117139468Y-99801819D01*
X117138948Y-99801927D01*
X117138447Y-99802054D01*
X117137966Y-99802201D01*
X117137505Y-99802367D01*
X117137063Y-99802553D01*
X117136641Y-99802759D01*
X117136238Y-99802984D01*
X117135855Y-99803229D01*
X117135492Y-99803494D01*
X117135148Y-99803778D01*
X117134824Y-99804082D01*
X117134519Y-99804405D01*
X117134234Y-99804749D01*
X117133969Y-99805112D01*
X117133723Y-99805495D01*
X117133497Y-99805897D01*
X117133291Y-99806319D01*
X117133104Y-99806761D01*
X117132937Y-99807223D01*
X117132789Y-99807704D01*
X117132661Y-99808206D01*
X117132553Y-99808727D01*
X117132465Y-99809268D01*
X117132396Y-99809828D01*
X117132346Y-99810409D01*
X117132317Y-99811009D01*
X117132307Y-99811629D01*
X117132307Y-100941268D01*
X117132284Y-100942520D01*
X117132213Y-100943756D01*
X117132095Y-100944976D01*
X117131930Y-100946179D01*
X117131718Y-100947367D01*
X117131459Y-100948539D01*
X117131152Y-100949695D01*
X117130799Y-100950836D01*
X117130398Y-100951960D01*
X117129951Y-100953069D01*
X117129456Y-100954162D01*
X117128914Y-100955239D01*
X117128325Y-100956300D01*
X117127689Y-100957346D01*
X117127005Y-100958377D01*
X117126275Y-100959392D01*
X117125260Y-100960127D01*
X117124228Y-100960814D01*
X117123181Y-100961454D01*
X117122118Y-100962046D01*
X117121039Y-100962591D01*
X117119945Y-100963088D01*
X117118834Y-100963537D01*
X117117709Y-100963939D01*
X117116567Y-100964294D01*
X117115411Y-100964601D01*
X117114238Y-100964861D01*
X117113051Y-100965073D01*
X117111849Y-100965238D01*
X117110631Y-100965356D01*
X117109398Y-100965427D01*
X117108151Y-100965451D01*
X116872539Y-100965451D01*
X116871300Y-100965427D01*
X116870091Y-100965356D01*
X116868913Y-100965238D01*
X116867767Y-100965073D01*
X116866651Y-100964861D01*
X116865567Y-100964601D01*
X116864513Y-100964294D01*
X116863490Y-100963939D01*
X116862499Y-100963537D01*
X116861538Y-100963088D01*
X116860609Y-100962591D01*
X116859710Y-100962046D01*
X116858843Y-100961454D01*
X116858006Y-100960814D01*
X116857201Y-100960127D01*
X116856426Y-100959392D01*
X116855451Y-100958377D01*
X116854539Y-100957346D01*
X116853689Y-100956300D01*
X116852904Y-100955239D01*
X116852181Y-100954162D01*
X116851521Y-100953069D01*
X116850924Y-100951960D01*
X116850390Y-100950836D01*
X116849919Y-100949695D01*
X116849511Y-100948539D01*
X116849166Y-100947367D01*
X116848884Y-100946179D01*
X116848665Y-100944976D01*
X116848508Y-100943756D01*
X116848414Y-100942520D01*
X116848383Y-100941268D01*
X116848383Y-99811629D01*
X116848373Y-99811009D01*
X116848343Y-99810409D01*
X116848294Y-99809828D01*
X116848225Y-99809268D01*
X116848136Y-99808727D01*
X116848028Y-99808206D01*
X116847900Y-99807704D01*
X116847753Y-99807223D01*
X116847585Y-99806761D01*
X116847398Y-99806319D01*
X116847191Y-99805897D01*
X116846965Y-99805495D01*
X116846719Y-99805112D01*
X116846453Y-99804749D01*
X116846168Y-99804405D01*
X116845863Y-99804082D01*
X116845538Y-99803778D01*
X116845193Y-99803494D01*
X116844829Y-99803229D01*
X116844445Y-99802984D01*
X116844041Y-99802759D01*
X116843618Y-99802553D01*
X116843175Y-99802367D01*
X116842712Y-99802201D01*
X116842230Y-99802054D01*
X116841728Y-99801927D01*
X116841206Y-99801819D01*
X116840665Y-99801731D01*
X116840104Y-99801663D01*
X116839523Y-99801614D01*
X116838922Y-99801585D01*
X116838302Y-99801575D01*
X116532232Y-99801575D01*
X116530992Y-99801551D01*
X116529784Y-99801481D01*
X116528606Y-99801363D01*
X116527460Y-99801197D01*
X116526344Y-99800985D01*
X116525259Y-99800725D01*
X116524206Y-99800418D01*
X116523183Y-99800063D01*
X116522192Y-99799661D01*
X116521231Y-99799212D01*
X116520301Y-99798715D01*
X116519403Y-99798170D01*
X116518535Y-99797578D01*
X116517699Y-99796939D01*
X116516893Y-99796251D01*
X116516119Y-99795516D01*
X116515148Y-99794501D01*
X116514239Y-99793471D01*
X116513392Y-99792425D01*
X116512607Y-99791363D01*
X116511885Y-99790286D01*
X116511225Y-99789193D01*
X116510628Y-99788084D01*
X116510093Y-99786960D01*
X116509621Y-99785820D01*
X116509212Y-99784664D01*
X116508865Y-99783492D01*
X116508581Y-99782304D01*
X116508360Y-99781100D01*
X116508202Y-99779880D01*
X116508107Y-99778644D01*
X116508076Y-99777392D01*
X116508076Y-99580066D01*
X116508107Y-99578821D01*
X116508202Y-99577609D01*
X116508360Y-99576428D01*
X116508581Y-99575278D01*
X116508865Y-99574161D01*
X116509212Y-99573075D01*
X116509621Y-99572020D01*
X116510093Y-99570997D01*
X116510628Y-99570006D01*
X116511225Y-99569046D01*
X116511885Y-99568118D01*
X116512607Y-99567222D01*
X116513392Y-99566357D01*
X116514239Y-99565524D01*
X116515148Y-99564723D01*
X116516119Y-99563953D01*
X116516893Y-99562977D01*
X116517699Y-99562065D01*
X116518535Y-99561216D01*
X116519403Y-99560430D01*
X116520301Y-99559707D01*
X116521231Y-99559047D01*
X116522192Y-99558451D01*
X116523183Y-99557917D01*
X116524206Y-99557446D01*
X116525259Y-99557038D01*
X116526344Y-99556693D01*
X116527460Y-99556411D01*
X116528606Y-99556191D01*
X116529784Y-99556035D01*
X116530992Y-99555941D01*
X116532232Y-99555909D01*
X117438377Y-99555909D01*
X117439629Y-99555941D01*
G37*
G36*
X118485281Y-100939257D02*
G01*
X118485626Y-100940868D01*
X118485909Y-100942429D01*
X118486128Y-100943938D01*
X118486285Y-100945396D01*
X118486379Y-100946803D01*
X118486410Y-100948158D01*
X118486378Y-100949463D01*
X118486283Y-100950717D01*
X118486125Y-100951919D01*
X118485904Y-100953070D01*
X118485621Y-100954170D01*
X118485274Y-100955219D01*
X118484865Y-100956216D01*
X118484393Y-100957163D01*
X118483858Y-100958058D01*
X118483260Y-100958902D01*
X118482599Y-100959695D01*
X118481875Y-100960437D01*
X118481089Y-100961128D01*
X118480239Y-100961767D01*
X118479327Y-100962355D01*
X118478352Y-100962893D01*
X118477314Y-100963379D01*
X118476213Y-100963814D01*
X118475049Y-100964197D01*
X118473823Y-100964530D01*
X118472534Y-100964811D01*
X118471182Y-100965041D01*
X118469767Y-100965220D01*
X118468289Y-100965348D01*
X118466749Y-100965425D01*
X118465146Y-100965451D01*
X118221491Y-100965451D01*
X118219030Y-100965372D01*
X118217841Y-100965274D01*
X118216680Y-100965136D01*
X118215546Y-100964959D01*
X118214439Y-100964742D01*
X118213360Y-100964486D01*
X118212308Y-100964191D01*
X118211284Y-100963856D01*
X118210288Y-100963483D01*
X118209318Y-100963069D01*
X118208377Y-100962617D01*
X118207462Y-100962125D01*
X118206576Y-100961594D01*
X118205716Y-100961023D01*
X118204885Y-100960414D01*
X118204081Y-100959765D01*
X118203304Y-100959076D01*
X118202555Y-100958349D01*
X118201833Y-100957582D01*
X118201139Y-100956775D01*
X118200473Y-100955930D01*
X118199834Y-100955045D01*
X118199222Y-100954121D01*
X118198638Y-100953158D01*
X118198082Y-100952155D01*
X118197553Y-100951113D01*
X118197052Y-100950032D01*
X118196133Y-100947753D01*
X118195324Y-100945316D01*
X118148995Y-100747963D01*
X118148719Y-100746988D01*
X118148396Y-100746075D01*
X118148026Y-100745226D01*
X118147824Y-100744826D01*
X118147610Y-100744440D01*
X118147384Y-100744071D01*
X118147147Y-100743718D01*
X118146898Y-100743380D01*
X118146637Y-100743058D01*
X118146364Y-100742752D01*
X118146080Y-100742461D01*
X118145784Y-100742186D01*
X118145476Y-100741927D01*
X118145156Y-100741684D01*
X118144825Y-100741457D01*
X118144482Y-100741245D01*
X118144127Y-100741049D01*
X118143760Y-100740868D01*
X118143381Y-100740704D01*
X118142990Y-100740555D01*
X118142588Y-100740422D01*
X118142174Y-100740304D01*
X118141748Y-100740202D01*
X118141310Y-100740116D01*
X118140860Y-100740045D01*
X118139924Y-100739951D01*
X118138941Y-100739920D01*
X117762386Y-100739920D01*
X117761402Y-100739951D01*
X117760928Y-100739991D01*
X117760466Y-100740045D01*
X117760015Y-100740116D01*
X117759577Y-100740202D01*
X117759150Y-100740304D01*
X117758735Y-100740422D01*
X117758331Y-100740555D01*
X117757940Y-100740704D01*
X117757560Y-100740868D01*
X117757192Y-100741049D01*
X117756835Y-100741245D01*
X117756491Y-100741457D01*
X117756158Y-100741684D01*
X117755837Y-100741927D01*
X117755528Y-100742186D01*
X117755231Y-100742461D01*
X117754945Y-100742752D01*
X117754672Y-100743058D01*
X117754410Y-100743380D01*
X117754159Y-100743718D01*
X117753921Y-100744071D01*
X117753694Y-100744440D01*
X117753479Y-100744826D01*
X117753276Y-100745226D01*
X117753085Y-100745643D01*
X117752905Y-100746075D01*
X117752738Y-100746524D01*
X117752582Y-100746988D01*
X117752305Y-100747963D01*
X117706003Y-100945316D01*
X117705186Y-100947753D01*
X117704242Y-100950032D01*
X117703172Y-100952155D01*
X117701976Y-100954121D01*
X117701330Y-100955045D01*
X117700653Y-100955930D01*
X117699945Y-100956775D01*
X117699204Y-100957582D01*
X117698433Y-100958349D01*
X117697630Y-100959076D01*
X117696795Y-100959765D01*
X117695929Y-100960414D01*
X117695031Y-100961023D01*
X117694102Y-100961594D01*
X117693142Y-100962125D01*
X117692150Y-100962617D01*
X117691127Y-100963069D01*
X117690072Y-100963483D01*
X117687868Y-100964191D01*
X117685539Y-100964742D01*
X117683084Y-100965136D01*
X117680504Y-100965372D01*
X117677798Y-100965451D01*
X117432133Y-100965451D01*
X117430771Y-100965433D01*
X117429451Y-100965380D01*
X117428175Y-100965291D01*
X117426943Y-100965167D01*
X117425753Y-100965007D01*
X117424607Y-100964812D01*
X117423504Y-100964581D01*
X117422444Y-100964315D01*
X117421428Y-100964014D01*
X117420455Y-100963677D01*
X117419525Y-100963305D01*
X117418638Y-100962897D01*
X117417795Y-100962454D01*
X117416994Y-100961976D01*
X117416237Y-100961462D01*
X117415524Y-100960913D01*
X117414853Y-100960329D01*
X117414226Y-100959709D01*
X117413642Y-100959054D01*
X117413102Y-100958363D01*
X117412604Y-100957637D01*
X117412150Y-100956876D01*
X117411739Y-100956080D01*
X117411371Y-100955248D01*
X117411047Y-100954381D01*
X117410766Y-100953479D01*
X117410528Y-100952542D01*
X117410333Y-100951569D01*
X117410182Y-100950561D01*
X117410074Y-100949518D01*
X117410009Y-100948440D01*
X117409987Y-100947327D01*
X117411998Y-100939257D01*
X117525616Y-100511932D01*
X117808030Y-100511932D01*
X117808038Y-100512600D01*
X117808093Y-100513253D01*
X117808138Y-100513573D01*
X117808195Y-100513890D01*
X117808264Y-100514202D01*
X117808344Y-100514510D01*
X117808436Y-100514815D01*
X117808539Y-100515116D01*
X117808655Y-100515412D01*
X117808782Y-100515705D01*
X117808921Y-100515993D01*
X117809071Y-100516278D01*
X117809233Y-100516558D01*
X117809407Y-100516835D01*
X117809791Y-100517376D01*
X117810221Y-100517902D01*
X117810699Y-100518411D01*
X117811204Y-100518656D01*
X117811710Y-100518884D01*
X117812214Y-100519097D01*
X117812719Y-100519294D01*
X117813223Y-100519475D01*
X117813726Y-100519640D01*
X117814230Y-100519789D01*
X117814734Y-100519922D01*
X117815237Y-100520039D01*
X117815741Y-100520141D01*
X117816245Y-100520227D01*
X117816749Y-100520297D01*
X117817253Y-100520352D01*
X117817758Y-100520390D01*
X117818263Y-100520414D01*
X117818769Y-100520421D01*
X118084569Y-100520421D01*
X118085070Y-100520414D01*
X118085572Y-100520390D01*
X118086074Y-100520352D01*
X118086577Y-100520297D01*
X118087080Y-100520227D01*
X118087584Y-100520141D01*
X118088087Y-100520039D01*
X118088591Y-100519922D01*
X118089094Y-100519789D01*
X118089598Y-100519640D01*
X118090101Y-100519475D01*
X118090604Y-100519294D01*
X118091107Y-100519097D01*
X118091609Y-100518884D01*
X118092111Y-100518656D01*
X118092612Y-100518411D01*
X118093094Y-100517902D01*
X118093529Y-100517376D01*
X118093916Y-100516835D01*
X118094255Y-100516278D01*
X118094546Y-100515705D01*
X118094790Y-100515116D01*
X118094987Y-100514510D01*
X118095136Y-100513890D01*
X118095237Y-100513253D01*
X118095291Y-100512600D01*
X118095298Y-100511932D01*
X118095258Y-100511248D01*
X118095170Y-100510549D01*
X118095035Y-100509834D01*
X118094853Y-100509103D01*
X118094623Y-100508357D01*
X117959712Y-99924395D01*
X117959451Y-99923419D01*
X117959175Y-99922507D01*
X117958883Y-99921658D01*
X117958576Y-99920872D01*
X117958417Y-99920503D01*
X117958253Y-99920149D01*
X117958086Y-99919811D01*
X117957915Y-99919489D01*
X117957740Y-99919183D01*
X117957561Y-99918893D01*
X117957378Y-99918618D01*
X117957192Y-99918359D01*
X117957001Y-99918115D01*
X117956807Y-99917888D01*
X117956609Y-99917676D01*
X117956407Y-99917480D01*
X117956201Y-99917300D01*
X117955991Y-99917135D01*
X117955777Y-99916986D01*
X117955560Y-99916853D01*
X117955338Y-99916735D01*
X117955113Y-99916633D01*
X117954884Y-99916547D01*
X117954651Y-99916477D01*
X117954414Y-99916422D01*
X117954173Y-99916383D01*
X117953928Y-99916359D01*
X117953680Y-99916351D01*
X117953182Y-99916383D01*
X117952939Y-99916422D01*
X117952700Y-99916477D01*
X117952465Y-99916547D01*
X117952234Y-99916633D01*
X117951784Y-99916853D01*
X117951351Y-99917135D01*
X117950934Y-99917480D01*
X117950532Y-99917888D01*
X117950147Y-99918359D01*
X117949778Y-99918893D01*
X117949425Y-99919489D01*
X117949089Y-99920149D01*
X117948768Y-99920872D01*
X117948464Y-99921658D01*
X117948175Y-99922507D01*
X117947903Y-99923419D01*
X117947647Y-99924395D01*
X117808688Y-100508357D01*
X117808463Y-100509103D01*
X117808285Y-100509834D01*
X117808153Y-100510549D01*
X117808068Y-100511248D01*
X117808030Y-100511932D01*
X117525616Y-100511932D01*
X117774451Y-99576044D01*
X117775272Y-99573603D01*
X117776219Y-99571320D01*
X117777292Y-99569195D01*
X117778489Y-99567228D01*
X117779135Y-99566303D01*
X117779812Y-99565418D01*
X117780521Y-99564573D01*
X117781261Y-99563767D01*
X117782032Y-99563000D01*
X117782835Y-99562273D01*
X117783669Y-99561585D01*
X117784535Y-99560936D01*
X117785432Y-99560327D01*
X117786360Y-99559758D01*
X117787320Y-99559227D01*
X117788311Y-99558736D01*
X117789333Y-99558284D01*
X117790387Y-99557872D01*
X117792589Y-99557165D01*
X117794917Y-99556616D01*
X117797371Y-99556223D01*
X117799950Y-99555988D01*
X117802655Y-99555909D01*
X118094623Y-99555909D01*
X118097329Y-99555988D01*
X118098635Y-99556086D01*
X118099909Y-99556223D01*
X118101152Y-99556400D01*
X118102364Y-99556616D01*
X118103544Y-99556871D01*
X118104693Y-99557165D01*
X118105811Y-99557499D01*
X118106897Y-99557872D01*
X118107952Y-99558284D01*
X118108975Y-99558736D01*
X118109967Y-99559227D01*
X118110927Y-99559758D01*
X118111856Y-99560327D01*
X118112754Y-99560936D01*
X118113620Y-99561585D01*
X118114454Y-99562273D01*
X118115257Y-99563000D01*
X118116029Y-99563767D01*
X118116769Y-99564573D01*
X118117478Y-99565418D01*
X118118155Y-99566303D01*
X118118800Y-99567228D01*
X118119414Y-99568191D01*
X118119997Y-99569195D01*
X118120547Y-99570238D01*
X118121067Y-99571320D01*
X118121554Y-99572442D01*
X118122010Y-99573603D01*
X118122435Y-99574804D01*
X118122828Y-99576044D01*
X118371663Y-100511932D01*
X118485281Y-100939257D01*
G37*
G36*
X119394264Y-99555941D02*
G01*
X119395498Y-99556035D01*
X119396718Y-99556191D01*
X119397921Y-99556411D01*
X119399109Y-99556693D01*
X119400281Y-99557038D01*
X119401437Y-99557446D01*
X119402577Y-99557917D01*
X119403702Y-99558451D01*
X119404811Y-99559047D01*
X119405904Y-99559707D01*
X119406982Y-99560430D01*
X119408043Y-99561216D01*
X119409089Y-99562065D01*
X119410120Y-99562977D01*
X119411134Y-99563953D01*
X119411866Y-99564723D01*
X119412551Y-99565524D01*
X119413188Y-99566357D01*
X119413778Y-99567222D01*
X119414321Y-99568118D01*
X119414817Y-99569046D01*
X119415265Y-99570006D01*
X119415667Y-99570997D01*
X119416021Y-99572020D01*
X119416328Y-99573075D01*
X119416587Y-99574161D01*
X119416800Y-99575278D01*
X119416965Y-99576428D01*
X119417083Y-99577609D01*
X119417154Y-99578821D01*
X119417177Y-99580066D01*
X119417177Y-99777392D01*
X119417154Y-99778644D01*
X119417083Y-99779880D01*
X119416965Y-99781100D01*
X119416800Y-99782304D01*
X119416587Y-99783492D01*
X119416328Y-99784664D01*
X119416021Y-99785820D01*
X119415667Y-99786960D01*
X119415265Y-99788084D01*
X119414817Y-99789193D01*
X119414321Y-99790286D01*
X119413778Y-99791363D01*
X119413188Y-99792425D01*
X119412551Y-99793471D01*
X119411866Y-99794501D01*
X119411134Y-99795516D01*
X119410120Y-99796251D01*
X119409089Y-99796939D01*
X119408043Y-99797578D01*
X119406982Y-99798170D01*
X119405904Y-99798715D01*
X119404811Y-99799212D01*
X119403702Y-99799661D01*
X119402577Y-99800063D01*
X119401437Y-99800418D01*
X119400281Y-99800725D01*
X119399109Y-99800985D01*
X119397921Y-99801197D01*
X119396718Y-99801363D01*
X119395498Y-99801481D01*
X119394264Y-99801551D01*
X119393013Y-99801575D01*
X119097008Y-99801575D01*
X119096388Y-99801585D01*
X119095789Y-99801614D01*
X119095209Y-99801663D01*
X119094649Y-99801731D01*
X119094108Y-99801819D01*
X119093587Y-99801927D01*
X119093086Y-99802054D01*
X119092604Y-99802201D01*
X119092142Y-99802367D01*
X119091699Y-99802553D01*
X119091277Y-99802759D01*
X119090874Y-99802984D01*
X119090490Y-99803229D01*
X119090126Y-99803494D01*
X119089782Y-99803778D01*
X119089458Y-99804082D01*
X119089153Y-99804405D01*
X119088868Y-99804749D01*
X119088602Y-99805112D01*
X119088356Y-99805495D01*
X119088130Y-99805897D01*
X119087924Y-99806319D01*
X119087737Y-99806761D01*
X119087570Y-99807223D01*
X119087422Y-99807704D01*
X119087294Y-99808206D01*
X119087186Y-99808727D01*
X119087097Y-99809268D01*
X119087029Y-99809828D01*
X119086979Y-99810409D01*
X119086950Y-99811009D01*
X119086940Y-99811629D01*
X119086940Y-100941268D01*
X119086917Y-100942520D01*
X119086846Y-100943756D01*
X119086728Y-100944976D01*
X119086563Y-100946179D01*
X119086350Y-100947367D01*
X119086091Y-100948539D01*
X119085784Y-100949695D01*
X119085430Y-100950836D01*
X119085029Y-100951960D01*
X119084581Y-100953069D01*
X119084085Y-100954162D01*
X119083542Y-100955239D01*
X119082953Y-100956300D01*
X119082315Y-100957346D01*
X119081631Y-100958377D01*
X119080900Y-100959392D01*
X119079885Y-100960127D01*
X119078854Y-100960814D01*
X119077808Y-100961454D01*
X119076746Y-100962046D01*
X119075668Y-100962591D01*
X119074575Y-100963088D01*
X119073466Y-100963537D01*
X119072341Y-100963939D01*
X119071200Y-100964294D01*
X119070044Y-100964601D01*
X119068872Y-100964861D01*
X119067684Y-100965073D01*
X119066481Y-100965238D01*
X119065261Y-100965356D01*
X119064026Y-100965427D01*
X119062776Y-100965451D01*
X118827183Y-100965451D01*
X118825940Y-100965427D01*
X118824729Y-100965356D01*
X118823549Y-100965238D01*
X118822400Y-100965073D01*
X118821283Y-100964861D01*
X118820197Y-100964601D01*
X118819143Y-100964294D01*
X118818121Y-100963939D01*
X118817129Y-100963537D01*
X118816170Y-100963088D01*
X118815241Y-100962591D01*
X118814345Y-100962046D01*
X118813479Y-100961454D01*
X118812646Y-100960814D01*
X118811843Y-100960127D01*
X118811072Y-100959392D01*
X118810097Y-100958377D01*
X118809185Y-100957346D01*
X118808336Y-100956300D01*
X118807549Y-100955239D01*
X118806826Y-100954162D01*
X118806165Y-100953069D01*
X118805567Y-100951960D01*
X118805032Y-100950836D01*
X118804560Y-100949695D01*
X118804151Y-100948539D01*
X118803805Y-100947367D01*
X118803522Y-100946179D01*
X118803302Y-100944976D01*
X118803144Y-100943756D01*
X118803050Y-100942520D01*
X118803018Y-100941268D01*
X118803018Y-99811629D01*
X118803009Y-99811009D01*
X118802979Y-99810409D01*
X118802930Y-99809828D01*
X118802861Y-99809268D01*
X118802773Y-99808727D01*
X118802665Y-99808206D01*
X118802537Y-99807704D01*
X118802389Y-99807223D01*
X118802222Y-99806761D01*
X118802035Y-99806319D01*
X118801829Y-99805897D01*
X118801603Y-99805495D01*
X118801357Y-99805112D01*
X118801092Y-99804749D01*
X118800807Y-99804405D01*
X118800502Y-99804082D01*
X118800177Y-99803778D01*
X118799833Y-99803494D01*
X118799470Y-99803229D01*
X118799086Y-99802984D01*
X118798683Y-99802759D01*
X118798260Y-99802553D01*
X118797818Y-99802367D01*
X118797356Y-99802201D01*
X118796874Y-99802054D01*
X118796373Y-99801927D01*
X118795852Y-99801819D01*
X118795311Y-99801731D01*
X118794750Y-99801663D01*
X118794170Y-99801614D01*
X118793570Y-99801585D01*
X118792951Y-99801575D01*
X118486868Y-99801575D01*
X118485628Y-99801551D01*
X118484420Y-99801481D01*
X118483242Y-99801363D01*
X118482096Y-99801197D01*
X118480981Y-99800985D01*
X118479897Y-99800725D01*
X118478844Y-99800418D01*
X118477822Y-99800063D01*
X118476832Y-99799661D01*
X118475873Y-99799212D01*
X118474946Y-99798715D01*
X118474050Y-99798170D01*
X118473186Y-99797578D01*
X118472353Y-99796939D01*
X118471551Y-99796251D01*
X118470781Y-99795516D01*
X118469806Y-99794501D01*
X118468893Y-99793471D01*
X118468042Y-99792425D01*
X118467255Y-99791363D01*
X118466530Y-99790286D01*
X118465868Y-99789193D01*
X118465268Y-99788084D01*
X118464732Y-99786960D01*
X118464259Y-99785820D01*
X118463849Y-99784664D01*
X118463501Y-99783492D01*
X118463217Y-99782304D01*
X118462996Y-99781100D01*
X118462838Y-99779880D01*
X118462743Y-99778644D01*
X118462711Y-99777392D01*
X118462711Y-99580066D01*
X118462743Y-99578821D01*
X118462838Y-99577609D01*
X118462996Y-99576428D01*
X118463217Y-99575278D01*
X118463501Y-99574161D01*
X118463849Y-99573075D01*
X118464259Y-99572020D01*
X118464732Y-99570997D01*
X118465268Y-99570006D01*
X118465868Y-99569046D01*
X118466530Y-99568118D01*
X118467255Y-99567222D01*
X118468042Y-99566357D01*
X118468893Y-99565524D01*
X118469806Y-99564723D01*
X118470781Y-99563953D01*
X118471551Y-99562977D01*
X118472353Y-99562065D01*
X118473186Y-99561216D01*
X118474050Y-99560430D01*
X118474946Y-99559707D01*
X118475873Y-99559047D01*
X118476832Y-99558451D01*
X118477822Y-99557917D01*
X118478844Y-99557446D01*
X118479897Y-99557038D01*
X118480981Y-99556693D01*
X118482096Y-99556411D01*
X118483242Y-99556191D01*
X118484420Y-99556035D01*
X118485628Y-99555941D01*
X118486868Y-99555909D01*
X119393013Y-99555909D01*
X119394264Y-99555941D01*
G37*
G36*
X120004433Y-99539985D02*
G01*
X120020212Y-99540551D01*
X120035770Y-99541495D01*
X120051108Y-99542817D01*
X120066226Y-99544516D01*
X120081124Y-99546592D01*
X120095801Y-99549046D01*
X120110258Y-99551878D01*
X120124495Y-99555086D01*
X120138512Y-99558672D01*
X120152308Y-99562635D01*
X120165884Y-99566976D01*
X120179240Y-99571694D01*
X120192376Y-99576788D01*
X120205291Y-99582260D01*
X120217986Y-99588109D01*
X120230399Y-99594064D01*
X120242465Y-99600349D01*
X120254185Y-99606965D01*
X120265559Y-99613911D01*
X120276587Y-99621187D01*
X120287269Y-99628794D01*
X120297605Y-99636731D01*
X120307594Y-99644998D01*
X120317238Y-99653595D01*
X120326535Y-99662523D01*
X120335487Y-99671781D01*
X120344092Y-99681369D01*
X120352351Y-99691287D01*
X120360264Y-99701534D01*
X120367830Y-99712112D01*
X120375051Y-99723020D01*
X120381634Y-99733963D01*
X120387793Y-99745141D01*
X120393527Y-99756555D01*
X120398837Y-99768205D01*
X120403721Y-99780090D01*
X120408181Y-99792212D01*
X120412216Y-99804569D01*
X120415826Y-99817162D01*
X120419012Y-99829991D01*
X120421772Y-99843056D01*
X120424108Y-99856358D01*
X120426020Y-99869895D01*
X120427506Y-99883668D01*
X120428568Y-99897678D01*
X120429205Y-99911923D01*
X120429417Y-99926405D01*
X120429205Y-99940871D01*
X120428568Y-99955070D01*
X120427506Y-99969000D01*
X120426020Y-99982663D01*
X120424108Y-99996058D01*
X120421772Y-100009186D01*
X120419012Y-100022047D01*
X120415826Y-100034640D01*
X120412216Y-100046966D01*
X120408181Y-100059024D01*
X120403721Y-100070816D01*
X120398837Y-100082340D01*
X120393527Y-100093597D01*
X120387793Y-100104588D01*
X120381634Y-100115312D01*
X120375051Y-100125769D01*
X120368168Y-100135970D01*
X120361113Y-100145935D01*
X120353884Y-100155664D01*
X120346482Y-100165158D01*
X120338908Y-100174416D01*
X120331160Y-100183438D01*
X120323239Y-100192225D01*
X120315145Y-100200775D01*
X120306878Y-100209089D01*
X120298438Y-100217168D01*
X120289825Y-100225010D01*
X120281039Y-100232616D01*
X120272080Y-100239986D01*
X120262947Y-100247120D01*
X120253642Y-100254018D01*
X120244164Y-100260680D01*
X120224343Y-100273893D01*
X120203137Y-100287359D01*
X120180546Y-100301078D01*
X120156572Y-100315049D01*
X120131213Y-100329271D01*
X120104470Y-100343745D01*
X120076342Y-100358470D01*
X120046830Y-100373445D01*
X120022980Y-100385713D01*
X120000767Y-100397352D01*
X119980190Y-100408363D01*
X119961249Y-100418745D01*
X119943944Y-100428499D01*
X119928276Y-100437624D01*
X119914243Y-100446119D01*
X119901846Y-100453985D01*
X119895892Y-100457531D01*
X119890111Y-100461125D01*
X119884503Y-100464766D01*
X119879068Y-100468455D01*
X119873806Y-100472191D01*
X119868717Y-100475975D01*
X119863801Y-100479806D01*
X119859058Y-100483684D01*
X119854488Y-100487609D01*
X119850091Y-100491582D01*
X119845867Y-100495601D01*
X119841816Y-100499667D01*
X119837938Y-100503780D01*
X119834233Y-100507940D01*
X119830701Y-100512147D01*
X119827342Y-100516400D01*
X119824173Y-100520483D01*
X119821208Y-100524676D01*
X119818447Y-100528979D01*
X119815891Y-100533391D01*
X119813539Y-100537914D01*
X119811392Y-100542546D01*
X119809449Y-100547289D01*
X119807711Y-100552142D01*
X119806177Y-100557104D01*
X119804848Y-100562177D01*
X119803723Y-100567360D01*
X119802803Y-100572653D01*
X119802087Y-100578056D01*
X119801576Y-100583570D01*
X119801269Y-100589194D01*
X119801167Y-100594928D01*
X119801332Y-100602645D01*
X119801828Y-100610189D01*
X119802653Y-100617560D01*
X119803810Y-100624758D01*
X119805296Y-100631783D01*
X119807113Y-100638635D01*
X119809260Y-100645314D01*
X119811738Y-100651820D01*
X119814546Y-100658153D01*
X119817684Y-100664313D01*
X119821153Y-100670300D01*
X119824952Y-100676114D01*
X119829082Y-100681754D01*
X119833542Y-100687222D01*
X119838332Y-100692517D01*
X119843453Y-100697639D01*
X119848636Y-100702512D01*
X119854118Y-100707072D01*
X119859900Y-100711318D01*
X119865980Y-100715250D01*
X119872359Y-100718867D01*
X119879037Y-100722171D01*
X119886014Y-100725160D01*
X119893290Y-100727835D01*
X119900864Y-100730195D01*
X119908738Y-100732241D01*
X119916910Y-100733973D01*
X119925382Y-100735389D01*
X119934152Y-100736492D01*
X119943221Y-100737279D01*
X119952589Y-100737751D01*
X119962256Y-100737909D01*
X119973190Y-100737728D01*
X119983840Y-100737185D01*
X119994207Y-100736279D01*
X120004291Y-100735012D01*
X120014092Y-100733383D01*
X120023610Y-100731392D01*
X120032844Y-100729038D01*
X120041796Y-100726323D01*
X120050464Y-100723247D01*
X120058848Y-100719808D01*
X120066950Y-100716007D01*
X120074768Y-100711845D01*
X120082304Y-100707322D01*
X120089556Y-100702436D01*
X120096524Y-100697189D01*
X120103210Y-100691580D01*
X120109550Y-100685456D01*
X120115481Y-100679158D01*
X120121003Y-100672687D01*
X120126116Y-100666042D01*
X120130819Y-100659223D01*
X120135114Y-100652231D01*
X120139000Y-100645066D01*
X120142477Y-100637728D01*
X120145544Y-100630216D01*
X120148203Y-100622530D01*
X120150453Y-100614672D01*
X120152293Y-100606640D01*
X120153725Y-100598436D01*
X120154748Y-100590058D01*
X120155361Y-100581507D01*
X120155566Y-100572782D01*
X120155566Y-100534524D01*
X120155597Y-100533280D01*
X120155691Y-100532067D01*
X120155849Y-100530886D01*
X120156069Y-100529737D01*
X120156352Y-100528619D01*
X120156698Y-100527533D01*
X120157107Y-100526478D01*
X120157579Y-100525455D01*
X120158113Y-100524464D01*
X120158711Y-100523504D01*
X120159372Y-100522576D01*
X120160095Y-100521680D01*
X120160882Y-100520815D01*
X120161732Y-100519982D01*
X120162644Y-100519180D01*
X120163620Y-100518411D01*
X120164390Y-100517435D01*
X120165193Y-100516523D01*
X120166027Y-100515674D01*
X120166892Y-100514888D01*
X120167789Y-100514165D01*
X120168717Y-100513505D01*
X120169676Y-100512909D01*
X120170668Y-100512375D01*
X120171690Y-100511904D01*
X120172744Y-100511496D01*
X120173829Y-100511151D01*
X120174946Y-100510869D01*
X120176094Y-100510649D01*
X120177274Y-100510493D01*
X120178485Y-100510399D01*
X120179727Y-100510367D01*
X120411296Y-100510367D01*
X120412547Y-100510399D01*
X120413782Y-100510493D01*
X120415001Y-100510649D01*
X120416204Y-100510869D01*
X120417392Y-100511151D01*
X120418564Y-100511496D01*
X120419720Y-100511904D01*
X120420861Y-100512375D01*
X120421985Y-100512909D01*
X120423094Y-100513505D01*
X120424188Y-100514165D01*
X120425265Y-100514888D01*
X120426327Y-100515674D01*
X120427373Y-100516523D01*
X120428403Y-100517435D01*
X120429417Y-100518411D01*
X120430149Y-100519180D01*
X120430834Y-100519982D01*
X120431471Y-100520815D01*
X120432062Y-100521680D01*
X120432605Y-100522576D01*
X120433100Y-100523504D01*
X120433549Y-100524464D01*
X120433950Y-100525455D01*
X120434304Y-100526478D01*
X120434611Y-100527533D01*
X120434870Y-100528619D01*
X120435083Y-100529737D01*
X120435248Y-100530886D01*
X120435366Y-100532067D01*
X120435437Y-100533280D01*
X120435460Y-100534524D01*
X120435460Y-100586884D01*
X120435240Y-100601382D01*
X120434579Y-100615675D01*
X120433478Y-100629764D01*
X120431936Y-100643648D01*
X120429954Y-100657327D01*
X120427531Y-100670801D01*
X120424668Y-100684071D01*
X120421364Y-100697137D01*
X120417620Y-100709997D01*
X120413435Y-100722653D01*
X120408810Y-100735105D01*
X120403744Y-100747351D01*
X120398238Y-100759393D01*
X120392292Y-100771231D01*
X120385905Y-100782864D01*
X120379078Y-100794292D01*
X120371597Y-100805216D01*
X120363755Y-100815841D01*
X120355551Y-100826168D01*
X120346985Y-100836196D01*
X120338058Y-100845926D01*
X120328768Y-100855357D01*
X120319117Y-100864489D01*
X120309104Y-100873323D01*
X120298729Y-100881857D01*
X120287992Y-100890093D01*
X120276894Y-100898030D01*
X120265433Y-100905667D01*
X120253611Y-100913005D01*
X120241427Y-100920044D01*
X120228881Y-100926784D01*
X120215973Y-100933224D01*
X120202751Y-100939078D01*
X120189261Y-100944554D01*
X120175504Y-100949652D01*
X120161479Y-100954373D01*
X120147187Y-100958716D01*
X120132628Y-100962681D01*
X120117801Y-100966269D01*
X120102707Y-100969479D01*
X120087345Y-100972311D01*
X120071716Y-100974766D01*
X120055819Y-100976843D01*
X120039655Y-100978543D01*
X120023223Y-100979865D01*
X120006524Y-100980809D01*
X119989557Y-100981375D01*
X119972323Y-100981564D01*
X119946972Y-100981147D01*
X119922266Y-100979896D01*
X119898205Y-100977811D01*
X119874789Y-100974892D01*
X119852018Y-100971139D01*
X119829892Y-100966552D01*
X119808411Y-100961132D01*
X119787574Y-100954877D01*
X119767383Y-100947789D01*
X119747837Y-100939867D01*
X119728935Y-100931112D01*
X119710679Y-100921523D01*
X119693067Y-100911100D01*
X119676100Y-100899844D01*
X119659779Y-100887754D01*
X119644102Y-100874831D01*
X119628984Y-100860947D01*
X119614842Y-100846481D01*
X119601675Y-100831434D01*
X119589483Y-100815805D01*
X119578266Y-100799594D01*
X119568025Y-100782801D01*
X119558760Y-100765427D01*
X119550469Y-100747470D01*
X119543154Y-100728932D01*
X119536815Y-100709811D01*
X119531450Y-100690108D01*
X119527061Y-100669824D01*
X119523648Y-100648957D01*
X119521209Y-100627508D01*
X119519746Y-100605476D01*
X119519259Y-100582863D01*
X119519432Y-100570142D01*
X119519951Y-100557658D01*
X119520816Y-100545409D01*
X119522027Y-100533397D01*
X119523585Y-100521621D01*
X119525488Y-100510081D01*
X119527738Y-100498777D01*
X119530333Y-100487709D01*
X119533275Y-100476877D01*
X119536563Y-100466281D01*
X119540197Y-100455920D01*
X119544177Y-100445796D01*
X119548503Y-100435907D01*
X119553175Y-100426254D01*
X119558193Y-100416837D01*
X119563558Y-100407656D01*
X119569182Y-100398699D01*
X119574979Y-100389946D01*
X119580949Y-100381398D01*
X119587092Y-100373054D01*
X119593408Y-100364914D01*
X119599897Y-100356978D01*
X119606560Y-100349246D01*
X119613395Y-100341718D01*
X119620404Y-100334395D01*
X119627585Y-100327277D01*
X119634939Y-100320362D01*
X119642467Y-100313652D01*
X119650167Y-100307147D01*
X119658041Y-100300846D01*
X119666088Y-100294750D01*
X119674307Y-100288858D01*
X119691234Y-100276530D01*
X119709798Y-100263697D01*
X119729997Y-100250358D01*
X119751832Y-100236514D01*
X119775304Y-100222165D01*
X119800411Y-100207311D01*
X119827154Y-100191954D01*
X119855534Y-100176093D01*
X119897819Y-100151936D01*
X119945895Y-100128030D01*
X119967478Y-100117019D01*
X119987426Y-100106636D01*
X120005738Y-100096882D01*
X120022413Y-100087758D01*
X120037453Y-100079263D01*
X120050857Y-100071397D01*
X120057047Y-100067361D01*
X120063033Y-100063309D01*
X120068814Y-100059242D01*
X120074391Y-100055159D01*
X120079763Y-100051061D01*
X120084931Y-100046947D01*
X120089894Y-100042817D01*
X120094652Y-100038671D01*
X120099207Y-100034510D01*
X120103556Y-100030333D01*
X120107702Y-100026139D01*
X120111642Y-100021930D01*
X120115379Y-100017705D01*
X120118911Y-100013464D01*
X120122238Y-100009207D01*
X120125361Y-100004934D01*
X120128287Y-100000610D01*
X120131024Y-99996191D01*
X120133572Y-99991678D01*
X120135932Y-99987070D01*
X120138103Y-99982367D01*
X120140085Y-99977569D01*
X120141879Y-99972677D01*
X120143484Y-99967690D01*
X120144900Y-99962609D01*
X120146127Y-99957433D01*
X120147165Y-99952163D01*
X120148015Y-99946798D01*
X120148676Y-99941338D01*
X120149148Y-99935785D01*
X120149431Y-99930137D01*
X120149525Y-99924395D01*
X120149368Y-99916208D01*
X120148896Y-99908257D01*
X120148109Y-99900541D01*
X120147008Y-99893062D01*
X120145592Y-99885818D01*
X120143862Y-99878810D01*
X120141816Y-99872038D01*
X120139457Y-99865502D01*
X120136782Y-99859201D01*
X120133793Y-99853137D01*
X120130489Y-99847309D01*
X120126871Y-99841717D01*
X120122938Y-99836361D01*
X120118690Y-99831241D01*
X120114128Y-99826357D01*
X120109250Y-99821710D01*
X120103847Y-99817077D01*
X120098208Y-99812743D01*
X120092332Y-99808708D01*
X120086220Y-99804972D01*
X120079873Y-99801534D01*
X120073289Y-99798396D01*
X120066470Y-99795556D01*
X120059414Y-99793016D01*
X120052122Y-99790774D01*
X120044595Y-99788831D01*
X120036831Y-99787187D01*
X120028832Y-99785842D01*
X120020596Y-99784796D01*
X120012125Y-99784049D01*
X120003417Y-99783600D01*
X119994474Y-99783451D01*
X119983793Y-99783640D01*
X119973394Y-99784206D01*
X119963279Y-99785150D01*
X119953446Y-99786472D01*
X119943897Y-99788171D01*
X119934631Y-99790247D01*
X119925649Y-99792701D01*
X119916949Y-99795533D01*
X119908533Y-99798741D01*
X119900399Y-99802327D01*
X119892549Y-99806290D01*
X119884982Y-99810631D01*
X119877699Y-99815348D01*
X119870698Y-99820443D01*
X119863981Y-99825915D01*
X119857547Y-99831764D01*
X119851451Y-99837901D01*
X119845749Y-99844226D01*
X119840439Y-99850740D01*
X119835523Y-99857442D01*
X119831001Y-99864333D01*
X119826871Y-99871413D01*
X119823135Y-99878682D01*
X119819792Y-99886139D01*
X119816843Y-99893785D01*
X119814286Y-99901620D01*
X119812123Y-99909644D01*
X119810354Y-99917857D01*
X119808977Y-99926259D01*
X119807994Y-99934850D01*
X119807404Y-99943630D01*
X119807207Y-99952599D01*
X119807207Y-99988821D01*
X119807184Y-99990073D01*
X119807113Y-99991309D01*
X119806995Y-99992528D01*
X119806830Y-99993732D01*
X119806618Y-99994920D01*
X119806358Y-99996092D01*
X119806051Y-99997248D01*
X119805697Y-99998389D01*
X119805296Y-99999513D01*
X119804848Y-100000622D01*
X119804352Y-100001715D01*
X119803810Y-100002792D01*
X119803220Y-100003853D01*
X119802583Y-100004899D01*
X119801898Y-100005930D01*
X119801167Y-100006945D01*
X119800152Y-100007680D01*
X119799121Y-100008367D01*
X119798075Y-100009007D01*
X119797013Y-100009599D01*
X119795935Y-100010144D01*
X119794842Y-100010641D01*
X119793733Y-100011090D01*
X119792608Y-100011492D01*
X119791467Y-100011847D01*
X119790311Y-100012154D01*
X119789139Y-100012413D01*
X119787951Y-100012626D01*
X119786748Y-100012791D01*
X119785529Y-100012909D01*
X119784294Y-100012980D01*
X119783043Y-100013003D01*
X119551477Y-100013003D01*
X119550234Y-100012980D01*
X119549023Y-100012909D01*
X119547843Y-100012791D01*
X119546694Y-100012626D01*
X119545577Y-100012413D01*
X119544492Y-100012154D01*
X119543437Y-100011847D01*
X119542415Y-100011492D01*
X119541424Y-100011090D01*
X119540464Y-100010641D01*
X119539536Y-100010144D01*
X119538639Y-100009599D01*
X119537774Y-100009007D01*
X119536940Y-100008367D01*
X119536137Y-100007680D01*
X119535367Y-100006945D01*
X119534391Y-100005930D01*
X119533479Y-100004899D01*
X119532630Y-100003853D01*
X119531843Y-100002792D01*
X119531120Y-100001715D01*
X119530459Y-100000622D01*
X119529861Y-99999513D01*
X119529327Y-99998389D01*
X119528855Y-99997248D01*
X119528446Y-99996092D01*
X119528099Y-99994920D01*
X119527816Y-99993732D01*
X119527596Y-99992528D01*
X119527439Y-99991309D01*
X119527344Y-99990073D01*
X119527313Y-99988821D01*
X119527313Y-99948551D01*
X119527541Y-99933560D01*
X119528225Y-99918789D01*
X119529366Y-99904238D01*
X119530962Y-99889908D01*
X119533015Y-99875797D01*
X119535525Y-99861907D01*
X119538490Y-99848237D01*
X119541911Y-99834787D01*
X119545789Y-99821557D01*
X119550123Y-99808547D01*
X119554913Y-99795758D01*
X119560159Y-99783188D01*
X119565862Y-99770839D01*
X119572020Y-99758710D01*
X119578635Y-99746801D01*
X119585706Y-99735112D01*
X119593187Y-99723698D01*
X119601029Y-99712615D01*
X119609233Y-99701862D01*
X119617799Y-99691440D01*
X119626727Y-99681349D01*
X119636016Y-99671588D01*
X119645668Y-99662158D01*
X119655681Y-99653058D01*
X119666056Y-99644288D01*
X119676793Y-99635849D01*
X119687891Y-99627741D01*
X119699352Y-99619963D01*
X119711174Y-99612516D01*
X119723358Y-99605399D01*
X119735904Y-99598613D01*
X119748811Y-99592157D01*
X119762018Y-99585814D01*
X119775460Y-99579880D01*
X119789139Y-99574356D01*
X119803053Y-99569242D01*
X119817204Y-99564537D01*
X119831590Y-99560242D01*
X119846212Y-99556356D01*
X119861071Y-99552880D01*
X119876165Y-99549813D01*
X119891496Y-99547155D01*
X119907062Y-99544906D01*
X119922865Y-99543066D01*
X119938903Y-99541635D01*
X119955177Y-99540613D01*
X119971688Y-99540000D01*
X119988434Y-99539796D01*
X120004433Y-99539985D01*
G37*
G36*
X111191526Y-96899013D02*
G01*
X111193474Y-96899162D01*
X111195396Y-96899410D01*
X111197294Y-96899757D01*
X111199166Y-96900204D01*
X111201014Y-96900750D01*
X111202837Y-96901394D01*
X111204636Y-96902139D01*
X111206409Y-96902982D01*
X111208158Y-96903925D01*
X111209881Y-96904966D01*
X111211580Y-96906107D01*
X111213255Y-96907348D01*
X111214904Y-96908687D01*
X111216529Y-96910126D01*
X111218128Y-96911664D01*
X111219282Y-96912879D01*
X111220361Y-96914144D01*
X111221366Y-96915459D01*
X111222296Y-96916823D01*
X111223152Y-96918237D01*
X111223933Y-96919700D01*
X111224640Y-96921213D01*
X111225273Y-96922776D01*
X111225831Y-96924388D01*
X111226315Y-96926050D01*
X111226724Y-96927762D01*
X111227059Y-96929523D01*
X111227320Y-96931334D01*
X111227506Y-96933194D01*
X111227617Y-96935104D01*
X111227655Y-96937064D01*
X111224479Y-98127688D01*
X111224504Y-98129239D01*
X111224578Y-98130715D01*
X111224702Y-98132116D01*
X111224876Y-98133443D01*
X111224981Y-98134079D01*
X111225099Y-98134696D01*
X111225229Y-98135294D01*
X111225372Y-98135874D01*
X111225527Y-98136435D01*
X111225694Y-98136978D01*
X111225874Y-98137502D01*
X111226066Y-98138007D01*
X111226271Y-98138494D01*
X111226488Y-98138962D01*
X111226718Y-98139412D01*
X111226959Y-98139843D01*
X111227214Y-98140255D01*
X111227480Y-98140649D01*
X111227759Y-98141024D01*
X111228051Y-98141381D01*
X111228355Y-98141719D01*
X111228671Y-98142038D01*
X111228999Y-98142339D01*
X111229340Y-98142621D01*
X111229694Y-98142885D01*
X111230060Y-98143130D01*
X111230438Y-98143356D01*
X111230828Y-98143564D01*
X111231622Y-98143526D01*
X111232416Y-98143415D01*
X111233210Y-98143229D01*
X111234004Y-98142968D01*
X111234798Y-98142633D01*
X111235592Y-98142224D01*
X111236385Y-98141741D01*
X111237179Y-98141182D01*
X111237973Y-98140550D01*
X111238767Y-98139843D01*
X111239560Y-98139062D01*
X111240354Y-98138206D01*
X111241148Y-98137276D01*
X111241941Y-98136271D01*
X111242735Y-98135192D01*
X111243528Y-98134038D01*
X111970604Y-96924364D01*
X111972266Y-96921288D01*
X111974077Y-96918410D01*
X111976036Y-96915732D01*
X111978145Y-96913251D01*
X111980402Y-96910969D01*
X111982808Y-96908885D01*
X111985363Y-96907000D01*
X111988067Y-96905314D01*
X111990919Y-96903825D01*
X111993921Y-96902535D01*
X111997071Y-96901444D01*
X112000370Y-96900551D01*
X112003818Y-96899857D01*
X112007414Y-96899360D01*
X112011160Y-96899063D01*
X112015054Y-96898964D01*
X112450029Y-96898964D01*
X112452001Y-96899013D01*
X112453948Y-96899162D01*
X112455871Y-96899410D01*
X112457768Y-96899757D01*
X112459641Y-96900204D01*
X112461489Y-96900750D01*
X112463312Y-96901394D01*
X112465110Y-96902139D01*
X112466884Y-96902982D01*
X112468633Y-96903925D01*
X112470356Y-96904966D01*
X112472055Y-96906107D01*
X112473730Y-96907348D01*
X112475379Y-96908687D01*
X112477004Y-96910126D01*
X112478603Y-96911664D01*
X112479757Y-96912879D01*
X112480836Y-96914144D01*
X112481841Y-96915459D01*
X112482771Y-96916823D01*
X112483627Y-96918237D01*
X112484408Y-96919700D01*
X112485115Y-96921213D01*
X112485748Y-96922776D01*
X112486306Y-96924388D01*
X112486790Y-96926050D01*
X112487199Y-96927762D01*
X112487534Y-96929523D01*
X112487795Y-96931334D01*
X112487981Y-96933194D01*
X112488092Y-96935104D01*
X112488130Y-96937064D01*
X112488130Y-99083364D01*
X112488092Y-99085336D01*
X112487981Y-99087283D01*
X112487795Y-99089205D01*
X112487534Y-99091103D01*
X112487199Y-99092975D01*
X112486790Y-99094823D01*
X112486306Y-99096647D01*
X112485748Y-99098445D01*
X112485115Y-99100218D01*
X112484408Y-99101967D01*
X112483627Y-99103691D01*
X112482771Y-99105390D01*
X112481841Y-99107064D01*
X112480836Y-99108714D01*
X112479757Y-99110339D01*
X112478603Y-99111939D01*
X112477004Y-99113092D01*
X112475379Y-99114171D01*
X112473730Y-99115176D01*
X112472055Y-99116106D01*
X112470356Y-99116962D01*
X112468633Y-99117743D01*
X112466884Y-99118450D01*
X112465110Y-99119082D01*
X112463312Y-99119641D01*
X112461489Y-99120124D01*
X112459641Y-99120534D01*
X112457768Y-99120868D01*
X112455871Y-99121129D01*
X112453948Y-99121315D01*
X112452001Y-99121427D01*
X112450029Y-99121464D01*
X111999180Y-99121464D01*
X111997220Y-99121427D01*
X111995310Y-99121315D01*
X111993450Y-99121129D01*
X111991639Y-99120868D01*
X111989878Y-99120534D01*
X111988166Y-99120124D01*
X111986504Y-99119641D01*
X111984892Y-99119082D01*
X111983329Y-99118450D01*
X111981816Y-99117743D01*
X111980353Y-99116962D01*
X111978939Y-99116106D01*
X111977575Y-99115176D01*
X111976260Y-99114171D01*
X111974995Y-99113092D01*
X111973780Y-99111939D01*
X111972242Y-99110339D01*
X111970803Y-99108714D01*
X111969463Y-99107064D01*
X111968223Y-99105390D01*
X111967082Y-99103691D01*
X111966040Y-99101967D01*
X111965098Y-99100218D01*
X111964254Y-99098445D01*
X111963510Y-99096647D01*
X111962865Y-99094823D01*
X111962320Y-99092975D01*
X111961873Y-99091103D01*
X111961526Y-99089205D01*
X111961278Y-99087283D01*
X111961129Y-99085336D01*
X111961080Y-99083364D01*
X111964254Y-97889564D01*
X111964248Y-97888782D01*
X111964230Y-97888026D01*
X111964199Y-97887294D01*
X111964155Y-97886587D01*
X111964099Y-97885905D01*
X111964031Y-97885248D01*
X111963951Y-97884615D01*
X111963857Y-97884007D01*
X111963752Y-97883424D01*
X111963634Y-97882866D01*
X111963504Y-97882333D01*
X111963361Y-97881824D01*
X111963206Y-97881341D01*
X111963039Y-97880882D01*
X111962859Y-97880448D01*
X111962667Y-97880039D01*
X111962462Y-97879654D01*
X111962245Y-97879294D01*
X111962016Y-97878960D01*
X111961774Y-97878649D01*
X111961519Y-97878364D01*
X111961253Y-97878104D01*
X111960974Y-97877868D01*
X111960682Y-97877657D01*
X111960378Y-97877471D01*
X111960062Y-97877310D01*
X111959733Y-97877174D01*
X111959392Y-97877062D01*
X111959039Y-97876975D01*
X111958673Y-97876913D01*
X111958295Y-97876876D01*
X111957904Y-97876864D01*
X111957507Y-97876677D01*
X111957110Y-97876516D01*
X111956713Y-97876380D01*
X111956316Y-97876268D01*
X111955920Y-97876181D01*
X111955523Y-97876119D01*
X111955126Y-97876082D01*
X111954729Y-97876070D01*
X111954332Y-97876082D01*
X111953935Y-97876119D01*
X111953538Y-97876181D01*
X111953141Y-97876268D01*
X111952745Y-97876380D01*
X111952348Y-97876516D01*
X111951951Y-97876677D01*
X111951554Y-97876864D01*
X111951157Y-97877074D01*
X111950760Y-97877310D01*
X111950363Y-97877570D01*
X111949966Y-97877856D01*
X111949569Y-97878166D01*
X111949173Y-97878501D01*
X111948776Y-97878860D01*
X111948379Y-97879245D01*
X111947982Y-97879654D01*
X111947585Y-97880088D01*
X111946791Y-97881031D01*
X111945998Y-97882073D01*
X111945204Y-97883214D01*
X111214954Y-99096063D01*
X111213293Y-99099139D01*
X111211482Y-99102016D01*
X111209522Y-99104695D01*
X111207414Y-99107176D01*
X111205156Y-99109458D01*
X111202750Y-99111542D01*
X111200195Y-99113427D01*
X111197492Y-99115114D01*
X111194639Y-99116602D01*
X111191638Y-99117892D01*
X111188488Y-99118983D01*
X111185189Y-99119876D01*
X111181741Y-99120571D01*
X111178144Y-99121067D01*
X111174399Y-99121364D01*
X111170505Y-99121464D01*
X110738705Y-99121464D01*
X110736745Y-99121427D01*
X110734835Y-99121315D01*
X110732975Y-99121129D01*
X110731164Y-99120868D01*
X110729403Y-99120534D01*
X110727691Y-99120124D01*
X110726029Y-99119641D01*
X110724417Y-99119082D01*
X110722854Y-99118450D01*
X110721341Y-99117743D01*
X110719878Y-99116962D01*
X110718464Y-99116106D01*
X110717100Y-99115176D01*
X110715785Y-99114171D01*
X110714520Y-99113092D01*
X110713305Y-99111939D01*
X110711767Y-99110339D01*
X110710328Y-99108714D01*
X110708988Y-99107064D01*
X110707748Y-99105390D01*
X110706607Y-99103691D01*
X110705565Y-99101967D01*
X110704622Y-99100218D01*
X110703779Y-99098445D01*
X110703035Y-99096647D01*
X110702390Y-99094823D01*
X110701845Y-99092975D01*
X110701398Y-99091103D01*
X110701051Y-99089205D01*
X110700803Y-99087283D01*
X110700654Y-99085336D01*
X110700605Y-99083364D01*
X110700605Y-96937064D01*
X110700654Y-96935104D01*
X110700803Y-96933194D01*
X110701051Y-96931334D01*
X110701398Y-96929523D01*
X110701845Y-96927762D01*
X110702390Y-96926050D01*
X110703035Y-96924388D01*
X110703779Y-96922776D01*
X110704622Y-96921213D01*
X110705565Y-96919700D01*
X110706607Y-96918237D01*
X110707748Y-96916823D01*
X110708988Y-96915459D01*
X110710328Y-96914144D01*
X110711767Y-96912879D01*
X110713305Y-96911664D01*
X110714520Y-96910126D01*
X110715785Y-96908687D01*
X110717100Y-96907348D01*
X110718464Y-96906107D01*
X110719878Y-96904966D01*
X110721341Y-96903925D01*
X110722854Y-96902982D01*
X110724417Y-96902139D01*
X110726029Y-96901394D01*
X110727691Y-96900750D01*
X110729403Y-96900204D01*
X110731164Y-96899757D01*
X110732975Y-96899410D01*
X110734835Y-96899162D01*
X110736745Y-96899013D01*
X110738705Y-96898964D01*
X111189554Y-96898964D01*
X111191526Y-96899013D01*
G37*
G36*
X114610965Y-98487964D02*
G01*
X114611886Y-98528797D01*
X114611109Y-98566847D01*
X114608778Y-98603740D01*
X114604893Y-98639476D01*
X114599453Y-98674054D01*
X114592459Y-98707474D01*
X114583911Y-98739737D01*
X114573808Y-98770842D01*
X114562151Y-98800789D01*
X114548939Y-98829579D01*
X114534173Y-98857211D01*
X114517851Y-98883686D01*
X114499975Y-98909004D01*
X114480544Y-98933163D01*
X114459558Y-98956165D01*
X114437017Y-98978010D01*
X114412920Y-98998697D01*
X114386991Y-99017666D01*
X114360004Y-99035410D01*
X114331959Y-99051931D01*
X114302856Y-99067228D01*
X114272694Y-99081300D01*
X114241474Y-99094149D01*
X114209196Y-99105774D01*
X114175860Y-99116175D01*
X114141465Y-99125352D01*
X114106011Y-99133306D01*
X114069498Y-99140036D01*
X114031927Y-99145542D01*
X113993297Y-99149824D01*
X113953608Y-99152883D01*
X113912860Y-99154718D01*
X113871053Y-99155330D01*
X113823328Y-99154404D01*
X113777506Y-99151626D01*
X113733570Y-99146995D01*
X113691503Y-99140512D01*
X113651288Y-99132177D01*
X113612910Y-99121990D01*
X113594404Y-99116202D01*
X113576350Y-99109951D01*
X113558748Y-99103237D01*
X113541594Y-99096060D01*
X113524886Y-99088420D01*
X113508623Y-99080317D01*
X113492802Y-99071751D01*
X113477422Y-99062722D01*
X113462479Y-99053230D01*
X113447973Y-99043275D01*
X113433900Y-99032857D01*
X113420260Y-99021976D01*
X113407049Y-99010633D01*
X113394266Y-98998826D01*
X113381909Y-98986556D01*
X113369975Y-98973823D01*
X113358463Y-98960628D01*
X113347370Y-98946969D01*
X113336695Y-98932848D01*
X113326435Y-98918263D01*
X113325378Y-98916229D01*
X113324320Y-98914361D01*
X113323262Y-98912657D01*
X113322733Y-98911868D01*
X113322204Y-98911119D01*
X113321674Y-98910412D01*
X113321145Y-98909747D01*
X113320616Y-98909122D01*
X113320086Y-98908539D01*
X113319557Y-98907998D01*
X113319027Y-98907498D01*
X113318498Y-98907039D01*
X113317968Y-98906621D01*
X113317438Y-98906245D01*
X113316909Y-98905910D01*
X113316379Y-98905617D01*
X113315850Y-98905364D01*
X113315320Y-98905154D01*
X113314791Y-98904984D01*
X113314262Y-98904856D01*
X113313732Y-98904769D01*
X113313203Y-98904724D01*
X113312674Y-98904720D01*
X113312145Y-98904757D01*
X113311616Y-98904836D01*
X113311087Y-98904956D01*
X113310559Y-98905117D01*
X113310030Y-98905320D01*
X113309502Y-98905564D01*
X113308982Y-98905580D01*
X113308478Y-98905630D01*
X113307991Y-98905712D01*
X113307520Y-98905828D01*
X113307065Y-98905977D01*
X113306628Y-98906159D01*
X113306206Y-98906374D01*
X113305801Y-98906622D01*
X113305413Y-98906903D01*
X113305041Y-98907217D01*
X113304685Y-98907564D01*
X113304346Y-98907945D01*
X113303718Y-98908804D01*
X113303155Y-98909797D01*
X113302658Y-98910921D01*
X113302228Y-98912178D01*
X113301864Y-98913567D01*
X113301565Y-98915088D01*
X113301333Y-98916742D01*
X113301168Y-98918528D01*
X113301068Y-98920446D01*
X113301035Y-98922497D01*
X113301035Y-99070663D01*
X113300985Y-99073291D01*
X113300837Y-99075886D01*
X113300589Y-99078448D01*
X113300241Y-99080977D01*
X113299795Y-99083474D01*
X113299249Y-99085937D01*
X113298604Y-99088368D01*
X113297860Y-99090765D01*
X113297017Y-99093130D01*
X113296074Y-99095462D01*
X113295032Y-99097761D01*
X113293891Y-99100027D01*
X113292651Y-99102261D01*
X113291311Y-99104461D01*
X113289873Y-99106629D01*
X113288335Y-99108764D01*
X113286200Y-99110301D01*
X113284033Y-99111740D01*
X113281832Y-99113080D01*
X113279599Y-99114320D01*
X113277332Y-99115461D01*
X113275033Y-99116503D01*
X113272701Y-99117445D01*
X113270337Y-99118289D01*
X113267939Y-99119033D01*
X113265508Y-99119678D01*
X113263045Y-99120223D01*
X113260549Y-99120670D01*
X113258019Y-99121017D01*
X113255457Y-99121265D01*
X113252862Y-99121414D01*
X113250235Y-99121464D01*
X112864499Y-99121464D01*
X112861888Y-99121414D01*
X112859342Y-99121265D01*
X112856862Y-99121017D01*
X112854448Y-99120670D01*
X112852100Y-99120223D01*
X112849818Y-99119678D01*
X112847602Y-99119033D01*
X112845452Y-99118289D01*
X112843368Y-99117445D01*
X112841350Y-99116503D01*
X112839398Y-99115461D01*
X112837513Y-99114320D01*
X112835693Y-99113080D01*
X112833940Y-99111740D01*
X112832253Y-99110301D01*
X112830632Y-99108764D01*
X112828585Y-99106629D01*
X112826669Y-99104461D01*
X112824884Y-99102261D01*
X112823231Y-99100027D01*
X112821710Y-99097761D01*
X112820321Y-99095462D01*
X112819064Y-99093130D01*
X112817939Y-99090765D01*
X112816946Y-99088368D01*
X112816085Y-99085937D01*
X112815356Y-99083474D01*
X112814760Y-99080977D01*
X112814296Y-99078448D01*
X112813964Y-99075886D01*
X112813765Y-99073291D01*
X112813699Y-99070663D01*
X112813699Y-98350997D01*
X113377817Y-98350997D01*
X113378170Y-98368153D01*
X113379274Y-98385710D01*
X113381193Y-98403598D01*
X113383990Y-98421749D01*
X113387731Y-98440093D01*
X113392480Y-98458561D01*
X113398300Y-98477085D01*
X113405257Y-98495595D01*
X113413415Y-98514022D01*
X113422839Y-98532297D01*
X113433591Y-98550352D01*
X113445738Y-98568117D01*
X113459344Y-98585524D01*
X113474471Y-98602502D01*
X113491186Y-98618984D01*
X113500159Y-98627017D01*
X113509553Y-98634900D01*
X113528231Y-98649628D01*
X113545970Y-98662658D01*
X113562969Y-98674093D01*
X113579429Y-98684038D01*
X113595549Y-98692594D01*
X113611529Y-98699865D01*
X113627567Y-98705955D01*
X113643865Y-98710965D01*
X113660622Y-98715000D01*
X113678036Y-98718163D01*
X113696309Y-98720556D01*
X113715639Y-98722283D01*
X113736226Y-98723446D01*
X113758270Y-98724150D01*
X113807527Y-98724589D01*
X113833407Y-98724161D01*
X113857964Y-98722898D01*
X113881227Y-98720832D01*
X113903221Y-98717993D01*
X113923977Y-98714411D01*
X113943520Y-98710119D01*
X113961879Y-98705147D01*
X113979082Y-98699526D01*
X113995157Y-98693286D01*
X114010130Y-98686459D01*
X114024031Y-98679076D01*
X114036885Y-98671168D01*
X114048723Y-98662765D01*
X114059570Y-98653899D01*
X114069456Y-98644600D01*
X114078407Y-98634900D01*
X114086577Y-98624898D01*
X114094110Y-98614682D01*
X114101021Y-98604268D01*
X114107327Y-98593669D01*
X114113041Y-98582902D01*
X114118179Y-98571981D01*
X114122755Y-98560921D01*
X114126786Y-98549737D01*
X114130286Y-98538443D01*
X114133271Y-98527054D01*
X114135754Y-98515586D01*
X114137752Y-98504053D01*
X114139280Y-98492469D01*
X114140353Y-98480851D01*
X114140986Y-98469212D01*
X114141193Y-98457568D01*
X114140793Y-98443475D01*
X114139565Y-98428805D01*
X114137463Y-98413702D01*
X114134442Y-98398310D01*
X114130460Y-98382770D01*
X114125470Y-98367226D01*
X114119428Y-98351820D01*
X114115999Y-98344214D01*
X114112290Y-98336697D01*
X114108297Y-98329285D01*
X114104012Y-98321998D01*
X114099431Y-98314852D01*
X114094548Y-98307866D01*
X114089358Y-98301058D01*
X114083855Y-98294445D01*
X114078033Y-98288046D01*
X114071887Y-98281877D01*
X114065412Y-98275958D01*
X114058601Y-98270306D01*
X114051449Y-98264939D01*
X114043951Y-98259874D01*
X114036101Y-98255130D01*
X114027893Y-98250724D01*
X114019322Y-98246675D01*
X114010383Y-98242999D01*
X113991122Y-98236538D01*
X113969958Y-98231035D01*
X113947063Y-98226415D01*
X113922610Y-98222604D01*
X113896771Y-98219526D01*
X113869720Y-98217107D01*
X113812669Y-98213949D01*
X113752839Y-98212532D01*
X113691611Y-98212259D01*
X113570487Y-98212757D01*
X113398984Y-98212757D01*
X113397682Y-98212778D01*
X113396422Y-98212840D01*
X113395203Y-98212943D01*
X113394025Y-98213088D01*
X113392889Y-98213274D01*
X113391794Y-98213502D01*
X113390740Y-98213770D01*
X113389727Y-98214080D01*
X113388756Y-98214432D01*
X113387825Y-98214825D01*
X113386937Y-98215259D01*
X113386089Y-98215734D01*
X113385283Y-98216251D01*
X113384518Y-98216809D01*
X113383794Y-98217409D01*
X113383112Y-98218049D01*
X113382471Y-98218732D01*
X113381871Y-98219455D01*
X113381313Y-98220220D01*
X113380796Y-98221026D01*
X113380320Y-98221874D01*
X113379886Y-98222762D01*
X113379493Y-98223693D01*
X113379141Y-98224664D01*
X113378831Y-98225677D01*
X113378562Y-98226731D01*
X113378334Y-98227827D01*
X113378148Y-98228963D01*
X113378003Y-98230142D01*
X113377900Y-98231361D01*
X113377837Y-98232622D01*
X113377817Y-98233924D01*
X113377817Y-98350997D01*
X112813699Y-98350997D01*
X112813699Y-97627097D01*
X112814050Y-97601417D01*
X112815132Y-97575252D01*
X112816986Y-97548714D01*
X112819655Y-97521914D01*
X112823180Y-97494965D01*
X112827604Y-97467978D01*
X112832969Y-97441065D01*
X112839317Y-97414338D01*
X112846690Y-97387908D01*
X112855131Y-97361888D01*
X112864680Y-97336389D01*
X112875381Y-97311523D01*
X112887275Y-97287403D01*
X112900404Y-97264139D01*
X112914811Y-97241843D01*
X112930538Y-97220628D01*
X112946736Y-97200088D01*
X112962586Y-97180747D01*
X112978186Y-97162527D01*
X112993635Y-97145349D01*
X113009034Y-97129132D01*
X113024482Y-97113798D01*
X113040078Y-97099267D01*
X113055921Y-97085459D01*
X113072112Y-97072297D01*
X113088748Y-97059699D01*
X113105931Y-97047587D01*
X113123759Y-97035881D01*
X113142331Y-97024503D01*
X113161747Y-97013372D01*
X113182107Y-97002410D01*
X113203509Y-96991536D01*
X113225936Y-96980955D01*
X113249258Y-96970936D01*
X113273412Y-96961494D01*
X113298336Y-96952647D01*
X113323965Y-96944411D01*
X113350237Y-96936803D01*
X113377088Y-96929840D01*
X113404454Y-96923539D01*
X113432272Y-96917916D01*
X113460479Y-96912989D01*
X113489011Y-96908773D01*
X113517805Y-96905286D01*
X113546797Y-96902545D01*
X113575924Y-96900567D01*
X113605123Y-96899367D01*
X113634330Y-96898964D01*
X113689931Y-96899117D01*
X113740924Y-96900027D01*
X113788705Y-96902368D01*
X113811828Y-96904285D01*
X113834673Y-96906812D01*
X113857413Y-96910035D01*
X113880224Y-96914035D01*
X113903280Y-96918899D01*
X113926755Y-96924710D01*
X113950825Y-96931553D01*
X113975664Y-96939511D01*
X114001447Y-96948669D01*
X114028348Y-96959111D01*
X114054657Y-96969746D01*
X114079648Y-96980498D01*
X114103381Y-96991386D01*
X114125915Y-97002431D01*
X114147311Y-97013652D01*
X114167626Y-97025070D01*
X114186923Y-97036703D01*
X114205258Y-97048573D01*
X114222693Y-97060698D01*
X114239287Y-97073098D01*
X114255100Y-97085795D01*
X114270190Y-97098806D01*
X114284618Y-97112153D01*
X114298443Y-97125855D01*
X114311725Y-97139932D01*
X114324523Y-97154403D01*
X114354992Y-97191119D01*
X114369222Y-97209326D01*
X114382741Y-97227517D01*
X114395521Y-97245754D01*
X114407530Y-97264101D01*
X114418740Y-97282619D01*
X114429119Y-97301372D01*
X114438638Y-97320423D01*
X114447267Y-97339834D01*
X114454976Y-97359668D01*
X114461734Y-97379989D01*
X114467513Y-97400858D01*
X114472282Y-97422340D01*
X114476010Y-97444496D01*
X114478669Y-97467389D01*
X114478470Y-97471011D01*
X114478222Y-97472760D01*
X114477875Y-97474467D01*
X114477429Y-97476133D01*
X114476883Y-97477758D01*
X114476238Y-97479341D01*
X114475494Y-97480883D01*
X114474650Y-97482384D01*
X114473708Y-97483844D01*
X114472666Y-97485262D01*
X114471525Y-97486638D01*
X114468945Y-97489268D01*
X114465969Y-97491732D01*
X114462595Y-97494030D01*
X114458825Y-97496163D01*
X114454658Y-97498131D01*
X114450094Y-97499933D01*
X114445133Y-97501570D01*
X114439775Y-97503042D01*
X114434020Y-97504348D01*
X114427869Y-97505489D01*
X114269582Y-97538827D01*
X114155402Y-97562342D01*
X114092245Y-97574281D01*
X114089871Y-97574436D01*
X114087515Y-97574381D01*
X114085179Y-97574129D01*
X114082869Y-97573694D01*
X114080587Y-97573088D01*
X114078337Y-97572327D01*
X114076124Y-97571423D01*
X114073952Y-97570389D01*
X114071823Y-97569239D01*
X114069742Y-97567987D01*
X114067712Y-97566646D01*
X114065738Y-97565229D01*
X114063823Y-97563750D01*
X114061971Y-97562222D01*
X114058471Y-97559074D01*
X114055269Y-97555894D01*
X114052395Y-97552788D01*
X114049879Y-97549864D01*
X114047753Y-97547230D01*
X114044789Y-97543264D01*
X114043747Y-97541750D01*
X114035601Y-97528548D01*
X114025518Y-97513838D01*
X114019003Y-97504977D01*
X114011517Y-97495313D01*
X114003069Y-97484994D01*
X113993666Y-97474169D01*
X113983317Y-97462988D01*
X113972030Y-97451599D01*
X113959814Y-97440154D01*
X113946677Y-97428800D01*
X113932627Y-97417686D01*
X113917673Y-97406964D01*
X113887930Y-97387487D01*
X113873622Y-97378867D01*
X113859479Y-97371000D01*
X113845343Y-97363892D01*
X113831059Y-97357547D01*
X113816467Y-97351972D01*
X113801411Y-97347172D01*
X113785734Y-97343152D01*
X113769277Y-97339919D01*
X113751884Y-97337477D01*
X113733397Y-97335833D01*
X113713659Y-97334991D01*
X113692512Y-97334958D01*
X113669800Y-97335738D01*
X113645363Y-97337338D01*
X113632905Y-97338468D01*
X113620874Y-97339839D01*
X113609257Y-97341443D01*
X113598043Y-97343269D01*
X113587219Y-97345308D01*
X113576774Y-97347552D01*
X113566695Y-97349990D01*
X113556972Y-97352613D01*
X113547591Y-97355413D01*
X113538541Y-97358378D01*
X113529811Y-97361501D01*
X113521387Y-97364772D01*
X113513258Y-97368181D01*
X113505412Y-97371719D01*
X113490523Y-97379144D01*
X113476622Y-97386973D01*
X113463615Y-97395130D01*
X113451406Y-97403541D01*
X113439899Y-97412130D01*
X113428999Y-97420822D01*
X113418610Y-97429543D01*
X113398984Y-97446770D01*
X113389512Y-97455473D01*
X113380190Y-97465608D01*
X113371080Y-97477027D01*
X113362248Y-97489584D01*
X113353756Y-97503128D01*
X113345668Y-97517514D01*
X113338048Y-97532592D01*
X113330959Y-97548216D01*
X113324466Y-97564236D01*
X113318632Y-97580505D01*
X113313521Y-97596875D01*
X113309196Y-97613198D01*
X113305721Y-97629327D01*
X113303160Y-97645112D01*
X113301577Y-97660407D01*
X113301035Y-97675063D01*
X113301035Y-97760701D01*
X113301056Y-97762003D01*
X113301118Y-97763264D01*
X113301221Y-97764483D01*
X113301366Y-97765662D01*
X113301552Y-97766799D01*
X113301780Y-97767894D01*
X113302049Y-97768948D01*
X113302359Y-97769961D01*
X113302711Y-97770933D01*
X113303104Y-97771863D01*
X113303538Y-97772752D01*
X113304014Y-97773599D01*
X113304531Y-97774405D01*
X113305089Y-97775170D01*
X113305689Y-97775893D01*
X113306330Y-97776576D01*
X113307012Y-97777216D01*
X113307736Y-97777816D01*
X113308501Y-97778374D01*
X113309307Y-97778891D01*
X113310154Y-97779366D01*
X113311043Y-97779800D01*
X113311973Y-97780193D01*
X113312945Y-97780545D01*
X113313957Y-97780855D01*
X113315011Y-97781123D01*
X113316107Y-97781351D01*
X113317243Y-97781537D01*
X113318421Y-97781682D01*
X113319640Y-97781785D01*
X113320900Y-97781847D01*
X113322202Y-97781868D01*
X113727120Y-97781868D01*
X113780256Y-97782631D01*
X113831723Y-97784908D01*
X113881532Y-97788681D01*
X113929695Y-97793933D01*
X113976224Y-97800645D01*
X114021130Y-97808799D01*
X114064426Y-97818379D01*
X114106122Y-97829366D01*
X114146231Y-97841741D01*
X114184764Y-97855488D01*
X114221732Y-97870588D01*
X114257149Y-97887024D01*
X114291024Y-97904777D01*
X114323371Y-97923830D01*
X114354201Y-97944165D01*
X114383524Y-97965764D01*
X114410742Y-97989233D01*
X114436287Y-98015075D01*
X114460149Y-98043117D01*
X114482317Y-98073185D01*
X114502777Y-98105104D01*
X114521520Y-98138702D01*
X114538532Y-98173805D01*
X114553804Y-98210239D01*
X114567322Y-98247830D01*
X114579075Y-98286406D01*
X114589052Y-98325792D01*
X114597241Y-98365814D01*
X114603631Y-98406299D01*
X114608209Y-98447074D01*
X114608917Y-98457568D01*
X114610965Y-98487964D01*
G37*
G36*
X116533449Y-98651564D02*
G01*
X116533449Y-99083364D01*
X116533412Y-99085336D01*
X116533300Y-99087283D01*
X116533114Y-99089205D01*
X116532854Y-99091103D01*
X116532519Y-99092975D01*
X116532110Y-99094823D01*
X116531626Y-99096647D01*
X116531068Y-99098445D01*
X116530436Y-99100218D01*
X116529729Y-99101967D01*
X116528947Y-99103691D01*
X116528092Y-99105390D01*
X116527161Y-99107064D01*
X116526157Y-99108714D01*
X116525078Y-99110339D01*
X116523924Y-99111939D01*
X116522324Y-99113092D01*
X116520700Y-99114171D01*
X116519050Y-99115176D01*
X116517376Y-99116106D01*
X116515677Y-99116962D01*
X116513953Y-99117743D01*
X116512204Y-99118450D01*
X116510431Y-99119082D01*
X116508632Y-99119641D01*
X116506809Y-99120124D01*
X116504961Y-99120534D01*
X116503088Y-99120868D01*
X116501191Y-99121129D01*
X116499268Y-99121315D01*
X116497321Y-99121427D01*
X116495349Y-99121464D01*
X115650799Y-99121464D01*
X115606882Y-99120856D01*
X115564032Y-99119033D01*
X115522249Y-99115994D01*
X115481532Y-99111740D01*
X115441882Y-99106271D01*
X115403298Y-99099586D01*
X115365781Y-99091686D01*
X115329330Y-99082570D01*
X115293947Y-99072239D01*
X115259629Y-99060692D01*
X115226379Y-99047930D01*
X115194195Y-99033953D01*
X115163077Y-99018760D01*
X115133026Y-99002351D01*
X115104042Y-98984728D01*
X115076124Y-98965888D01*
X115049596Y-98945809D01*
X115024779Y-98924465D01*
X115001673Y-98901855D01*
X114980279Y-98877981D01*
X114960596Y-98852841D01*
X114942625Y-98826437D01*
X114926366Y-98798767D01*
X114911818Y-98769832D01*
X114898981Y-98739633D01*
X114887857Y-98708168D01*
X114878443Y-98675438D01*
X114870741Y-98641443D01*
X114864751Y-98606183D01*
X114860472Y-98569658D01*
X114857905Y-98531869D01*
X114857049Y-98492814D01*
X114858178Y-98449157D01*
X114858863Y-98438838D01*
X115384099Y-98438838D01*
X115384372Y-98452531D01*
X115385190Y-98465826D01*
X115386555Y-98478724D01*
X115388465Y-98491226D01*
X115390920Y-98503331D01*
X115393922Y-98515039D01*
X115397469Y-98526349D01*
X115401562Y-98537264D01*
X115406200Y-98547781D01*
X115411384Y-98557901D01*
X115417114Y-98567624D01*
X115423390Y-98576951D01*
X115430211Y-98585881D01*
X115437578Y-98594414D01*
X115445491Y-98602549D01*
X115453949Y-98610289D01*
X115462904Y-98617209D01*
X115472305Y-98623683D01*
X115482152Y-98629711D01*
X115492446Y-98635292D01*
X115503187Y-98640426D01*
X115514373Y-98645114D01*
X115526007Y-98649356D01*
X115538087Y-98653151D01*
X115550613Y-98656500D01*
X115563586Y-98659402D01*
X115577005Y-98661857D01*
X115590871Y-98663867D01*
X115605183Y-98665429D01*
X115619942Y-98666545D01*
X115635147Y-98667215D01*
X115650799Y-98667438D01*
X115990524Y-98667438D01*
X115991501Y-98667423D01*
X115992446Y-98667376D01*
X115993361Y-98667299D01*
X115994245Y-98667190D01*
X115995097Y-98667051D01*
X115995919Y-98666880D01*
X115996710Y-98666679D01*
X115997470Y-98666446D01*
X115998198Y-98666183D01*
X115998896Y-98665888D01*
X115999563Y-98665563D01*
X116000198Y-98665206D01*
X116000803Y-98664819D01*
X116001376Y-98664400D01*
X116001919Y-98663950D01*
X116002431Y-98663470D01*
X116002911Y-98662958D01*
X116003361Y-98662416D01*
X116003780Y-98661842D01*
X116004167Y-98661237D01*
X116004524Y-98660602D01*
X116004849Y-98659935D01*
X116005144Y-98659238D01*
X116005407Y-98658509D01*
X116005640Y-98657749D01*
X116005842Y-98656959D01*
X116006012Y-98656137D01*
X116006152Y-98655284D01*
X116006260Y-98654401D01*
X116006338Y-98653486D01*
X116006384Y-98652540D01*
X116006400Y-98651564D01*
X116006400Y-98229289D01*
X116006384Y-98228312D01*
X116006338Y-98227366D01*
X116006260Y-98226452D01*
X116006152Y-98225568D01*
X116006012Y-98224715D01*
X116005842Y-98223894D01*
X116005640Y-98223103D01*
X116005407Y-98222343D01*
X116005144Y-98221615D01*
X116004849Y-98220917D01*
X116004524Y-98220250D01*
X116004167Y-98219615D01*
X116003780Y-98219010D01*
X116003361Y-98218437D01*
X116002911Y-98217894D01*
X116002431Y-98217382D01*
X116001919Y-98216902D01*
X116001376Y-98216452D01*
X116000803Y-98216034D01*
X116000198Y-98215646D01*
X115999563Y-98215289D01*
X115998896Y-98214964D01*
X115998198Y-98214669D01*
X115997470Y-98214406D01*
X115996710Y-98214173D01*
X115995919Y-98213972D01*
X115995097Y-98213801D01*
X115994245Y-98213662D01*
X115993361Y-98213553D01*
X115992446Y-98213476D01*
X115991501Y-98213429D01*
X115990524Y-98213414D01*
X115650799Y-98213414D01*
X115634775Y-98213649D01*
X115619247Y-98214356D01*
X115604216Y-98215534D01*
X115589680Y-98217184D01*
X115575641Y-98219305D01*
X115562098Y-98221897D01*
X115549050Y-98224960D01*
X115536499Y-98228495D01*
X115524444Y-98232501D01*
X115512885Y-98236978D01*
X115501822Y-98241927D01*
X115491255Y-98247346D01*
X115481185Y-98253237D01*
X115471610Y-98259600D01*
X115462532Y-98266434D01*
X115453949Y-98273739D01*
X115445491Y-98281081D01*
X115437578Y-98288820D01*
X115430211Y-98296956D01*
X115423390Y-98305489D01*
X115417114Y-98314418D01*
X115411384Y-98323745D01*
X115406200Y-98333468D01*
X115401562Y-98343589D01*
X115397469Y-98354106D01*
X115393922Y-98365020D01*
X115390920Y-98376331D01*
X115388465Y-98388039D01*
X115386555Y-98400143D01*
X115385190Y-98412645D01*
X115384372Y-98425543D01*
X115384099Y-98438838D01*
X114858863Y-98438838D01*
X114859588Y-98427924D01*
X114861564Y-98407089D01*
X114864103Y-98386649D01*
X114867207Y-98366607D01*
X114870875Y-98346962D01*
X114875107Y-98327714D01*
X114879903Y-98308862D01*
X114885264Y-98290407D01*
X114891190Y-98272349D01*
X114897679Y-98254689D01*
X114904733Y-98237424D01*
X114912351Y-98220557D01*
X114920534Y-98204087D01*
X114929280Y-98188014D01*
X114938591Y-98172337D01*
X114948467Y-98157057D01*
X114958906Y-98142174D01*
X114969910Y-98127689D01*
X114981479Y-98113599D01*
X114993611Y-98099907D01*
X115006308Y-98086612D01*
X115019569Y-98073714D01*
X115033395Y-98061212D01*
X115047785Y-98049107D01*
X115062739Y-98037399D01*
X115078257Y-98026089D01*
X115094340Y-98015174D01*
X115110987Y-98004657D01*
X115128199Y-97994537D01*
X115145974Y-97984814D01*
X115147128Y-97984218D01*
X115148207Y-97983623D01*
X115149211Y-97983028D01*
X115150141Y-97982432D01*
X115150997Y-97981837D01*
X115151779Y-97981242D01*
X115152485Y-97980646D01*
X115153118Y-97980051D01*
X115153676Y-97979456D01*
X115154160Y-97978860D01*
X115154569Y-97978265D01*
X115154904Y-97977670D01*
X115155164Y-97977074D01*
X115155350Y-97976479D01*
X115155462Y-97975884D01*
X115155499Y-97975289D01*
X115155462Y-97974693D01*
X115155350Y-97974098D01*
X115155164Y-97973503D01*
X115154904Y-97972907D01*
X115154569Y-97972312D01*
X115154160Y-97971717D01*
X115153676Y-97971121D01*
X115153118Y-97970526D01*
X115152485Y-97969931D01*
X115151779Y-97969335D01*
X115150997Y-97968740D01*
X115150141Y-97968145D01*
X115149211Y-97967549D01*
X115148207Y-97966954D01*
X115147128Y-97966359D01*
X115145974Y-97965764D01*
X115115216Y-97948016D01*
X115086443Y-97928904D01*
X115059654Y-97908427D01*
X115034849Y-97886587D01*
X115012029Y-97863382D01*
X114991193Y-97838813D01*
X114972341Y-97812880D01*
X114955474Y-97785582D01*
X114940591Y-97756920D01*
X114927693Y-97726894D01*
X114916779Y-97695504D01*
X114907849Y-97662749D01*
X114900904Y-97628631D01*
X114895943Y-97593147D01*
X114893983Y-97568889D01*
X115406324Y-97568889D01*
X115406597Y-97581415D01*
X115407415Y-97593594D01*
X115408780Y-97605426D01*
X115410690Y-97616910D01*
X115413145Y-97628048D01*
X115416147Y-97638838D01*
X115419694Y-97649281D01*
X115423787Y-97659376D01*
X115428425Y-97669124D01*
X115433609Y-97678525D01*
X115439339Y-97687579D01*
X115445615Y-97696286D01*
X115452436Y-97704645D01*
X115459803Y-97712657D01*
X115467716Y-97720321D01*
X115476174Y-97727639D01*
X115485141Y-97734175D01*
X115494579Y-97740289D01*
X115504489Y-97745982D01*
X115514869Y-97751253D01*
X115525722Y-97756102D01*
X115537045Y-97760530D01*
X115548840Y-97764536D01*
X115561105Y-97768120D01*
X115573843Y-97771282D01*
X115587051Y-97774023D01*
X115600731Y-97776343D01*
X115614882Y-97778240D01*
X115629504Y-97779716D01*
X115644598Y-97780770D01*
X115660163Y-97781403D01*
X115676199Y-97781614D01*
X115990524Y-97781614D01*
X115991501Y-97781598D01*
X115992446Y-97781552D01*
X115993361Y-97781474D01*
X115994245Y-97781366D01*
X115995097Y-97781226D01*
X115995919Y-97781056D01*
X115996710Y-97780854D01*
X115997470Y-97780621D01*
X115998198Y-97780358D01*
X115998896Y-97780063D01*
X115999563Y-97779738D01*
X116000198Y-97779381D01*
X116000803Y-97778994D01*
X116001376Y-97778575D01*
X116001919Y-97778125D01*
X116002431Y-97777645D01*
X116002911Y-97777133D01*
X116003361Y-97776591D01*
X116003780Y-97776017D01*
X116004167Y-97775412D01*
X116004524Y-97774777D01*
X116004849Y-97774110D01*
X116005144Y-97773413D01*
X116005407Y-97772684D01*
X116005640Y-97771924D01*
X116005842Y-97771134D01*
X116006012Y-97770312D01*
X116006152Y-97769459D01*
X116006260Y-97768576D01*
X116006338Y-97767661D01*
X116006384Y-97766715D01*
X116006400Y-97765739D01*
X116006400Y-97365689D01*
X116006384Y-97364712D01*
X116006338Y-97363766D01*
X116006260Y-97362852D01*
X116006152Y-97361968D01*
X116006012Y-97361115D01*
X116005842Y-97360294D01*
X116005640Y-97359503D01*
X116005407Y-97358743D01*
X116005144Y-97358015D01*
X116004849Y-97357317D01*
X116004524Y-97356650D01*
X116004167Y-97356015D01*
X116003780Y-97355410D01*
X116003361Y-97354837D01*
X116002911Y-97354294D01*
X116002431Y-97353782D01*
X116001919Y-97353302D01*
X116001376Y-97352852D01*
X116000803Y-97352434D01*
X116000198Y-97352046D01*
X115999563Y-97351689D01*
X115998896Y-97351364D01*
X115998198Y-97351069D01*
X115997470Y-97350806D01*
X115996710Y-97350573D01*
X115995919Y-97350372D01*
X115995097Y-97350201D01*
X115994245Y-97350062D01*
X115993361Y-97349953D01*
X115992446Y-97349876D01*
X115991501Y-97349829D01*
X115990524Y-97349814D01*
X115676199Y-97349814D01*
X115660163Y-97350037D01*
X115644598Y-97350707D01*
X115629504Y-97351823D01*
X115614882Y-97353386D01*
X115600731Y-97355395D01*
X115587051Y-97357850D01*
X115573843Y-97360752D01*
X115561105Y-97364101D01*
X115548840Y-97367896D01*
X115537045Y-97372138D01*
X115525722Y-97376826D01*
X115514869Y-97381960D01*
X115504489Y-97387542D01*
X115494579Y-97393569D01*
X115485141Y-97400043D01*
X115476174Y-97406964D01*
X115467716Y-97414293D01*
X115459803Y-97421995D01*
X115452436Y-97430069D01*
X115445615Y-97438515D01*
X115439339Y-97447333D01*
X115433609Y-97456523D01*
X115428425Y-97466085D01*
X115423787Y-97476020D01*
X115419694Y-97486326D01*
X115416147Y-97497005D01*
X115413145Y-97508055D01*
X115410690Y-97519478D01*
X115408780Y-97531272D01*
X115407415Y-97543439D01*
X115406597Y-97555978D01*
X115406324Y-97568889D01*
X114893983Y-97568889D01*
X114892966Y-97556300D01*
X114891974Y-97518089D01*
X114892755Y-97477917D01*
X114895099Y-97439160D01*
X114899006Y-97401817D01*
X114904476Y-97365887D01*
X114911508Y-97331371D01*
X114920103Y-97298269D01*
X114930260Y-97266581D01*
X114941980Y-97236307D01*
X114955263Y-97207447D01*
X114962491Y-97193547D01*
X114970109Y-97180001D01*
X114978118Y-97166808D01*
X114986517Y-97153968D01*
X114995307Y-97141482D01*
X115004488Y-97129350D01*
X115014060Y-97117570D01*
X115024022Y-97106145D01*
X115034375Y-97095073D01*
X115045118Y-97084354D01*
X115056252Y-97073989D01*
X115067777Y-97063977D01*
X115079693Y-97054319D01*
X115091999Y-97045014D01*
X115117350Y-97027328D01*
X115144188Y-97010783D01*
X115172515Y-96995379D01*
X115202331Y-96981117D01*
X115233634Y-96967995D01*
X115266426Y-96956014D01*
X115300706Y-96945175D01*
X115336474Y-96935476D01*
X115373731Y-96926919D01*
X115412476Y-96919502D01*
X115452709Y-96913226D01*
X115494430Y-96908092D01*
X115537640Y-96904098D01*
X115582338Y-96901246D01*
X115628524Y-96899534D01*
X115676199Y-96898964D01*
X116495349Y-96898964D01*
X116497321Y-96899013D01*
X116499268Y-96899162D01*
X116501191Y-96899410D01*
X116503088Y-96899757D01*
X116504961Y-96900204D01*
X116506809Y-96900750D01*
X116508632Y-96901394D01*
X116510431Y-96902139D01*
X116512204Y-96902982D01*
X116513953Y-96903925D01*
X116515677Y-96904966D01*
X116517376Y-96906107D01*
X116519050Y-96907348D01*
X116520700Y-96908687D01*
X116522324Y-96910126D01*
X116523924Y-96911664D01*
X116525078Y-96912879D01*
X116526157Y-96914144D01*
X116527161Y-96915459D01*
X116528092Y-96916823D01*
X116528947Y-96918237D01*
X116529729Y-96919700D01*
X116530436Y-96921213D01*
X116531068Y-96922776D01*
X116531626Y-96924388D01*
X116532110Y-96926050D01*
X116532519Y-96927762D01*
X116532854Y-96929523D01*
X116533114Y-96931334D01*
X116533300Y-96933194D01*
X116533412Y-96935104D01*
X116533449Y-96937064D01*
X116533449Y-97765739D01*
X116533449Y-98651564D01*
G37*
G36*
X118539918Y-98358434D02*
G01*
X118538653Y-98388683D01*
X118536545Y-98418461D01*
X118533593Y-98447768D01*
X118529798Y-98476604D01*
X118525160Y-98504968D01*
X118519678Y-98532861D01*
X118513353Y-98560282D01*
X118506184Y-98587233D01*
X118498172Y-98613712D01*
X118489317Y-98639719D01*
X118479618Y-98665256D01*
X118469076Y-98690321D01*
X118457691Y-98714915D01*
X118445462Y-98739037D01*
X118432390Y-98762689D01*
X118418561Y-98785782D01*
X118404063Y-98808230D01*
X118388895Y-98830033D01*
X118373057Y-98851192D01*
X118356550Y-98871705D01*
X118339373Y-98891574D01*
X118321526Y-98910797D01*
X118303009Y-98929376D01*
X118283823Y-98947310D01*
X118263966Y-98964599D01*
X118243440Y-98981243D01*
X118222245Y-98997242D01*
X118200380Y-99012596D01*
X118177845Y-99027305D01*
X118154640Y-99041369D01*
X118130765Y-99054789D01*
X118105923Y-99067092D01*
X118080610Y-99078601D01*
X118054826Y-99089317D01*
X118028570Y-99099239D01*
X118001843Y-99108367D01*
X117974644Y-99116701D01*
X117946975Y-99124242D01*
X117918834Y-99130989D01*
X117890222Y-99136942D01*
X117861138Y-99142101D01*
X117831583Y-99146467D01*
X117801557Y-99150039D01*
X117771060Y-99152817D01*
X117740091Y-99154801D01*
X117708651Y-99155992D01*
X117676740Y-99156389D01*
X117644829Y-99155992D01*
X117613389Y-99154801D01*
X117582420Y-99152817D01*
X117551923Y-99150039D01*
X117521897Y-99146467D01*
X117492342Y-99142101D01*
X117463259Y-99136942D01*
X117434646Y-99130989D01*
X117406506Y-99124242D01*
X117378836Y-99116701D01*
X117351638Y-99108367D01*
X117324910Y-99099239D01*
X117298655Y-99089317D01*
X117272870Y-99078601D01*
X117247557Y-99067092D01*
X117222715Y-99054789D01*
X117198456Y-99041369D01*
X117174892Y-99027305D01*
X117152022Y-99012596D01*
X117129846Y-98997242D01*
X117108366Y-98981243D01*
X117087579Y-98964599D01*
X117067487Y-98947310D01*
X117048090Y-98929376D01*
X117029388Y-98910797D01*
X117011379Y-98891574D01*
X116994066Y-98871705D01*
X116977447Y-98851192D01*
X116961522Y-98830033D01*
X116946292Y-98808230D01*
X116931756Y-98785782D01*
X116917915Y-98762689D01*
X116904843Y-98739037D01*
X116892615Y-98714915D01*
X116881229Y-98690321D01*
X116870687Y-98665256D01*
X116860989Y-98639719D01*
X116852133Y-98613712D01*
X116844121Y-98587233D01*
X116836953Y-98560282D01*
X116830628Y-98532861D01*
X116825146Y-98504968D01*
X116820507Y-98476604D01*
X116816712Y-98447768D01*
X116813760Y-98418461D01*
X116811652Y-98388683D01*
X116810387Y-98358434D01*
X116810183Y-98343589D01*
X117337015Y-98343589D01*
X117337387Y-98363966D01*
X117338503Y-98383822D01*
X117340364Y-98403157D01*
X117342968Y-98421971D01*
X117346317Y-98440265D01*
X117350410Y-98458037D01*
X117355247Y-98475289D01*
X117360828Y-98492020D01*
X117367153Y-98508230D01*
X117374222Y-98523919D01*
X117382036Y-98539087D01*
X117390593Y-98553734D01*
X117399895Y-98567860D01*
X117409941Y-98581466D01*
X117420731Y-98594550D01*
X117432265Y-98607114D01*
X117444010Y-98619032D01*
X117456226Y-98630182D01*
X117468914Y-98640563D01*
X117482073Y-98650175D01*
X117495703Y-98659017D01*
X117509805Y-98667091D01*
X117524377Y-98674396D01*
X117539422Y-98680932D01*
X117554937Y-98686699D01*
X117570923Y-98691698D01*
X117587381Y-98695927D01*
X117604311Y-98699387D01*
X117621711Y-98702078D01*
X117639583Y-98704001D01*
X117657926Y-98705154D01*
X117676740Y-98705538D01*
X117695183Y-98705154D01*
X117713203Y-98704001D01*
X117730802Y-98702078D01*
X117747979Y-98699387D01*
X117764735Y-98695927D01*
X117781069Y-98691698D01*
X117796981Y-98686699D01*
X117812471Y-98680932D01*
X117827540Y-98674396D01*
X117842187Y-98667091D01*
X117856413Y-98659017D01*
X117870217Y-98650175D01*
X117883599Y-98640563D01*
X117896559Y-98630182D01*
X117909098Y-98619032D01*
X117921215Y-98607114D01*
X117932365Y-98594550D01*
X117942795Y-98581466D01*
X117952506Y-98567860D01*
X117961498Y-98553734D01*
X117969770Y-98539087D01*
X117977323Y-98523919D01*
X117984157Y-98508230D01*
X117990271Y-98492020D01*
X117995667Y-98475289D01*
X118000342Y-98458037D01*
X118004299Y-98440265D01*
X118007536Y-98421971D01*
X118010053Y-98403157D01*
X118011852Y-98383822D01*
X118012931Y-98363966D01*
X118013290Y-98343589D01*
X118013290Y-97686364D01*
X118012931Y-97666371D01*
X118011852Y-97646875D01*
X118010053Y-97627874D01*
X118007536Y-97609370D01*
X118004299Y-97591362D01*
X118000342Y-97573850D01*
X117995667Y-97556834D01*
X117990271Y-97540314D01*
X117984157Y-97524290D01*
X117977323Y-97508762D01*
X117969770Y-97493730D01*
X117961498Y-97479195D01*
X117952506Y-97465155D01*
X117942795Y-97451612D01*
X117932365Y-97438565D01*
X117921215Y-97426014D01*
X117909098Y-97413710D01*
X117896559Y-97402201D01*
X117883599Y-97391485D01*
X117870217Y-97381564D01*
X117856413Y-97372435D01*
X117842187Y-97364101D01*
X117827540Y-97356560D01*
X117812471Y-97349814D01*
X117796981Y-97343860D01*
X117781069Y-97338701D01*
X117764735Y-97334335D01*
X117747979Y-97330764D01*
X117730802Y-97327985D01*
X117713203Y-97326001D01*
X117695183Y-97324810D01*
X117676740Y-97324414D01*
X117657926Y-97324810D01*
X117639583Y-97326001D01*
X117621711Y-97327985D01*
X117604311Y-97330764D01*
X117587381Y-97334335D01*
X117570923Y-97338701D01*
X117554937Y-97343860D01*
X117539422Y-97349814D01*
X117524377Y-97356560D01*
X117509805Y-97364101D01*
X117495703Y-97372435D01*
X117482073Y-97381564D01*
X117468914Y-97391485D01*
X117456226Y-97402201D01*
X117444010Y-97413710D01*
X117432265Y-97426014D01*
X117420731Y-97438565D01*
X117409941Y-97451612D01*
X117399895Y-97465155D01*
X117390593Y-97479195D01*
X117382036Y-97493730D01*
X117374222Y-97508762D01*
X117367153Y-97524290D01*
X117360828Y-97540314D01*
X117355247Y-97556834D01*
X117350410Y-97573850D01*
X117346317Y-97591362D01*
X117342968Y-97609370D01*
X117340364Y-97627874D01*
X117338503Y-97646875D01*
X117337387Y-97666371D01*
X117337015Y-97686364D01*
X117337015Y-98343589D01*
X116810183Y-98343589D01*
X116809965Y-98327714D01*
X116809965Y-97692714D01*
X116810387Y-97662774D01*
X116811652Y-97633282D01*
X116813760Y-97604235D01*
X116816712Y-97575635D01*
X116820507Y-97547482D01*
X116825146Y-97519775D01*
X116830628Y-97492515D01*
X116836953Y-97465701D01*
X116844121Y-97439334D01*
X116852133Y-97413413D01*
X116860989Y-97387938D01*
X116870687Y-97362910D01*
X116881229Y-97338329D01*
X116892615Y-97314194D01*
X116904843Y-97290506D01*
X116917915Y-97267264D01*
X116931756Y-97244183D01*
X116946292Y-97221772D01*
X116961522Y-97200030D01*
X116977447Y-97178959D01*
X116994066Y-97158557D01*
X117011379Y-97138825D01*
X117029388Y-97119763D01*
X117048090Y-97101370D01*
X117067487Y-97083647D01*
X117087579Y-97066594D01*
X117108366Y-97050210D01*
X117129846Y-97034496D01*
X117152022Y-97019452D01*
X117174892Y-97005078D01*
X117198456Y-96991373D01*
X117222715Y-96978339D01*
X117247557Y-96965651D01*
X117272870Y-96953782D01*
X117298655Y-96942731D01*
X117324910Y-96932500D01*
X117351638Y-96923086D01*
X117378836Y-96914491D01*
X117406506Y-96906715D01*
X117434646Y-96899757D01*
X117463259Y-96893618D01*
X117492342Y-96888298D01*
X117521897Y-96883796D01*
X117551923Y-96880112D01*
X117582420Y-96877247D01*
X117613389Y-96875201D01*
X117644829Y-96873973D01*
X117676740Y-96873564D01*
X117708651Y-96873973D01*
X117740091Y-96875201D01*
X117771060Y-96877247D01*
X117801557Y-96880112D01*
X117831583Y-96883796D01*
X117861138Y-96888298D01*
X117890222Y-96893618D01*
X117918834Y-96899757D01*
X117946975Y-96906715D01*
X117974644Y-96914491D01*
X118001843Y-96923086D01*
X118028570Y-96932500D01*
X118054826Y-96942731D01*
X118080610Y-96953782D01*
X118105923Y-96965651D01*
X118130765Y-96978339D01*
X118154640Y-96991373D01*
X118177845Y-97005078D01*
X118200380Y-97019452D01*
X118222245Y-97034496D01*
X118243440Y-97050210D01*
X118263966Y-97066594D01*
X118283823Y-97083647D01*
X118303009Y-97101370D01*
X118321526Y-97119763D01*
X118339373Y-97138825D01*
X118356550Y-97158557D01*
X118373057Y-97178959D01*
X118388895Y-97200030D01*
X118404063Y-97221772D01*
X118418561Y-97244183D01*
X118432390Y-97267264D01*
X118445462Y-97290506D01*
X118457691Y-97314194D01*
X118469076Y-97338329D01*
X118479618Y-97362910D01*
X118489317Y-97387938D01*
X118498172Y-97413413D01*
X118506184Y-97439334D01*
X118513353Y-97465701D01*
X118519678Y-97492515D01*
X118525160Y-97519775D01*
X118529798Y-97547482D01*
X118533593Y-97575635D01*
X118536545Y-97604235D01*
X118538653Y-97633282D01*
X118539918Y-97662774D01*
X118540340Y-97692714D01*
X118540340Y-98327714D01*
X118540122Y-98343589D01*
X118539918Y-98358434D01*
G37*
G36*
X119655723Y-96873948D02*
G01*
X119686766Y-96875102D01*
X119717338Y-96877024D01*
X119747438Y-96879715D01*
X119777067Y-96883175D01*
X119806225Y-96887405D01*
X119834912Y-96892403D01*
X119863127Y-96898170D01*
X119890871Y-96904706D01*
X119918144Y-96912011D01*
X119944945Y-96920085D01*
X119971276Y-96928928D01*
X119997134Y-96938540D01*
X120022522Y-96948920D01*
X120047438Y-96960070D01*
X120071883Y-96971989D01*
X120095373Y-96984614D01*
X120118219Y-96997885D01*
X120140419Y-97011800D01*
X120161974Y-97026360D01*
X120182884Y-97041566D01*
X120203150Y-97057416D01*
X120222770Y-97073911D01*
X120241746Y-97091051D01*
X120260076Y-97108836D01*
X120277762Y-97127266D01*
X120294803Y-97146341D01*
X120311199Y-97166060D01*
X120326950Y-97186425D01*
X120342056Y-97207435D01*
X120356517Y-97229089D01*
X120370333Y-97251389D01*
X120383021Y-97273837D01*
X120394890Y-97296732D01*
X120405940Y-97320073D01*
X120416172Y-97343860D01*
X120425586Y-97368095D01*
X120434181Y-97392775D01*
X120441957Y-97417902D01*
X120448915Y-97443476D01*
X120455054Y-97469496D01*
X120460374Y-97495963D01*
X120464876Y-97522876D01*
X120468560Y-97550235D01*
X120471425Y-97578042D01*
X120473471Y-97606294D01*
X120474699Y-97634993D01*
X120475108Y-97664139D01*
X120475108Y-98349939D01*
X120474699Y-98379481D01*
X120473471Y-98408577D01*
X120471425Y-98437226D01*
X120468560Y-98465429D01*
X120464876Y-98493186D01*
X120460374Y-98520496D01*
X120455054Y-98547359D01*
X120448915Y-98573776D01*
X120441957Y-98599747D01*
X120434181Y-98625271D01*
X120425586Y-98650348D01*
X120416172Y-98674979D01*
X120405940Y-98699164D01*
X120394890Y-98722902D01*
X120383021Y-98746193D01*
X120370333Y-98769038D01*
X120356517Y-98791338D01*
X120342056Y-98812992D01*
X120326950Y-98834002D01*
X120311199Y-98854367D01*
X120294803Y-98874086D01*
X120277762Y-98893161D01*
X120260076Y-98911591D01*
X120241746Y-98929376D01*
X120222770Y-98946516D01*
X120203150Y-98963011D01*
X120182884Y-98978861D01*
X120161974Y-98994067D01*
X120140419Y-99008627D01*
X120118219Y-99022542D01*
X120095373Y-99035813D01*
X120071883Y-99048438D01*
X120047438Y-99060357D01*
X120022522Y-99071507D01*
X119997134Y-99081888D01*
X119971276Y-99091500D01*
X119944945Y-99100342D01*
X119918144Y-99108416D01*
X119890871Y-99115721D01*
X119863127Y-99122257D01*
X119834912Y-99128024D01*
X119806225Y-99133023D01*
X119777067Y-99137252D01*
X119747438Y-99140712D01*
X119717338Y-99143403D01*
X119686766Y-99145326D01*
X119655723Y-99146479D01*
X119624208Y-99146864D01*
X119592706Y-99146504D01*
X119561701Y-99145425D01*
X119531191Y-99143627D01*
X119501177Y-99141109D01*
X119471660Y-99137872D01*
X119442638Y-99133916D01*
X119414113Y-99129240D01*
X119386083Y-99123845D01*
X119358550Y-99117730D01*
X119331513Y-99110897D01*
X119304972Y-99103344D01*
X119278927Y-99095071D01*
X119253378Y-99086080D01*
X119228326Y-99076369D01*
X119203769Y-99065938D01*
X119179708Y-99054789D01*
X119155846Y-99042585D01*
X119132679Y-99029785D01*
X119110206Y-99016391D01*
X119088427Y-99002401D01*
X119067343Y-98987816D01*
X119046954Y-98972635D01*
X119027259Y-98956860D01*
X119008258Y-98940488D01*
X118989953Y-98923522D01*
X118972341Y-98905960D01*
X118955424Y-98887803D01*
X118939202Y-98869051D01*
X118923674Y-98849703D01*
X118908841Y-98829760D01*
X118894702Y-98809222D01*
X118881258Y-98788088D01*
X118868186Y-98766446D01*
X118855958Y-98744383D01*
X118844572Y-98721897D01*
X118834030Y-98698990D01*
X118824332Y-98675661D01*
X118815476Y-98651911D01*
X118807464Y-98627739D01*
X118800296Y-98603145D01*
X118793971Y-98578129D01*
X118788489Y-98552692D01*
X118783850Y-98526833D01*
X118780055Y-98500553D01*
X118777103Y-98473850D01*
X118774995Y-98446726D01*
X118773730Y-98419181D01*
X118773308Y-98391214D01*
X118773358Y-98389638D01*
X118773507Y-98388088D01*
X118773755Y-98386563D01*
X118774102Y-98385062D01*
X118774549Y-98383586D01*
X118775094Y-98382135D01*
X118775739Y-98380709D01*
X118776483Y-98379307D01*
X118777327Y-98377931D01*
X118778269Y-98376579D01*
X118779311Y-98375252D01*
X118780452Y-98373949D01*
X118781692Y-98372672D01*
X118783032Y-98371419D01*
X118784471Y-98370191D01*
X118786008Y-98368988D01*
X118787224Y-98367835D01*
X118788489Y-98366756D01*
X118789803Y-98365751D01*
X118791168Y-98364821D01*
X118792582Y-98363966D01*
X118794045Y-98363184D01*
X118795558Y-98362477D01*
X118797121Y-98361845D01*
X118798733Y-98361287D01*
X118800395Y-98360803D01*
X118802107Y-98360394D01*
X118803868Y-98360059D01*
X118805679Y-98359798D01*
X118807539Y-98359612D01*
X118809449Y-98359501D01*
X118811408Y-98359464D01*
X119262258Y-98337239D01*
X119264603Y-98337273D01*
X119266872Y-98337375D01*
X119269067Y-98337546D01*
X119271188Y-98337784D01*
X119273235Y-98338091D01*
X119275206Y-98338466D01*
X119277104Y-98338910D01*
X119278927Y-98339421D01*
X119280676Y-98340001D01*
X119282350Y-98340649D01*
X119283950Y-98341365D01*
X119285476Y-98342150D01*
X119286927Y-98343003D01*
X119288303Y-98343923D01*
X119289606Y-98344913D01*
X119290833Y-98345970D01*
X119291987Y-98347095D01*
X119293066Y-98348289D01*
X119294070Y-98349551D01*
X119295001Y-98350881D01*
X119295856Y-98352279D01*
X119296638Y-98353746D01*
X119297345Y-98355281D01*
X119297977Y-98356884D01*
X119298535Y-98358555D01*
X119299019Y-98360294D01*
X119299428Y-98362102D01*
X119299763Y-98363978D01*
X119300024Y-98365922D01*
X119300210Y-98367934D01*
X119300321Y-98370015D01*
X119300358Y-98372163D01*
X119300706Y-98390196D01*
X119301748Y-98407783D01*
X119303484Y-98424923D01*
X119305915Y-98441617D01*
X119309040Y-98457864D01*
X119312860Y-98473664D01*
X119317374Y-98489018D01*
X119322583Y-98503926D01*
X119328487Y-98518387D01*
X119335085Y-98532402D01*
X119342378Y-98545970D01*
X119350365Y-98559092D01*
X119359046Y-98571767D01*
X119368423Y-98583996D01*
X119378493Y-98595778D01*
X119389258Y-98607114D01*
X119400594Y-98617879D01*
X119412376Y-98627949D01*
X119424605Y-98637326D01*
X119437280Y-98646007D01*
X119450402Y-98653994D01*
X119463970Y-98661287D01*
X119477985Y-98667885D01*
X119492446Y-98673788D01*
X119507353Y-98678997D01*
X119522708Y-98683512D01*
X119538508Y-98687332D01*
X119554755Y-98690457D01*
X119571449Y-98692888D01*
X119588589Y-98694624D01*
X119606175Y-98695666D01*
X119624208Y-98696013D01*
X119642241Y-98695666D01*
X119659828Y-98694624D01*
X119676968Y-98692888D01*
X119693662Y-98690457D01*
X119709909Y-98687332D01*
X119725709Y-98683512D01*
X119741063Y-98678997D01*
X119755971Y-98673788D01*
X119770432Y-98667885D01*
X119784447Y-98661287D01*
X119798015Y-98653994D01*
X119811137Y-98646007D01*
X119823812Y-98637326D01*
X119836040Y-98627949D01*
X119847823Y-98617879D01*
X119859158Y-98607114D01*
X119869924Y-98595778D01*
X119879994Y-98583996D01*
X119889370Y-98571767D01*
X119898052Y-98559092D01*
X119906039Y-98545970D01*
X119913332Y-98532402D01*
X119919930Y-98518387D01*
X119925833Y-98503926D01*
X119931042Y-98489018D01*
X119935557Y-98473664D01*
X119939377Y-98457864D01*
X119942502Y-98441617D01*
X119944933Y-98424923D01*
X119946669Y-98407783D01*
X119947711Y-98390196D01*
X119948058Y-98372163D01*
X119948058Y-97651439D01*
X119947711Y-97633406D01*
X119946669Y-97615819D01*
X119944933Y-97598679D01*
X119942502Y-97581986D01*
X119939377Y-97565738D01*
X119935557Y-97549938D01*
X119931042Y-97534584D01*
X119925833Y-97519676D01*
X119919930Y-97505215D01*
X119913332Y-97491200D01*
X119906039Y-97477632D01*
X119898052Y-97464510D01*
X119889370Y-97451835D01*
X119879994Y-97439607D01*
X119869924Y-97427824D01*
X119859158Y-97416489D01*
X119847823Y-97405339D01*
X119836040Y-97394908D01*
X119823812Y-97385197D01*
X119811137Y-97376206D01*
X119798015Y-97367933D01*
X119784447Y-97360380D01*
X119770432Y-97353547D01*
X119755971Y-97347432D01*
X119741063Y-97342037D01*
X119725709Y-97337362D01*
X119709909Y-97333405D01*
X119693662Y-97330168D01*
X119676968Y-97327651D01*
X119659828Y-97325852D01*
X119642241Y-97324773D01*
X119624208Y-97324414D01*
X119606175Y-97324761D01*
X119588589Y-97325803D01*
X119571449Y-97327539D01*
X119554755Y-97329970D01*
X119538508Y-97333095D01*
X119522708Y-97336915D01*
X119507353Y-97341430D01*
X119492446Y-97346639D01*
X119477985Y-97352542D01*
X119463970Y-97359140D01*
X119450402Y-97366433D01*
X119437280Y-97374420D01*
X119424605Y-97383101D01*
X119412376Y-97392478D01*
X119400594Y-97402548D01*
X119389258Y-97413314D01*
X119378493Y-97424662D01*
X119368423Y-97436481D01*
X119359046Y-97448772D01*
X119350365Y-97461534D01*
X119342378Y-97474767D01*
X119335085Y-97488472D01*
X119328487Y-97502648D01*
X119322583Y-97517295D01*
X119317374Y-97532413D01*
X119312860Y-97548003D01*
X119309040Y-97564064D01*
X119305915Y-97580596D01*
X119303484Y-97597600D01*
X119301748Y-97615075D01*
X119300706Y-97633021D01*
X119300358Y-97651439D01*
X119300321Y-97653587D01*
X119300210Y-97655668D01*
X119300024Y-97657680D01*
X119299763Y-97659624D01*
X119299428Y-97661500D01*
X119299019Y-97663308D01*
X119298535Y-97665047D01*
X119297977Y-97666718D01*
X119297345Y-97668321D01*
X119296638Y-97669856D01*
X119295856Y-97671323D01*
X119295001Y-97672721D01*
X119294070Y-97674051D01*
X119293066Y-97675313D01*
X119291987Y-97676507D01*
X119290833Y-97677632D01*
X119289606Y-97678690D01*
X119288303Y-97679679D01*
X119286927Y-97680600D01*
X119285476Y-97681452D01*
X119283950Y-97682237D01*
X119282350Y-97682953D01*
X119280676Y-97683601D01*
X119278927Y-97684181D01*
X119277104Y-97684692D01*
X119275206Y-97685136D01*
X119273235Y-97685511D01*
X119271188Y-97685818D01*
X119266872Y-97686227D01*
X119262258Y-97686364D01*
X118811408Y-97657789D01*
X118809449Y-97657751D01*
X118807539Y-97657640D01*
X118805679Y-97657454D01*
X118803868Y-97657193D01*
X118802107Y-97656859D01*
X118800395Y-97656449D01*
X118798733Y-97655966D01*
X118797121Y-97655407D01*
X118795558Y-97654775D01*
X118794045Y-97654068D01*
X118792582Y-97653287D01*
X118791168Y-97652431D01*
X118789803Y-97651501D01*
X118788489Y-97650496D01*
X118787224Y-97649417D01*
X118786008Y-97648264D01*
X118784471Y-97647048D01*
X118783032Y-97645783D01*
X118781692Y-97644468D01*
X118780452Y-97643104D01*
X118779311Y-97641690D01*
X118778269Y-97640227D01*
X118777327Y-97638714D01*
X118776483Y-97637151D01*
X118775739Y-97635539D01*
X118775094Y-97633877D01*
X118774549Y-97632165D01*
X118774102Y-97630404D01*
X118773755Y-97628593D01*
X118773507Y-97626733D01*
X118773358Y-97624823D01*
X118773308Y-97622864D01*
X118773730Y-97595293D01*
X118774995Y-97568144D01*
X118777103Y-97541417D01*
X118780055Y-97515112D01*
X118783850Y-97489228D01*
X118788489Y-97463766D01*
X118793971Y-97438726D01*
X118800296Y-97414107D01*
X118807464Y-97389910D01*
X118815476Y-97366135D01*
X118824332Y-97342781D01*
X118834030Y-97319850D01*
X118844572Y-97297339D01*
X118855958Y-97275251D01*
X118868186Y-97253584D01*
X118881258Y-97232339D01*
X118894702Y-97211217D01*
X118908841Y-97190716D01*
X118923674Y-97170835D01*
X118939202Y-97151575D01*
X118955424Y-97132934D01*
X118972341Y-97114913D01*
X118989953Y-97097513D01*
X119008258Y-97080732D01*
X119027259Y-97064572D01*
X119046954Y-97049032D01*
X119067343Y-97034112D01*
X119088427Y-97019812D01*
X119110206Y-97006132D01*
X119132679Y-96993073D01*
X119155846Y-96980633D01*
X119179708Y-96968814D01*
X119203769Y-96957279D01*
X119228326Y-96946489D01*
X119253378Y-96936443D01*
X119278927Y-96927142D01*
X119304972Y-96918584D01*
X119331513Y-96910771D01*
X119358550Y-96903701D01*
X119386083Y-96897376D01*
X119414113Y-96891795D01*
X119442638Y-96886958D01*
X119471660Y-96882865D01*
X119501177Y-96879517D01*
X119531191Y-96876912D01*
X119561701Y-96875052D01*
X119592706Y-96873936D01*
X119624208Y-96873564D01*
X119655723Y-96873948D01*
G37*
M02*
