%TF.GenerationSoftware,KiCad,Pcbnew,7.0.7*%
%TF.CreationDate,2023-08-27T10:12:23+07:00*%
%TF.ProjectId,TinyUSBHub,54696e79-5553-4424-9875-622e6b696361,rev?*%
%TF.SameCoordinates,Original*%
%TF.FileFunction,Legend,Top*%
%TF.FilePolarity,Positive*%
%FSLAX46Y46*%
G04 Gerber Fmt 4.6, Leading zero omitted, Abs format (unit mm)*
G04 Created by KiCad (PCBNEW 7.0.7) date 2023-08-27 10:12:23*
%MOMM*%
%LPD*%
G01*
G04 APERTURE LIST*
%ADD10C,0.150000*%
%ADD11C,0.120000*%
G04 APERTURE END LIST*
D10*
X115084295Y-102362268D02*
X115655723Y-102362268D01*
X115655723Y-102362268D02*
X115770009Y-102400363D01*
X115770009Y-102400363D02*
X115846200Y-102476554D01*
X115846200Y-102476554D02*
X115884295Y-102590839D01*
X115884295Y-102590839D02*
X115884295Y-102667030D01*
X115884295Y-101600363D02*
X115884295Y-101981315D01*
X115884295Y-101981315D02*
X115084295Y-101981315D01*
X115808104Y-100876553D02*
X115846200Y-100914649D01*
X115846200Y-100914649D02*
X115884295Y-101028934D01*
X115884295Y-101028934D02*
X115884295Y-101105125D01*
X115884295Y-101105125D02*
X115846200Y-101219411D01*
X115846200Y-101219411D02*
X115770009Y-101295601D01*
X115770009Y-101295601D02*
X115693819Y-101333696D01*
X115693819Y-101333696D02*
X115541438Y-101371792D01*
X115541438Y-101371792D02*
X115427152Y-101371792D01*
X115427152Y-101371792D02*
X115274771Y-101333696D01*
X115274771Y-101333696D02*
X115198580Y-101295601D01*
X115198580Y-101295601D02*
X115122390Y-101219411D01*
X115122390Y-101219411D02*
X115084295Y-101105125D01*
X115084295Y-101105125D02*
X115084295Y-101028934D01*
X115084295Y-101028934D02*
X115122390Y-100914649D01*
X115122390Y-100914649D02*
X115160485Y-100876553D01*
X115084295Y-100305125D02*
X115655723Y-100305125D01*
X115655723Y-100305125D02*
X115770009Y-100343220D01*
X115770009Y-100343220D02*
X115846200Y-100419411D01*
X115846200Y-100419411D02*
X115884295Y-100533696D01*
X115884295Y-100533696D02*
X115884295Y-100609887D01*
X115884295Y-99543220D02*
X115884295Y-99924172D01*
X115884295Y-99924172D02*
X115084295Y-99924172D01*
X115808104Y-98819410D02*
X115846200Y-98857506D01*
X115846200Y-98857506D02*
X115884295Y-98971791D01*
X115884295Y-98971791D02*
X115884295Y-99047982D01*
X115884295Y-99047982D02*
X115846200Y-99162268D01*
X115846200Y-99162268D02*
X115770009Y-99238458D01*
X115770009Y-99238458D02*
X115693819Y-99276553D01*
X115693819Y-99276553D02*
X115541438Y-99314649D01*
X115541438Y-99314649D02*
X115427152Y-99314649D01*
X115427152Y-99314649D02*
X115274771Y-99276553D01*
X115274771Y-99276553D02*
X115198580Y-99238458D01*
X115198580Y-99238458D02*
X115122390Y-99162268D01*
X115122390Y-99162268D02*
X115084295Y-99047982D01*
X115084295Y-99047982D02*
X115084295Y-98971791D01*
X115084295Y-98971791D02*
X115122390Y-98857506D01*
X115122390Y-98857506D02*
X115160485Y-98819410D01*
X115084295Y-98247982D02*
X115655723Y-98247982D01*
X115655723Y-98247982D02*
X115770009Y-98286077D01*
X115770009Y-98286077D02*
X115846200Y-98362268D01*
X115846200Y-98362268D02*
X115884295Y-98476553D01*
X115884295Y-98476553D02*
X115884295Y-98552744D01*
X115884295Y-97486077D02*
X115884295Y-97867029D01*
X115884295Y-97867029D02*
X115084295Y-97867029D01*
X115808104Y-96762267D02*
X115846200Y-96800363D01*
X115846200Y-96800363D02*
X115884295Y-96914648D01*
X115884295Y-96914648D02*
X115884295Y-96990839D01*
X115884295Y-96990839D02*
X115846200Y-97105125D01*
X115846200Y-97105125D02*
X115770009Y-97181315D01*
X115770009Y-97181315D02*
X115693819Y-97219410D01*
X115693819Y-97219410D02*
X115541438Y-97257506D01*
X115541438Y-97257506D02*
X115427152Y-97257506D01*
X115427152Y-97257506D02*
X115274771Y-97219410D01*
X115274771Y-97219410D02*
X115198580Y-97181315D01*
X115198580Y-97181315D02*
X115122390Y-97105125D01*
X115122390Y-97105125D02*
X115084295Y-96990839D01*
X115084295Y-96990839D02*
X115084295Y-96914648D01*
X115084295Y-96914648D02*
X115122390Y-96800363D01*
X115122390Y-96800363D02*
X115160485Y-96762267D01*
X115084295Y-96190839D02*
X115655723Y-96190839D01*
X115655723Y-96190839D02*
X115770009Y-96228934D01*
X115770009Y-96228934D02*
X115846200Y-96305125D01*
X115846200Y-96305125D02*
X115884295Y-96419410D01*
X115884295Y-96419410D02*
X115884295Y-96495601D01*
X115884295Y-95428934D02*
X115884295Y-95809886D01*
X115884295Y-95809886D02*
X115084295Y-95809886D01*
X115808104Y-94705124D02*
X115846200Y-94743220D01*
X115846200Y-94743220D02*
X115884295Y-94857505D01*
X115884295Y-94857505D02*
X115884295Y-94933696D01*
X115884295Y-94933696D02*
X115846200Y-95047982D01*
X115846200Y-95047982D02*
X115770009Y-95124172D01*
X115770009Y-95124172D02*
X115693819Y-95162267D01*
X115693819Y-95162267D02*
X115541438Y-95200363D01*
X115541438Y-95200363D02*
X115427152Y-95200363D01*
X115427152Y-95200363D02*
X115274771Y-95162267D01*
X115274771Y-95162267D02*
X115198580Y-95124172D01*
X115198580Y-95124172D02*
X115122390Y-95047982D01*
X115122390Y-95047982D02*
X115084295Y-94933696D01*
X115084295Y-94933696D02*
X115084295Y-94857505D01*
X115084295Y-94857505D02*
X115122390Y-94743220D01*
X115122390Y-94743220D02*
X115160485Y-94705124D01*
X119299160Y-93059533D02*
X119908684Y-93059533D01*
X119603922Y-93364295D02*
X119603922Y-92754771D01*
X121508684Y-93059533D02*
X122118208Y-93059533D01*
X109099160Y-92979533D02*
X109708684Y-92979533D01*
X109403922Y-93284295D02*
X109403922Y-92674771D01*
X111308684Y-92979533D02*
X111918208Y-92979533D01*
X118909160Y-104549533D02*
X119518684Y-104549533D01*
X119213922Y-104854295D02*
X119213922Y-104244771D01*
X121118684Y-104549533D02*
X121728208Y-104549533D01*
D11*
%TO.C,J3*%
X108525000Y-90290000D02*
X114585000Y-90290000D01*
X108525000Y-92410000D02*
X108525000Y-90290000D01*
X106465000Y-92410000D02*
X106465000Y-91350000D01*
X114585000Y-92410000D02*
X114585000Y-90290000D01*
X107525000Y-92410000D02*
X106465000Y-92410000D01*
X108525000Y-92410000D02*
X114585000Y-92410000D01*
%TO.C,J2*%
X118575000Y-90290000D02*
X124635000Y-90290000D01*
X118575000Y-92410000D02*
X118575000Y-90290000D01*
X116515000Y-92410000D02*
X116515000Y-91350000D01*
X124635000Y-92410000D02*
X124635000Y-90290000D01*
X117575000Y-92410000D02*
X116515000Y-92410000D01*
X118575000Y-92410000D02*
X124635000Y-92410000D01*
%TO.C,J1*%
X118400000Y-105515000D02*
X124460000Y-105515000D01*
X118400000Y-107635000D02*
X118400000Y-105515000D01*
X116340000Y-107635000D02*
X116340000Y-106575000D01*
X124460000Y-107635000D02*
X124460000Y-105515000D01*
X117400000Y-107635000D02*
X116340000Y-107635000D01*
X118400000Y-107635000D02*
X124460000Y-107635000D01*
%TO.C,Y1*%
X112350000Y-107975000D02*
X112350000Y-104675000D01*
X112350000Y-104675000D02*
X108350000Y-104675000D01*
D10*
%TO.C,U1*%
X112675000Y-103875000D02*
X112675000Y-103225000D01*
X118425000Y-93225000D02*
X118425000Y-93875000D01*
X112675000Y-93225000D02*
X118425000Y-93225000D01*
X112675000Y-93800000D02*
X111075000Y-93800000D01*
X118425000Y-103875000D02*
X118425000Y-103225000D01*
X112675000Y-103875000D02*
X118425000Y-103875000D01*
X112675000Y-93225000D02*
X112675000Y-93800000D01*
D11*
%TO.C,R7*%
X122595276Y-98927500D02*
X123104724Y-98927500D01*
X122595276Y-99972500D02*
X123104724Y-99972500D01*
%TO.C,R6*%
X122595276Y-97370500D02*
X123104724Y-97370500D01*
X122595276Y-98415500D02*
X123104724Y-98415500D01*
%TO.C,R5*%
X123104724Y-101529500D02*
X122595276Y-101529500D01*
X123104724Y-100484500D02*
X122595276Y-100484500D01*
%TO.C,R4*%
X123104724Y-103086500D02*
X122595276Y-103086500D01*
X123104724Y-102041500D02*
X122595276Y-102041500D01*
%TO.C,R3*%
X107995276Y-98644500D02*
X108504724Y-98644500D01*
X107995276Y-99689500D02*
X108504724Y-99689500D01*
%TO.C,R1*%
X108504724Y-101248500D02*
X107995276Y-101248500D01*
X108504724Y-100203500D02*
X107995276Y-100203500D01*
%TO.C,C12*%
X106890000Y-106471267D02*
X106890000Y-106178733D01*
X107910000Y-106471267D02*
X107910000Y-106178733D01*
%TO.C,C11*%
X113810000Y-106178733D02*
X113810000Y-106471267D01*
X112790000Y-106178733D02*
X112790000Y-106471267D01*
%TO.C,C6*%
X108396267Y-102795000D02*
X108103733Y-102795000D01*
X108396267Y-101775000D02*
X108103733Y-101775000D01*
%TO.C,C5*%
X108396267Y-95000000D02*
X108103733Y-95000000D01*
X108396267Y-93980000D02*
X108103733Y-93980000D01*
%TO.C,C4*%
X108396267Y-96559000D02*
X108103733Y-96559000D01*
X108396267Y-95539000D02*
X108103733Y-95539000D01*
%TO.C,C3*%
X122703733Y-95826000D02*
X122996267Y-95826000D01*
X122703733Y-96846000D02*
X122996267Y-96846000D01*
%TO.C,C2*%
X108396267Y-98118000D02*
X108103733Y-98118000D01*
X108396267Y-97098000D02*
X108103733Y-97098000D01*
%TO.C,C1*%
X122703733Y-94269000D02*
X122996267Y-94269000D01*
X122703733Y-95289000D02*
X122996267Y-95289000D01*
%TD*%
M02*
