  0
SECTION
  2
HEADER
  9
$ANGBASE
  50
0.0
  9
$ANGDIR
  70
1
  9
$MEASUREMENT
  70
1
  0
ENDSEC
  0
SECTION
  2
TABLES
  0
TABLE
  2
LTYPE
  70
4
  0
LTYPE
  5
40F
  2
CONTINUOUS
  70
0
  3
Solid line
  72
65
  73
0
  40
0.0
  0
LTYPE
  5
410
  2
DASHDOT
 70
0
  3
Dash Dot ____ _ ____ _
 72
65
 73
4
 40
2.0
 49
1.25
 49
-0.25
 49
0.25
 49
-0.25
  0
LTYPE
  5
411
  2
DASHED
 70
0
  3
Dashed __ __ __ __ __
 72
65
 73
2
 40
0.75
 49
0.5
 49
-0.25
  0
LTYPE
  5
43B
  2
DOTTED
 70
0
  3
Dotted .  .  .  .
 72
65
 73
2
 40
0.2
 49
0.0
 49
-0.2
  0
ENDTAB
  0
TABLE
  2
STYLE
  70
4
  0
STYLE
  2
KICAD
  70
0
  40
0
  41
1
  42
1
  50
0
  71
0
  3
isocp.shx
  0
STYLE
  2
KICADB
  70
0
  40
0
  41
1
  42
1
  50
0
  71
0
  3
isocp.shx
  0
STYLE
  2
KICADI
  70
0
  40
0
  41
1
  42
1
  50
15
  71
0
  3
isocp.shx
  0
STYLE
  2
KICADBI
  70
0
  40
0
  41
1
  42
1
  50
15
  71
0
  3
isocp.shx
  0
ENDTAB
  0
TABLE
  2
LAYER
  70
1
  0
LAYER
  2
BLACK
  70
0
  62
7
  6
CONTINUOUS
  0
ENDTAB
  0
ENDSEC
  0
SECTION
  2
ENTITIES
0
LINE
8
BLACK
6
CONTINUOUS
10
105.55
20
-90.575
11
105.55
21
-107.575
0
LINE
8
BLACK
6
CONTINUOUS
10
124.55
20
-89.575
11
106.55
21
-89.575
0
LINE
8
BLACK
6
CONTINUOUS
10
125.55
20
-107.575
11
125.55
21
-90.575
0
LINE
8
BLACK
6
CONTINUOUS
10
106.55
20
-108.575
11
124.55
21
-108.575
0
ARC
8
BLACK
10
124.55
20
-107.575
40
1
50
-90
51
-0
0
ARC
8
BLACK
10
124.55
20
-90.575
40
1
50
-0
51
90
0
ARC
8
BLACK
10
106.55
20
-90.575
40
1
50
90
51
180
0
ARC
8
BLACK
10
106.55
20
-107.575
40
1
50
-180
51
-90
0
LINE
8
BLACK
6
CONTINUOUS
10
108.108
20
-111.74
11
108.108
21
-109.74
0
LINE
8
BLACK
6
CONTINUOUS
10
108.108
20
-109.74
11
108.584
21
-109.74
0
LINE
8
BLACK
6
CONTINUOUS
10
108.584
20
-109.74
11
108.87
21
-109.835
0
LINE
8
BLACK
6
CONTINUOUS
10
108.87
20
-109.835
11
109.06
21
-110.026
0
LINE
8
BLACK
6
CONTINUOUS
10
109.06
20
-110.026
11
109.155
21
-110.216
0
LINE
8
BLACK
6
CONTINUOUS
10
109.155
20
-110.216
11
109.251
21
-110.597
0
LINE
8
BLACK
6
CONTINUOUS
10
109.251
20
-110.597
11
109.251
21
-110.883
0
LINE
8
BLACK
6
CONTINUOUS
10
109.251
20
-110.883
11
109.155
21
-111.264
0
LINE
8
BLACK
6
CONTINUOUS
10
109.155
20
-111.264
11
109.06
21
-111.454
0
LINE
8
BLACK
6
CONTINUOUS
10
109.06
20
-111.454
11
108.87
21
-111.645
0
LINE
8
BLACK
6
CONTINUOUS
10
108.87
20
-111.645
11
108.584
21
-111.74
0
LINE
8
BLACK
6
CONTINUOUS
10
108.584
20
-111.74
11
108.108
21
-111.74
0
LINE
8
BLACK
6
CONTINUOUS
10
110.108
20
-111.74
11
110.108
21
-110.407
0
LINE
8
BLACK
6
CONTINUOUS
10
110.108
20
-110.787
11
110.203
21
-110.597
0
LINE
8
BLACK
6
CONTINUOUS
10
110.203
20
-110.597
11
110.298
21
-110.502
0
LINE
8
BLACK
6
CONTINUOUS
10
110.298
20
-110.502
11
110.489
21
-110.407
0
LINE
8
BLACK
6
CONTINUOUS
10
110.489
20
-110.407
11
110.679
21
-110.407
0
LINE
8
BLACK
6
CONTINUOUS
10
111.346
20
-111.74
11
111.346
21
-110.407
0
LINE
8
BLACK
6
CONTINUOUS
10
111.346
20
-109.74
11
111.251
21
-109.835
0
LINE
8
BLACK
6
CONTINUOUS
10
111.251
20
-109.835
11
111.346
21
-109.93
0
LINE
8
BLACK
6
CONTINUOUS
10
111.346
20
-109.93
11
111.441
21
-109.835
0
LINE
8
BLACK
6
CONTINUOUS
10
111.441
20
-109.835
11
111.346
21
-109.74
0
LINE
8
BLACK
6
CONTINUOUS
10
111.346
20
-109.74
11
111.346
21
-109.93
0
LINE
8
BLACK
6
CONTINUOUS
10
112.584
20
-111.74
11
112.393
21
-111.645
0
LINE
8
BLACK
6
CONTINUOUS
10
112.393
20
-111.645
11
112.298
21
-111.454
0
LINE
8
BLACK
6
CONTINUOUS
10
112.298
20
-111.454
11
112.298
21
-109.74
0
LINE
8
BLACK
6
CONTINUOUS
10
113.632
20
-111.74
11
113.441
21
-111.645
0
LINE
8
BLACK
6
CONTINUOUS
10
113.441
20
-111.645
11
113.346
21
-111.454
0
LINE
8
BLACK
6
CONTINUOUS
10
113.346
20
-111.454
11
113.346
21
-109.74
0
LINE
8
BLACK
6
CONTINUOUS
10
115.917
20
-111.74
11
115.917
21
-109.74
0
LINE
8
BLACK
6
CONTINUOUS
10
115.917
20
-109.74
11
116.584
21
-111.168
0
LINE
8
BLACK
6
CONTINUOUS
10
116.584
20
-111.168
11
117.251
21
-109.74
0
LINE
8
BLACK
6
CONTINUOUS
10
117.251
20
-109.74
11
117.251
21
-111.74
0
LINE
8
BLACK
6
CONTINUOUS
10
119.06
20
-111.74
11
119.06
21
-110.692
0
LINE
8
BLACK
6
CONTINUOUS
10
119.06
20
-110.692
11
118.965
21
-110.502
0
LINE
8
BLACK
6
CONTINUOUS
10
118.965
20
-110.502
11
118.774
21
-110.407
0
LINE
8
BLACK
6
CONTINUOUS
10
118.774
20
-110.407
11
118.393
21
-110.407
0
LINE
8
BLACK
6
CONTINUOUS
10
118.393
20
-110.407
11
118.203
21
-110.502
0
LINE
8
BLACK
6
CONTINUOUS
10
119.06
20
-111.645
11
118.87
21
-111.74
0
LINE
8
BLACK
6
CONTINUOUS
10
118.87
20
-111.74
11
118.393
21
-111.74
0
LINE
8
BLACK
6
CONTINUOUS
10
118.393
20
-111.74
11
118.203
21
-111.645
0
LINE
8
BLACK
6
CONTINUOUS
10
118.203
20
-111.645
11
118.108
21
-111.454
0
LINE
8
BLACK
6
CONTINUOUS
10
118.108
20
-111.454
11
118.108
21
-111.264
0
LINE
8
BLACK
6
CONTINUOUS
10
118.108
20
-111.264
11
118.203
21
-111.073
0
LINE
8
BLACK
6
CONTINUOUS
10
118.203
20
-111.073
11
118.393
21
-110.978
0
LINE
8
BLACK
6
CONTINUOUS
10
118.393
20
-110.978
11
118.87
21
-110.978
0
LINE
8
BLACK
6
CONTINUOUS
10
118.87
20
-110.978
11
119.06
21
-110.883
0
LINE
8
BLACK
6
CONTINUOUS
10
120.013
20
-110.407
11
120.013
21
-112.407
0
LINE
8
BLACK
6
CONTINUOUS
10
120.013
20
-110.502
11
120.203
21
-110.407
0
LINE
8
BLACK
6
CONTINUOUS
10
120.203
20
-110.407
11
120.584
21
-110.407
0
LINE
8
BLACK
6
CONTINUOUS
10
120.584
20
-110.407
11
120.774
21
-110.502
0
LINE
8
BLACK
6
CONTINUOUS
10
120.774
20
-110.502
11
120.87
21
-110.597
0
LINE
8
BLACK
6
CONTINUOUS
10
120.87
20
-110.597
11
120.965
21
-110.787
0
LINE
8
BLACK
6
CONTINUOUS
10
120.965
20
-110.787
11
120.965
21
-111.359
0
LINE
8
BLACK
6
CONTINUOUS
10
120.965
20
-111.359
11
120.87
21
-111.549
0
LINE
8
BLACK
6
CONTINUOUS
10
120.87
20
-111.549
11
120.774
21
-111.645
0
LINE
8
BLACK
6
CONTINUOUS
10
120.774
20
-111.645
11
120.584
21
-111.74
0
LINE
8
BLACK
6
CONTINUOUS
10
120.584
20
-111.74
11
120.203
21
-111.74
0
LINE
8
BLACK
6
CONTINUOUS
10
120.203
20
-111.74
11
120.013
21
-111.645
0
LINE
8
BLACK
6
CONTINUOUS
10
121.822
20
-111.549
11
121.917
21
-111.645
0
LINE
8
BLACK
6
CONTINUOUS
10
121.917
20
-111.645
11
121.822
21
-111.74
0
LINE
8
BLACK
6
CONTINUOUS
10
121.822
20
-111.74
11
121.727
21
-111.645
0
LINE
8
BLACK
6
CONTINUOUS
10
121.727
20
-111.645
11
121.822
21
-111.549
0
LINE
8
BLACK
6
CONTINUOUS
10
121.822
20
-111.549
11
121.822
21
-111.74
0
LINE
8
BLACK
6
CONTINUOUS
10
121.822
20
-110.502
11
121.917
21
-110.597
0
LINE
8
BLACK
6
CONTINUOUS
10
121.917
20
-110.597
11
121.822
21
-110.692
0
LINE
8
BLACK
6
CONTINUOUS
10
121.822
20
-110.692
11
121.727
21
-110.597
0
LINE
8
BLACK
6
CONTINUOUS
10
121.727
20
-110.597
11
121.822
21
-110.502
0
LINE
8
BLACK
6
CONTINUOUS
10
121.822
20
-110.502
11
121.822
21
-110.692
  0
ENDSEC
  0
EOF
